G75*
%MOIN*%
%OFA0B0*%
%FSLAX25Y25*%
%IPPOS*%
%LPD*%
%AMOC8*
5,1,8,0,0,1.08239X$1,22.5*
%
%ADD10C,0.00000*%
%ADD11R,0.03937X0.04331*%
%ADD12R,0.04331X0.03937*%
%ADD13R,0.08661X0.02362*%
%ADD14R,0.03937X0.02756*%
%ADD15R,0.03150X0.03150*%
%ADD16R,0.05906X0.05906*%
%ADD17R,0.12598X0.07087*%
%ADD18R,0.07087X0.12598*%
%ADD19R,0.03100X0.03500*%
%ADD20R,0.03500X0.03100*%
%ADD21C,0.07800*%
%ADD22R,0.02362X0.01575*%
%ADD23C,0.01600*%
%ADD24C,0.03169*%
D10*
X0001000Y0001000D02*
X0001000Y0223461D01*
X0222201Y0223461D01*
X0222201Y0001000D01*
X0001000Y0001000D01*
X0180173Y0031000D02*
X0180176Y0031266D01*
X0180186Y0031531D01*
X0180202Y0031796D01*
X0180225Y0032061D01*
X0180254Y0032325D01*
X0180290Y0032589D01*
X0180332Y0032851D01*
X0180381Y0033112D01*
X0180436Y0033372D01*
X0180497Y0033631D01*
X0180565Y0033888D01*
X0180639Y0034143D01*
X0180719Y0034396D01*
X0180806Y0034648D01*
X0180898Y0034897D01*
X0180997Y0035143D01*
X0181102Y0035388D01*
X0181213Y0035629D01*
X0181329Y0035868D01*
X0181451Y0036104D01*
X0181580Y0036337D01*
X0181713Y0036566D01*
X0181853Y0036792D01*
X0181998Y0037015D01*
X0182148Y0037234D01*
X0182304Y0037450D01*
X0182465Y0037661D01*
X0182631Y0037869D01*
X0182802Y0038072D01*
X0182978Y0038271D01*
X0183159Y0038466D01*
X0183344Y0038656D01*
X0183534Y0038841D01*
X0183729Y0039022D01*
X0183928Y0039198D01*
X0184131Y0039369D01*
X0184339Y0039535D01*
X0184550Y0039696D01*
X0184766Y0039852D01*
X0184985Y0040002D01*
X0185208Y0040147D01*
X0185434Y0040287D01*
X0185663Y0040420D01*
X0185896Y0040549D01*
X0186132Y0040671D01*
X0186371Y0040787D01*
X0186612Y0040898D01*
X0186857Y0041003D01*
X0187103Y0041102D01*
X0187352Y0041194D01*
X0187604Y0041281D01*
X0187857Y0041361D01*
X0188112Y0041435D01*
X0188369Y0041503D01*
X0188628Y0041564D01*
X0188888Y0041619D01*
X0189149Y0041668D01*
X0189411Y0041710D01*
X0189675Y0041746D01*
X0189939Y0041775D01*
X0190204Y0041798D01*
X0190469Y0041814D01*
X0190734Y0041824D01*
X0191000Y0041827D01*
X0191266Y0041824D01*
X0191531Y0041814D01*
X0191796Y0041798D01*
X0192061Y0041775D01*
X0192325Y0041746D01*
X0192589Y0041710D01*
X0192851Y0041668D01*
X0193112Y0041619D01*
X0193372Y0041564D01*
X0193631Y0041503D01*
X0193888Y0041435D01*
X0194143Y0041361D01*
X0194396Y0041281D01*
X0194648Y0041194D01*
X0194897Y0041102D01*
X0195143Y0041003D01*
X0195388Y0040898D01*
X0195629Y0040787D01*
X0195868Y0040671D01*
X0196104Y0040549D01*
X0196337Y0040420D01*
X0196566Y0040287D01*
X0196792Y0040147D01*
X0197015Y0040002D01*
X0197234Y0039852D01*
X0197450Y0039696D01*
X0197661Y0039535D01*
X0197869Y0039369D01*
X0198072Y0039198D01*
X0198271Y0039022D01*
X0198466Y0038841D01*
X0198656Y0038656D01*
X0198841Y0038466D01*
X0199022Y0038271D01*
X0199198Y0038072D01*
X0199369Y0037869D01*
X0199535Y0037661D01*
X0199696Y0037450D01*
X0199852Y0037234D01*
X0200002Y0037015D01*
X0200147Y0036792D01*
X0200287Y0036566D01*
X0200420Y0036337D01*
X0200549Y0036104D01*
X0200671Y0035868D01*
X0200787Y0035629D01*
X0200898Y0035388D01*
X0201003Y0035143D01*
X0201102Y0034897D01*
X0201194Y0034648D01*
X0201281Y0034396D01*
X0201361Y0034143D01*
X0201435Y0033888D01*
X0201503Y0033631D01*
X0201564Y0033372D01*
X0201619Y0033112D01*
X0201668Y0032851D01*
X0201710Y0032589D01*
X0201746Y0032325D01*
X0201775Y0032061D01*
X0201798Y0031796D01*
X0201814Y0031531D01*
X0201824Y0031266D01*
X0201827Y0031000D01*
X0201824Y0030734D01*
X0201814Y0030469D01*
X0201798Y0030204D01*
X0201775Y0029939D01*
X0201746Y0029675D01*
X0201710Y0029411D01*
X0201668Y0029149D01*
X0201619Y0028888D01*
X0201564Y0028628D01*
X0201503Y0028369D01*
X0201435Y0028112D01*
X0201361Y0027857D01*
X0201281Y0027604D01*
X0201194Y0027352D01*
X0201102Y0027103D01*
X0201003Y0026857D01*
X0200898Y0026612D01*
X0200787Y0026371D01*
X0200671Y0026132D01*
X0200549Y0025896D01*
X0200420Y0025663D01*
X0200287Y0025434D01*
X0200147Y0025208D01*
X0200002Y0024985D01*
X0199852Y0024766D01*
X0199696Y0024550D01*
X0199535Y0024339D01*
X0199369Y0024131D01*
X0199198Y0023928D01*
X0199022Y0023729D01*
X0198841Y0023534D01*
X0198656Y0023344D01*
X0198466Y0023159D01*
X0198271Y0022978D01*
X0198072Y0022802D01*
X0197869Y0022631D01*
X0197661Y0022465D01*
X0197450Y0022304D01*
X0197234Y0022148D01*
X0197015Y0021998D01*
X0196792Y0021853D01*
X0196566Y0021713D01*
X0196337Y0021580D01*
X0196104Y0021451D01*
X0195868Y0021329D01*
X0195629Y0021213D01*
X0195388Y0021102D01*
X0195143Y0020997D01*
X0194897Y0020898D01*
X0194648Y0020806D01*
X0194396Y0020719D01*
X0194143Y0020639D01*
X0193888Y0020565D01*
X0193631Y0020497D01*
X0193372Y0020436D01*
X0193112Y0020381D01*
X0192851Y0020332D01*
X0192589Y0020290D01*
X0192325Y0020254D01*
X0192061Y0020225D01*
X0191796Y0020202D01*
X0191531Y0020186D01*
X0191266Y0020176D01*
X0191000Y0020173D01*
X0190734Y0020176D01*
X0190469Y0020186D01*
X0190204Y0020202D01*
X0189939Y0020225D01*
X0189675Y0020254D01*
X0189411Y0020290D01*
X0189149Y0020332D01*
X0188888Y0020381D01*
X0188628Y0020436D01*
X0188369Y0020497D01*
X0188112Y0020565D01*
X0187857Y0020639D01*
X0187604Y0020719D01*
X0187352Y0020806D01*
X0187103Y0020898D01*
X0186857Y0020997D01*
X0186612Y0021102D01*
X0186371Y0021213D01*
X0186132Y0021329D01*
X0185896Y0021451D01*
X0185663Y0021580D01*
X0185434Y0021713D01*
X0185208Y0021853D01*
X0184985Y0021998D01*
X0184766Y0022148D01*
X0184550Y0022304D01*
X0184339Y0022465D01*
X0184131Y0022631D01*
X0183928Y0022802D01*
X0183729Y0022978D01*
X0183534Y0023159D01*
X0183344Y0023344D01*
X0183159Y0023534D01*
X0182978Y0023729D01*
X0182802Y0023928D01*
X0182631Y0024131D01*
X0182465Y0024339D01*
X0182304Y0024550D01*
X0182148Y0024766D01*
X0181998Y0024985D01*
X0181853Y0025208D01*
X0181713Y0025434D01*
X0181580Y0025663D01*
X0181451Y0025896D01*
X0181329Y0026132D01*
X0181213Y0026371D01*
X0181102Y0026612D01*
X0180997Y0026857D01*
X0180898Y0027103D01*
X0180806Y0027352D01*
X0180719Y0027604D01*
X0180639Y0027857D01*
X0180565Y0028112D01*
X0180497Y0028369D01*
X0180436Y0028628D01*
X0180381Y0028888D01*
X0180332Y0029149D01*
X0180290Y0029411D01*
X0180254Y0029675D01*
X0180225Y0029939D01*
X0180202Y0030204D01*
X0180186Y0030469D01*
X0180176Y0030734D01*
X0180173Y0031000D01*
X0020173Y0193500D02*
X0020176Y0193766D01*
X0020186Y0194031D01*
X0020202Y0194296D01*
X0020225Y0194561D01*
X0020254Y0194825D01*
X0020290Y0195089D01*
X0020332Y0195351D01*
X0020381Y0195612D01*
X0020436Y0195872D01*
X0020497Y0196131D01*
X0020565Y0196388D01*
X0020639Y0196643D01*
X0020719Y0196896D01*
X0020806Y0197148D01*
X0020898Y0197397D01*
X0020997Y0197643D01*
X0021102Y0197888D01*
X0021213Y0198129D01*
X0021329Y0198368D01*
X0021451Y0198604D01*
X0021580Y0198837D01*
X0021713Y0199066D01*
X0021853Y0199292D01*
X0021998Y0199515D01*
X0022148Y0199734D01*
X0022304Y0199950D01*
X0022465Y0200161D01*
X0022631Y0200369D01*
X0022802Y0200572D01*
X0022978Y0200771D01*
X0023159Y0200966D01*
X0023344Y0201156D01*
X0023534Y0201341D01*
X0023729Y0201522D01*
X0023928Y0201698D01*
X0024131Y0201869D01*
X0024339Y0202035D01*
X0024550Y0202196D01*
X0024766Y0202352D01*
X0024985Y0202502D01*
X0025208Y0202647D01*
X0025434Y0202787D01*
X0025663Y0202920D01*
X0025896Y0203049D01*
X0026132Y0203171D01*
X0026371Y0203287D01*
X0026612Y0203398D01*
X0026857Y0203503D01*
X0027103Y0203602D01*
X0027352Y0203694D01*
X0027604Y0203781D01*
X0027857Y0203861D01*
X0028112Y0203935D01*
X0028369Y0204003D01*
X0028628Y0204064D01*
X0028888Y0204119D01*
X0029149Y0204168D01*
X0029411Y0204210D01*
X0029675Y0204246D01*
X0029939Y0204275D01*
X0030204Y0204298D01*
X0030469Y0204314D01*
X0030734Y0204324D01*
X0031000Y0204327D01*
X0031266Y0204324D01*
X0031531Y0204314D01*
X0031796Y0204298D01*
X0032061Y0204275D01*
X0032325Y0204246D01*
X0032589Y0204210D01*
X0032851Y0204168D01*
X0033112Y0204119D01*
X0033372Y0204064D01*
X0033631Y0204003D01*
X0033888Y0203935D01*
X0034143Y0203861D01*
X0034396Y0203781D01*
X0034648Y0203694D01*
X0034897Y0203602D01*
X0035143Y0203503D01*
X0035388Y0203398D01*
X0035629Y0203287D01*
X0035868Y0203171D01*
X0036104Y0203049D01*
X0036337Y0202920D01*
X0036566Y0202787D01*
X0036792Y0202647D01*
X0037015Y0202502D01*
X0037234Y0202352D01*
X0037450Y0202196D01*
X0037661Y0202035D01*
X0037869Y0201869D01*
X0038072Y0201698D01*
X0038271Y0201522D01*
X0038466Y0201341D01*
X0038656Y0201156D01*
X0038841Y0200966D01*
X0039022Y0200771D01*
X0039198Y0200572D01*
X0039369Y0200369D01*
X0039535Y0200161D01*
X0039696Y0199950D01*
X0039852Y0199734D01*
X0040002Y0199515D01*
X0040147Y0199292D01*
X0040287Y0199066D01*
X0040420Y0198837D01*
X0040549Y0198604D01*
X0040671Y0198368D01*
X0040787Y0198129D01*
X0040898Y0197888D01*
X0041003Y0197643D01*
X0041102Y0197397D01*
X0041194Y0197148D01*
X0041281Y0196896D01*
X0041361Y0196643D01*
X0041435Y0196388D01*
X0041503Y0196131D01*
X0041564Y0195872D01*
X0041619Y0195612D01*
X0041668Y0195351D01*
X0041710Y0195089D01*
X0041746Y0194825D01*
X0041775Y0194561D01*
X0041798Y0194296D01*
X0041814Y0194031D01*
X0041824Y0193766D01*
X0041827Y0193500D01*
X0041824Y0193234D01*
X0041814Y0192969D01*
X0041798Y0192704D01*
X0041775Y0192439D01*
X0041746Y0192175D01*
X0041710Y0191911D01*
X0041668Y0191649D01*
X0041619Y0191388D01*
X0041564Y0191128D01*
X0041503Y0190869D01*
X0041435Y0190612D01*
X0041361Y0190357D01*
X0041281Y0190104D01*
X0041194Y0189852D01*
X0041102Y0189603D01*
X0041003Y0189357D01*
X0040898Y0189112D01*
X0040787Y0188871D01*
X0040671Y0188632D01*
X0040549Y0188396D01*
X0040420Y0188163D01*
X0040287Y0187934D01*
X0040147Y0187708D01*
X0040002Y0187485D01*
X0039852Y0187266D01*
X0039696Y0187050D01*
X0039535Y0186839D01*
X0039369Y0186631D01*
X0039198Y0186428D01*
X0039022Y0186229D01*
X0038841Y0186034D01*
X0038656Y0185844D01*
X0038466Y0185659D01*
X0038271Y0185478D01*
X0038072Y0185302D01*
X0037869Y0185131D01*
X0037661Y0184965D01*
X0037450Y0184804D01*
X0037234Y0184648D01*
X0037015Y0184498D01*
X0036792Y0184353D01*
X0036566Y0184213D01*
X0036337Y0184080D01*
X0036104Y0183951D01*
X0035868Y0183829D01*
X0035629Y0183713D01*
X0035388Y0183602D01*
X0035143Y0183497D01*
X0034897Y0183398D01*
X0034648Y0183306D01*
X0034396Y0183219D01*
X0034143Y0183139D01*
X0033888Y0183065D01*
X0033631Y0182997D01*
X0033372Y0182936D01*
X0033112Y0182881D01*
X0032851Y0182832D01*
X0032589Y0182790D01*
X0032325Y0182754D01*
X0032061Y0182725D01*
X0031796Y0182702D01*
X0031531Y0182686D01*
X0031266Y0182676D01*
X0031000Y0182673D01*
X0030734Y0182676D01*
X0030469Y0182686D01*
X0030204Y0182702D01*
X0029939Y0182725D01*
X0029675Y0182754D01*
X0029411Y0182790D01*
X0029149Y0182832D01*
X0028888Y0182881D01*
X0028628Y0182936D01*
X0028369Y0182997D01*
X0028112Y0183065D01*
X0027857Y0183139D01*
X0027604Y0183219D01*
X0027352Y0183306D01*
X0027103Y0183398D01*
X0026857Y0183497D01*
X0026612Y0183602D01*
X0026371Y0183713D01*
X0026132Y0183829D01*
X0025896Y0183951D01*
X0025663Y0184080D01*
X0025434Y0184213D01*
X0025208Y0184353D01*
X0024985Y0184498D01*
X0024766Y0184648D01*
X0024550Y0184804D01*
X0024339Y0184965D01*
X0024131Y0185131D01*
X0023928Y0185302D01*
X0023729Y0185478D01*
X0023534Y0185659D01*
X0023344Y0185844D01*
X0023159Y0186034D01*
X0022978Y0186229D01*
X0022802Y0186428D01*
X0022631Y0186631D01*
X0022465Y0186839D01*
X0022304Y0187050D01*
X0022148Y0187266D01*
X0021998Y0187485D01*
X0021853Y0187708D01*
X0021713Y0187934D01*
X0021580Y0188163D01*
X0021451Y0188396D01*
X0021329Y0188632D01*
X0021213Y0188871D01*
X0021102Y0189112D01*
X0020997Y0189357D01*
X0020898Y0189603D01*
X0020806Y0189852D01*
X0020719Y0190104D01*
X0020639Y0190357D01*
X0020565Y0190612D01*
X0020497Y0190869D01*
X0020436Y0191128D01*
X0020381Y0191388D01*
X0020332Y0191649D01*
X0020290Y0191911D01*
X0020254Y0192175D01*
X0020225Y0192439D01*
X0020202Y0192704D01*
X0020186Y0192969D01*
X0020176Y0193234D01*
X0020173Y0193500D01*
D11*
X0077654Y0186000D03*
X0084346Y0186000D03*
X0107654Y0141000D03*
X0114346Y0141000D03*
X0132654Y0113500D03*
X0139346Y0113500D03*
X0167654Y0123500D03*
X0174346Y0123500D03*
X0106000Y0104346D03*
X0106000Y0097654D03*
X0079346Y0121000D03*
X0072654Y0121000D03*
X0127654Y0026000D03*
X0134346Y0026000D03*
X0147654Y0026000D03*
X0154346Y0026000D03*
D12*
X0149346Y0056000D03*
X0142654Y0056000D03*
X0124346Y0071000D03*
X0117654Y0071000D03*
X0074346Y0071000D03*
X0067654Y0071000D03*
X0101000Y0122654D03*
X0101000Y0129346D03*
X0091000Y0167654D03*
X0091000Y0174346D03*
X0076000Y0174346D03*
X0076000Y0167654D03*
X0118500Y0180154D03*
X0118500Y0186846D03*
X0166000Y0084346D03*
X0166000Y0077654D03*
X0176000Y0077654D03*
X0176000Y0084346D03*
D13*
X0176236Y0098500D03*
X0176236Y0103500D03*
X0176236Y0108500D03*
X0176236Y0113500D03*
X0155764Y0113500D03*
X0155764Y0108500D03*
X0155764Y0103500D03*
X0155764Y0098500D03*
X0141236Y0098500D03*
X0141236Y0093500D03*
X0141236Y0088500D03*
X0141236Y0083500D03*
X0120764Y0083500D03*
X0120764Y0088500D03*
X0120764Y0093500D03*
X0120764Y0098500D03*
X0114898Y0063500D03*
X0114898Y0058500D03*
X0114898Y0053500D03*
X0114898Y0048500D03*
X0114898Y0043500D03*
X0114898Y0038500D03*
X0114898Y0033500D03*
X0114898Y0028500D03*
X0077201Y0028500D03*
X0077201Y0033500D03*
X0077201Y0038500D03*
X0077201Y0043500D03*
X0077201Y0048500D03*
X0077201Y0053500D03*
X0077201Y0058500D03*
X0077201Y0063500D03*
X0051236Y0098500D03*
X0051236Y0103500D03*
X0051236Y0108500D03*
X0051236Y0113500D03*
X0030764Y0113500D03*
X0030764Y0108500D03*
X0030764Y0103500D03*
X0030764Y0098500D03*
X0140764Y0138500D03*
X0140764Y0143500D03*
X0140764Y0148500D03*
X0140764Y0153500D03*
X0161236Y0153500D03*
X0161236Y0148500D03*
X0161236Y0143500D03*
X0161236Y0138500D03*
D14*
X0104169Y0194760D03*
X0104169Y0202240D03*
X0112831Y0198500D03*
X0066669Y0109740D03*
X0066669Y0102260D03*
X0075331Y0106000D03*
D15*
X0076000Y0148047D03*
X0076000Y0153953D03*
D16*
X0096000Y0157890D03*
X0096000Y0144110D03*
D17*
X0193500Y0094524D03*
X0193500Y0072476D03*
D18*
X0172024Y0176000D03*
X0149976Y0176000D03*
D19*
X0089700Y0194500D03*
X0082100Y0194500D03*
X0085900Y0202500D03*
X0080900Y0140000D03*
X0077100Y0132000D03*
X0084700Y0132000D03*
D20*
X0112000Y0125900D03*
X0120000Y0122100D03*
X0120000Y0129700D03*
X0110000Y0169600D03*
X0110000Y0177200D03*
X0102000Y0173400D03*
X0177000Y0144900D03*
X0177000Y0137300D03*
X0185000Y0141100D03*
X0192000Y0119900D03*
X0192000Y0112300D03*
X0200000Y0116100D03*
D21*
X0202400Y0186000D02*
X0194600Y0186000D01*
X0194600Y0196000D02*
X0202400Y0196000D01*
X0029900Y0148500D02*
X0022100Y0148500D01*
X0022100Y0138500D02*
X0029900Y0138500D01*
X0029900Y0128500D02*
X0022100Y0128500D01*
X0022100Y0061000D02*
X0029900Y0061000D01*
X0029900Y0051000D02*
X0022100Y0051000D01*
X0022100Y0041000D02*
X0029900Y0041000D01*
X0029900Y0031000D02*
X0022100Y0031000D01*
X0022100Y0021000D02*
X0029900Y0021000D01*
D22*
X0137260Y0038441D03*
X0137260Y0041000D03*
X0137260Y0043559D03*
X0144740Y0043559D03*
X0144740Y0041000D03*
X0144740Y0038441D03*
X0122260Y0193441D03*
X0122260Y0198559D03*
X0129740Y0196000D03*
D23*
X0129760Y0202240D02*
X0136000Y0196000D01*
X0136000Y0163500D01*
X0138500Y0161000D01*
X0151000Y0161000D01*
X0161000Y0161000D01*
X0161236Y0160764D01*
X0161236Y0153500D01*
X0161236Y0148500D02*
X0173400Y0148500D01*
X0177000Y0144900D01*
X0170800Y0143500D02*
X0177000Y0137300D01*
X0177000Y0126154D01*
X0174346Y0123500D01*
X0167654Y0123500D02*
X0165154Y0126000D01*
X0151000Y0126000D01*
X0161000Y0121000D02*
X0131000Y0121000D01*
X0122300Y0129700D01*
X0120000Y0129700D01*
X0114346Y0134346D02*
X0108950Y0128950D01*
X0112000Y0125900D01*
X0108950Y0128950D02*
X0108554Y0129346D01*
X0101000Y0129346D01*
X0101000Y0136000D02*
X0081100Y0136000D01*
X0077100Y0132000D01*
X0072654Y0127554D01*
X0072654Y0121000D01*
X0072100Y0121554D01*
X0076000Y0116000D02*
X0061000Y0116000D01*
X0056000Y0121000D01*
X0051000Y0121000D01*
X0076000Y0146000D01*
X0076000Y0148047D01*
X0076000Y0153953D02*
X0076000Y0167654D01*
X0075154Y0173500D02*
X0071000Y0173500D01*
X0051000Y0148500D01*
X0026000Y0148500D01*
X0026000Y0138500D02*
X0053500Y0138500D01*
X0071000Y0161000D01*
X0075154Y0173500D02*
X0076000Y0174346D01*
X0076846Y0174346D01*
X0083500Y0181000D01*
X0083500Y0185154D01*
X0084346Y0186000D01*
X0084346Y0189146D01*
X0089700Y0194500D01*
X0086100Y0198500D02*
X0093500Y0198500D01*
X0096000Y0196000D01*
X0096000Y0193500D01*
X0091000Y0188500D01*
X0091000Y0174346D01*
X0091000Y0167654D02*
X0096000Y0162654D01*
X0096000Y0157890D01*
X0103500Y0156000D02*
X0103500Y0145154D01*
X0107654Y0141000D01*
X0113500Y0141846D02*
X0114346Y0141000D01*
X0114346Y0134346D01*
X0113500Y0141846D02*
X0113500Y0146000D01*
X0108500Y0151000D01*
X0103500Y0156000D02*
X0110000Y0162500D01*
X0110000Y0169600D01*
X0106000Y0173600D01*
X0106000Y0186000D01*
X0104169Y0186669D01*
X0104169Y0194760D01*
X0104169Y0202240D02*
X0121000Y0202240D01*
X0122260Y0202240D01*
X0122260Y0198559D01*
X0122260Y0202240D02*
X0129760Y0202240D01*
X0122260Y0193441D02*
X0122260Y0186846D01*
X0126000Y0183106D01*
X0126000Y0156000D01*
X0133500Y0148500D01*
X0140764Y0148500D01*
X0148500Y0148500D01*
X0151000Y0146000D01*
X0151000Y0138500D01*
X0161236Y0138500D01*
X0161236Y0143500D02*
X0170800Y0143500D01*
X0181000Y0136000D02*
X0181000Y0171000D01*
X0177024Y0174976D01*
X0172024Y0176000D01*
X0161000Y0166000D02*
X0141000Y0166000D01*
X0149976Y0176000D02*
X0149976Y0184976D01*
X0166000Y0196000D01*
X0198500Y0196000D01*
X0198500Y0186000D02*
X0161000Y0186000D01*
X0161000Y0166000D01*
X0140764Y0143500D02*
X0140764Y0138500D01*
X0133500Y0138500D01*
X0116000Y0156000D01*
X0116000Y0176746D01*
X0115546Y0177200D01*
X0118500Y0180154D01*
X0115546Y0177200D02*
X0110000Y0177200D01*
X0102000Y0173400D02*
X0102000Y0172000D01*
X0101000Y0168500D01*
X0118500Y0186846D02*
X0122260Y0186846D01*
X0104429Y0202500D02*
X0104169Y0202240D01*
X0104429Y0202500D02*
X0085900Y0202500D01*
X0086100Y0198500D02*
X0082100Y0194500D01*
X0077654Y0190054D01*
X0077654Y0186000D01*
X0096000Y0144110D02*
X0095390Y0143500D01*
X0083500Y0143500D01*
X0080900Y0140000D01*
X0084700Y0132000D02*
X0079346Y0126646D01*
X0079346Y0121000D01*
X0079346Y0119346D01*
X0076000Y0116000D01*
X0079346Y0121000D02*
X0079700Y0121354D01*
X0082260Y0109740D02*
X0066669Y0109740D01*
X0065429Y0103500D02*
X0066669Y0102260D01*
X0071276Y0097654D01*
X0106000Y0097654D01*
X0113500Y0090154D01*
X0113500Y0086000D01*
X0116000Y0083500D01*
X0120764Y0083500D01*
X0123500Y0083500D01*
X0131000Y0071000D01*
X0126000Y0071000D01*
X0126000Y0061000D01*
X0123500Y0058500D01*
X0126000Y0058500D01*
X0123500Y0058500D02*
X0114898Y0058500D01*
X0114898Y0063500D02*
X0114898Y0071000D01*
X0108500Y0077398D01*
X0108500Y0088500D01*
X0038500Y0088500D01*
X0038500Y0113500D01*
X0030764Y0113500D01*
X0030764Y0108500D02*
X0031000Y0108264D01*
X0030764Y0108500D02*
X0030764Y0106000D01*
X0026000Y0106000D01*
X0021000Y0111000D01*
X0021000Y0126000D01*
X0028500Y0118500D01*
X0041000Y0118500D01*
X0042250Y0117250D01*
X0046000Y0121000D01*
X0051000Y0121000D01*
X0051236Y0113500D02*
X0096846Y0113500D01*
X0106000Y0104346D01*
X0107654Y0104346D01*
X0111000Y0101000D01*
X0131000Y0121000D01*
X0132654Y0113500D02*
X0128500Y0113500D01*
X0118500Y0103500D01*
X0111000Y0101000D02*
X0111000Y0098500D01*
X0116000Y0093500D01*
X0120764Y0093500D01*
X0131000Y0086000D02*
X0131000Y0101000D01*
X0133500Y0103500D01*
X0155764Y0103500D01*
X0163500Y0103500D01*
X0168500Y0098500D01*
X0176236Y0098500D01*
X0176236Y0103500D02*
X0181000Y0103500D01*
X0182200Y0102300D01*
X0192000Y0112300D01*
X0196000Y0106000D02*
X0193500Y0103500D01*
X0196000Y0106000D02*
X0196000Y0126000D01*
X0191000Y0131000D01*
X0186000Y0131000D01*
X0181000Y0136000D01*
X0185000Y0141100D02*
X0195900Y0141100D01*
X0201000Y0136000D01*
X0201000Y0117100D01*
X0200000Y0116100D01*
X0201000Y0115100D01*
X0201000Y0101000D01*
X0193500Y0094524D01*
X0183500Y0093500D02*
X0183500Y0101000D01*
X0182200Y0102300D01*
X0180600Y0108500D02*
X0176236Y0108500D01*
X0180600Y0108500D02*
X0192000Y0119900D01*
X0176236Y0113500D02*
X0168500Y0113500D01*
X0161000Y0121000D01*
X0155764Y0113500D02*
X0139346Y0113500D01*
X0146000Y0108500D02*
X0155764Y0108500D01*
X0155764Y0098500D02*
X0155764Y0089583D01*
X0161000Y0084346D01*
X0156000Y0084346D01*
X0156000Y0083500D01*
X0151000Y0086000D02*
X0151000Y0054346D01*
X0151000Y0038500D01*
X0150941Y0038441D01*
X0154346Y0035035D01*
X0154346Y0026000D01*
X0147654Y0026000D02*
X0147654Y0032654D01*
X0148500Y0033500D01*
X0150941Y0038441D02*
X0144740Y0038441D01*
X0144740Y0041000D02*
X0141000Y0041000D01*
X0141000Y0031000D01*
X0131000Y0031000D01*
X0127654Y0027654D01*
X0127654Y0026000D01*
X0123500Y0028500D02*
X0126000Y0031000D01*
X0123500Y0028500D02*
X0114898Y0028500D01*
X0128500Y0038500D02*
X0132319Y0038500D01*
X0137260Y0038441D01*
X0137260Y0041000D02*
X0131000Y0041000D01*
X0123500Y0048500D01*
X0114898Y0048500D01*
X0114898Y0043500D02*
X0123500Y0043500D01*
X0128500Y0038500D01*
X0133500Y0043500D02*
X0123500Y0053500D01*
X0114898Y0053500D01*
X0114898Y0071000D02*
X0117654Y0071000D01*
X0124346Y0071000D02*
X0126000Y0071000D01*
X0131000Y0071000D02*
X0141000Y0066000D01*
X0141000Y0054346D01*
X0141000Y0041000D01*
X0144740Y0043559D02*
X0146000Y0044819D01*
X0146000Y0048500D01*
X0141000Y0054346D02*
X0142654Y0056000D01*
X0149346Y0056000D02*
X0151000Y0054346D01*
X0146000Y0068500D02*
X0146000Y0071000D01*
X0131000Y0086000D01*
X0141236Y0088500D02*
X0148500Y0088500D01*
X0151000Y0086000D01*
X0161000Y0084346D02*
X0166000Y0084346D01*
X0166000Y0077654D02*
X0176000Y0077654D01*
X0176000Y0084346D02*
X0176000Y0086000D01*
X0183500Y0093500D01*
X0193500Y0072476D02*
X0192024Y0071000D01*
X0181000Y0071000D01*
X0137260Y0043559D02*
X0134819Y0043500D01*
X0133500Y0043500D01*
X0134346Y0026000D02*
X0147654Y0026000D01*
X0131000Y0071000D02*
X0133500Y0073500D01*
X0099346Y0121000D02*
X0096000Y0118500D01*
X0099346Y0121000D02*
X0101000Y0122654D01*
X0101554Y0122100D01*
X0120000Y0122100D01*
X0086000Y0106000D02*
X0082260Y0109740D01*
X0065429Y0103500D02*
X0051236Y0103500D01*
X0051236Y0108500D01*
X0051000Y0108264D01*
X0051000Y0106000D01*
X0043500Y0106000D01*
X0043500Y0116000D01*
X0042250Y0117250D01*
X0030764Y0106000D02*
X0030764Y0103500D01*
X0021000Y0126000D02*
X0021000Y0128500D01*
X0026000Y0128500D01*
X0061000Y0071000D02*
X0067654Y0071000D01*
X0074346Y0071000D02*
X0074346Y0063500D01*
X0077201Y0063500D01*
X0066000Y0061000D01*
X0026000Y0061000D01*
X0026000Y0051000D02*
X0048500Y0051000D01*
X0061000Y0053500D01*
X0066000Y0056000D01*
X0077201Y0058500D01*
X0077201Y0053500D02*
X0073500Y0053500D01*
X0056000Y0041000D01*
X0026000Y0041000D01*
X0026000Y0031000D02*
X0056000Y0031000D01*
X0073500Y0048500D01*
X0077201Y0048500D01*
X0077201Y0043500D02*
X0073500Y0043500D01*
X0071000Y0041000D01*
X0066000Y0031000D01*
X0056000Y0021000D01*
X0026000Y0021000D01*
X0076000Y0023500D02*
X0076000Y0027299D01*
X0077201Y0028500D01*
D24*
X0076000Y0023500D03*
X0061000Y0053500D03*
X0061000Y0071000D03*
X0086000Y0106000D03*
X0096000Y0118500D03*
X0101000Y0136000D03*
X0108500Y0151000D03*
X0101000Y0168500D03*
X0071000Y0161000D03*
X0118500Y0103500D03*
X0146000Y0108500D03*
X0151000Y0126000D03*
X0151000Y0161000D03*
X0141000Y0166000D03*
X0193500Y0103500D03*
X0181000Y0071000D03*
X0156000Y0083500D03*
X0146000Y0068500D03*
X0133500Y0073500D03*
X0126000Y0058500D03*
X0146000Y0048500D03*
X0148500Y0033500D03*
X0126000Y0031000D03*
M02*
