G75*
%MOIN*%
%OFA0B0*%
%FSLAX25Y25*%
%IPPOS*%
%LPD*%
%AMOC8*
5,1,8,0,0,1.08239X$1,22.5*
%
%ADD10C,0.00000*%
%ADD11C,0.00500*%
%ADD12C,0.03000*%
%ADD13C,0.00400*%
%ADD14R,0.00886X0.00984*%
%ADD15C,0.00984*%
%ADD16R,0.00787X0.00787*%
%ADD17C,0.00600*%
%ADD18C,0.00800*%
%ADD19C,0.01181*%
%ADD20C,0.00300*%
%ADD21C,0.00200*%
D10*
X0001250Y0001250D02*
X0001250Y0193711D01*
X0202451Y0193711D01*
X0202451Y0001250D01*
X0001250Y0001250D01*
X0016150Y0008750D02*
X0016150Y0008817D01*
X0016150Y0008842D02*
X0016150Y0008892D01*
X0016167Y0008909D01*
X0016200Y0008909D01*
X0016217Y0008892D01*
X0016217Y0008842D01*
X0016250Y0008842D02*
X0016150Y0008842D01*
X0016150Y0008783D02*
X0016250Y0008783D01*
X0016250Y0008934D02*
X0016150Y0008934D01*
X0016150Y0008984D01*
X0016167Y0009001D01*
X0016200Y0009001D01*
X0016217Y0008984D01*
X0016217Y0008934D01*
X0016200Y0009026D02*
X0016200Y0009093D01*
X0016183Y0009093D02*
X0016250Y0009093D01*
X0016250Y0009118D02*
X0016250Y0009168D01*
X0016233Y0009185D01*
X0016167Y0009185D01*
X0016150Y0009168D01*
X0016150Y0009118D01*
X0016250Y0009118D01*
X0016183Y0009093D02*
X0016150Y0009060D01*
X0016183Y0009026D01*
X0016250Y0009026D01*
X0016250Y0009210D02*
X0016250Y0009277D01*
X0016250Y0009244D02*
X0016150Y0009244D01*
X0016183Y0009210D01*
X0016200Y0009302D02*
X0016200Y0009369D01*
X0016183Y0009395D02*
X0016150Y0009428D01*
X0016250Y0009428D01*
X0016250Y0009395D02*
X0016250Y0009461D01*
X0016233Y0009487D02*
X0016250Y0009503D01*
X0016250Y0009537D01*
X0016233Y0009553D01*
X0016217Y0009553D01*
X0016200Y0009537D01*
X0016200Y0009520D01*
X0016200Y0009537D02*
X0016183Y0009553D01*
X0016167Y0009553D01*
X0016150Y0009537D01*
X0016150Y0009503D01*
X0016167Y0009487D01*
X0016167Y0009579D02*
X0016200Y0009612D01*
X0016250Y0009612D01*
X0016200Y0009612D02*
X0016167Y0009645D01*
X0016150Y0009645D01*
X0016150Y0009579D02*
X0016167Y0009579D01*
X0016150Y0018750D02*
X0016150Y0018817D01*
X0016150Y0018842D02*
X0016150Y0018892D01*
X0016167Y0018909D01*
X0016200Y0018909D01*
X0016217Y0018892D01*
X0016217Y0018842D01*
X0016250Y0018842D02*
X0016150Y0018842D01*
X0016150Y0018783D02*
X0016250Y0018783D01*
X0016250Y0018934D02*
X0016150Y0018934D01*
X0016150Y0018984D01*
X0016167Y0019001D01*
X0016200Y0019001D01*
X0016217Y0018984D01*
X0016217Y0018934D01*
X0016200Y0019026D02*
X0016200Y0019093D01*
X0016183Y0019093D02*
X0016250Y0019093D01*
X0016250Y0019118D02*
X0016250Y0019168D01*
X0016233Y0019185D01*
X0016167Y0019185D01*
X0016150Y0019168D01*
X0016150Y0019118D01*
X0016250Y0019118D01*
X0016183Y0019093D02*
X0016150Y0019060D01*
X0016183Y0019026D01*
X0016250Y0019026D01*
X0016250Y0019210D02*
X0016250Y0019277D01*
X0016250Y0019244D02*
X0016150Y0019244D01*
X0016183Y0019210D01*
X0016200Y0019302D02*
X0016200Y0019369D01*
X0016183Y0019395D02*
X0016150Y0019428D01*
X0016250Y0019428D01*
X0016250Y0019395D02*
X0016250Y0019461D01*
X0016233Y0019487D02*
X0016250Y0019503D01*
X0016250Y0019537D01*
X0016233Y0019553D01*
X0016217Y0019553D01*
X0016200Y0019537D01*
X0016200Y0019520D01*
X0016200Y0019537D02*
X0016183Y0019553D01*
X0016167Y0019553D01*
X0016150Y0019537D01*
X0016150Y0019503D01*
X0016167Y0019487D01*
X0016167Y0019579D02*
X0016200Y0019612D01*
X0016250Y0019612D01*
X0016200Y0019612D02*
X0016167Y0019645D01*
X0016150Y0019645D01*
X0016150Y0019579D02*
X0016167Y0019579D01*
X0016150Y0028750D02*
X0016150Y0028817D01*
X0016150Y0028842D02*
X0016150Y0028892D01*
X0016167Y0028909D01*
X0016200Y0028909D01*
X0016217Y0028892D01*
X0016217Y0028842D01*
X0016250Y0028842D02*
X0016150Y0028842D01*
X0016150Y0028783D02*
X0016250Y0028783D01*
X0016250Y0028934D02*
X0016150Y0028934D01*
X0016150Y0028984D01*
X0016167Y0029001D01*
X0016200Y0029001D01*
X0016217Y0028984D01*
X0016217Y0028934D01*
X0016200Y0029026D02*
X0016200Y0029093D01*
X0016183Y0029093D02*
X0016250Y0029093D01*
X0016250Y0029118D02*
X0016250Y0029168D01*
X0016233Y0029185D01*
X0016167Y0029185D01*
X0016150Y0029168D01*
X0016150Y0029118D01*
X0016250Y0029118D01*
X0016183Y0029093D02*
X0016150Y0029060D01*
X0016183Y0029026D01*
X0016250Y0029026D01*
X0016250Y0029210D02*
X0016250Y0029277D01*
X0016250Y0029244D02*
X0016150Y0029244D01*
X0016183Y0029210D01*
X0016200Y0029302D02*
X0016200Y0029369D01*
X0016183Y0029395D02*
X0016150Y0029428D01*
X0016250Y0029428D01*
X0016250Y0029395D02*
X0016250Y0029461D01*
X0016233Y0029487D02*
X0016250Y0029503D01*
X0016250Y0029537D01*
X0016233Y0029553D01*
X0016217Y0029553D01*
X0016200Y0029537D01*
X0016200Y0029520D01*
X0016200Y0029537D02*
X0016183Y0029553D01*
X0016167Y0029553D01*
X0016150Y0029537D01*
X0016150Y0029503D01*
X0016167Y0029487D01*
X0016167Y0029579D02*
X0016200Y0029612D01*
X0016250Y0029612D01*
X0016200Y0029612D02*
X0016167Y0029645D01*
X0016150Y0029645D01*
X0016150Y0029579D02*
X0016167Y0029579D01*
X0016150Y0038750D02*
X0016150Y0038817D01*
X0016150Y0038842D02*
X0016150Y0038892D01*
X0016167Y0038909D01*
X0016200Y0038909D01*
X0016217Y0038892D01*
X0016217Y0038842D01*
X0016250Y0038842D02*
X0016150Y0038842D01*
X0016150Y0038783D02*
X0016250Y0038783D01*
X0016250Y0038934D02*
X0016150Y0038934D01*
X0016150Y0038984D01*
X0016167Y0039001D01*
X0016200Y0039001D01*
X0016217Y0038984D01*
X0016217Y0038934D01*
X0016200Y0039026D02*
X0016200Y0039093D01*
X0016183Y0039093D02*
X0016250Y0039093D01*
X0016250Y0039118D02*
X0016250Y0039168D01*
X0016233Y0039185D01*
X0016167Y0039185D01*
X0016150Y0039168D01*
X0016150Y0039118D01*
X0016250Y0039118D01*
X0016183Y0039093D02*
X0016150Y0039060D01*
X0016183Y0039026D01*
X0016250Y0039026D01*
X0016250Y0039210D02*
X0016250Y0039277D01*
X0016250Y0039244D02*
X0016150Y0039244D01*
X0016183Y0039210D01*
X0016200Y0039302D02*
X0016200Y0039369D01*
X0016183Y0039395D02*
X0016150Y0039428D01*
X0016250Y0039428D01*
X0016250Y0039395D02*
X0016250Y0039461D01*
X0016233Y0039487D02*
X0016250Y0039503D01*
X0016250Y0039537D01*
X0016233Y0039553D01*
X0016217Y0039553D01*
X0016200Y0039537D01*
X0016200Y0039520D01*
X0016200Y0039537D02*
X0016183Y0039553D01*
X0016167Y0039553D01*
X0016150Y0039537D01*
X0016150Y0039503D01*
X0016167Y0039487D01*
X0016167Y0039579D02*
X0016200Y0039612D01*
X0016250Y0039612D01*
X0016200Y0039612D02*
X0016167Y0039645D01*
X0016150Y0039645D01*
X0016150Y0039579D02*
X0016167Y0039579D01*
X0016150Y0048750D02*
X0016150Y0048817D01*
X0016150Y0048842D02*
X0016150Y0048892D01*
X0016167Y0048909D01*
X0016200Y0048909D01*
X0016217Y0048892D01*
X0016217Y0048842D01*
X0016250Y0048842D02*
X0016150Y0048842D01*
X0016150Y0048783D02*
X0016250Y0048783D01*
X0016250Y0048934D02*
X0016150Y0048934D01*
X0016150Y0048984D01*
X0016167Y0049001D01*
X0016200Y0049001D01*
X0016217Y0048984D01*
X0016217Y0048934D01*
X0016200Y0049026D02*
X0016200Y0049093D01*
X0016183Y0049093D02*
X0016250Y0049093D01*
X0016250Y0049118D02*
X0016250Y0049168D01*
X0016233Y0049185D01*
X0016167Y0049185D01*
X0016150Y0049168D01*
X0016150Y0049118D01*
X0016250Y0049118D01*
X0016183Y0049093D02*
X0016150Y0049060D01*
X0016183Y0049026D01*
X0016250Y0049026D01*
X0016250Y0049210D02*
X0016250Y0049277D01*
X0016250Y0049244D02*
X0016150Y0049244D01*
X0016183Y0049210D01*
X0016200Y0049302D02*
X0016200Y0049369D01*
X0016183Y0049395D02*
X0016150Y0049428D01*
X0016250Y0049428D01*
X0016250Y0049395D02*
X0016250Y0049461D01*
X0016233Y0049487D02*
X0016250Y0049503D01*
X0016250Y0049537D01*
X0016233Y0049553D01*
X0016217Y0049553D01*
X0016200Y0049537D01*
X0016200Y0049520D01*
X0016200Y0049537D02*
X0016183Y0049553D01*
X0016167Y0049553D01*
X0016150Y0049537D01*
X0016150Y0049503D01*
X0016167Y0049487D01*
X0016167Y0049579D02*
X0016200Y0049612D01*
X0016250Y0049612D01*
X0016200Y0049612D02*
X0016167Y0049645D01*
X0016150Y0049645D01*
X0016150Y0049579D02*
X0016167Y0049579D01*
X0016150Y0116250D02*
X0016150Y0116317D01*
X0016150Y0116342D02*
X0016150Y0116392D01*
X0016167Y0116409D01*
X0016200Y0116409D01*
X0016217Y0116392D01*
X0016217Y0116342D01*
X0016250Y0116342D02*
X0016150Y0116342D01*
X0016150Y0116283D02*
X0016250Y0116283D01*
X0016250Y0116434D02*
X0016150Y0116434D01*
X0016150Y0116484D01*
X0016167Y0116501D01*
X0016200Y0116501D01*
X0016217Y0116484D01*
X0016217Y0116434D01*
X0016200Y0116526D02*
X0016200Y0116593D01*
X0016183Y0116593D02*
X0016250Y0116593D01*
X0016250Y0116618D02*
X0016250Y0116668D01*
X0016233Y0116685D01*
X0016167Y0116685D01*
X0016150Y0116668D01*
X0016150Y0116618D01*
X0016250Y0116618D01*
X0016183Y0116593D02*
X0016150Y0116560D01*
X0016183Y0116526D01*
X0016250Y0116526D01*
X0016250Y0116710D02*
X0016250Y0116777D01*
X0016250Y0116744D02*
X0016150Y0116744D01*
X0016183Y0116710D01*
X0016200Y0116802D02*
X0016200Y0116869D01*
X0016183Y0116895D02*
X0016150Y0116928D01*
X0016250Y0116928D01*
X0016250Y0116895D02*
X0016250Y0116961D01*
X0016233Y0116987D02*
X0016250Y0117003D01*
X0016250Y0117037D01*
X0016233Y0117053D01*
X0016217Y0117053D01*
X0016200Y0117037D01*
X0016200Y0117020D01*
X0016200Y0117037D02*
X0016183Y0117053D01*
X0016167Y0117053D01*
X0016150Y0117037D01*
X0016150Y0117003D01*
X0016167Y0116987D01*
X0016167Y0117079D02*
X0016200Y0117112D01*
X0016250Y0117112D01*
X0016200Y0117112D02*
X0016167Y0117145D01*
X0016150Y0117145D01*
X0016150Y0117079D02*
X0016167Y0117079D01*
X0016150Y0126250D02*
X0016150Y0126317D01*
X0016150Y0126342D02*
X0016150Y0126392D01*
X0016167Y0126409D01*
X0016200Y0126409D01*
X0016217Y0126392D01*
X0016217Y0126342D01*
X0016250Y0126342D02*
X0016150Y0126342D01*
X0016150Y0126283D02*
X0016250Y0126283D01*
X0016250Y0126434D02*
X0016150Y0126434D01*
X0016150Y0126484D01*
X0016167Y0126501D01*
X0016200Y0126501D01*
X0016217Y0126484D01*
X0016217Y0126434D01*
X0016200Y0126526D02*
X0016200Y0126593D01*
X0016183Y0126593D02*
X0016250Y0126593D01*
X0016250Y0126618D02*
X0016250Y0126668D01*
X0016233Y0126685D01*
X0016167Y0126685D01*
X0016150Y0126668D01*
X0016150Y0126618D01*
X0016250Y0126618D01*
X0016183Y0126593D02*
X0016150Y0126560D01*
X0016183Y0126526D01*
X0016250Y0126526D01*
X0016250Y0126710D02*
X0016250Y0126777D01*
X0016250Y0126744D02*
X0016150Y0126744D01*
X0016183Y0126710D01*
X0016200Y0126802D02*
X0016200Y0126869D01*
X0016183Y0126895D02*
X0016150Y0126928D01*
X0016250Y0126928D01*
X0016250Y0126895D02*
X0016250Y0126961D01*
X0016233Y0126987D02*
X0016250Y0127003D01*
X0016250Y0127037D01*
X0016233Y0127053D01*
X0016217Y0127053D01*
X0016200Y0127037D01*
X0016200Y0127020D01*
X0016200Y0127037D02*
X0016183Y0127053D01*
X0016167Y0127053D01*
X0016150Y0127037D01*
X0016150Y0127003D01*
X0016167Y0126987D01*
X0016167Y0127079D02*
X0016200Y0127112D01*
X0016250Y0127112D01*
X0016200Y0127112D02*
X0016167Y0127145D01*
X0016150Y0127145D01*
X0016150Y0127079D02*
X0016167Y0127079D01*
X0016150Y0136250D02*
X0016150Y0136317D01*
X0016150Y0136342D02*
X0016150Y0136392D01*
X0016167Y0136409D01*
X0016200Y0136409D01*
X0016217Y0136392D01*
X0016217Y0136342D01*
X0016250Y0136342D02*
X0016150Y0136342D01*
X0016150Y0136283D02*
X0016250Y0136283D01*
X0016250Y0136434D02*
X0016150Y0136434D01*
X0016150Y0136484D01*
X0016167Y0136501D01*
X0016200Y0136501D01*
X0016217Y0136484D01*
X0016217Y0136434D01*
X0016200Y0136526D02*
X0016200Y0136593D01*
X0016183Y0136593D02*
X0016250Y0136593D01*
X0016250Y0136618D02*
X0016250Y0136668D01*
X0016233Y0136685D01*
X0016167Y0136685D01*
X0016150Y0136668D01*
X0016150Y0136618D01*
X0016250Y0136618D01*
X0016183Y0136593D02*
X0016150Y0136560D01*
X0016183Y0136526D01*
X0016250Y0136526D01*
X0016250Y0136710D02*
X0016250Y0136777D01*
X0016250Y0136744D02*
X0016150Y0136744D01*
X0016183Y0136710D01*
X0016200Y0136802D02*
X0016200Y0136869D01*
X0016183Y0136895D02*
X0016150Y0136928D01*
X0016250Y0136928D01*
X0016250Y0136895D02*
X0016250Y0136961D01*
X0016233Y0136987D02*
X0016250Y0137003D01*
X0016250Y0137037D01*
X0016233Y0137053D01*
X0016217Y0137053D01*
X0016200Y0137037D01*
X0016200Y0137020D01*
X0016200Y0137037D02*
X0016183Y0137053D01*
X0016167Y0137053D01*
X0016150Y0137037D01*
X0016150Y0137003D01*
X0016167Y0136987D01*
X0016167Y0137079D02*
X0016200Y0137112D01*
X0016250Y0137112D01*
X0016200Y0137112D02*
X0016167Y0137145D01*
X0016150Y0137145D01*
X0016150Y0137079D02*
X0016167Y0137079D01*
X0017923Y0166250D02*
X0017926Y0166516D01*
X0017936Y0166781D01*
X0017952Y0167046D01*
X0017975Y0167311D01*
X0018004Y0167575D01*
X0018040Y0167839D01*
X0018082Y0168101D01*
X0018131Y0168362D01*
X0018186Y0168622D01*
X0018247Y0168881D01*
X0018315Y0169138D01*
X0018389Y0169393D01*
X0018469Y0169646D01*
X0018556Y0169898D01*
X0018648Y0170147D01*
X0018747Y0170393D01*
X0018852Y0170638D01*
X0018963Y0170879D01*
X0019079Y0171118D01*
X0019201Y0171354D01*
X0019330Y0171587D01*
X0019463Y0171816D01*
X0019603Y0172042D01*
X0019748Y0172265D01*
X0019898Y0172484D01*
X0020054Y0172700D01*
X0020215Y0172911D01*
X0020381Y0173119D01*
X0020552Y0173322D01*
X0020728Y0173521D01*
X0020909Y0173716D01*
X0021094Y0173906D01*
X0021284Y0174091D01*
X0021479Y0174272D01*
X0021678Y0174448D01*
X0021881Y0174619D01*
X0022089Y0174785D01*
X0022300Y0174946D01*
X0022516Y0175102D01*
X0022735Y0175252D01*
X0022958Y0175397D01*
X0023184Y0175537D01*
X0023413Y0175670D01*
X0023646Y0175799D01*
X0023882Y0175921D01*
X0024121Y0176037D01*
X0024362Y0176148D01*
X0024607Y0176253D01*
X0024853Y0176352D01*
X0025102Y0176444D01*
X0025354Y0176531D01*
X0025607Y0176611D01*
X0025862Y0176685D01*
X0026119Y0176753D01*
X0026378Y0176814D01*
X0026638Y0176869D01*
X0026899Y0176918D01*
X0027161Y0176960D01*
X0027425Y0176996D01*
X0027689Y0177025D01*
X0027954Y0177048D01*
X0028219Y0177064D01*
X0028484Y0177074D01*
X0028750Y0177077D01*
X0029016Y0177074D01*
X0029281Y0177064D01*
X0029546Y0177048D01*
X0029811Y0177025D01*
X0030075Y0176996D01*
X0030339Y0176960D01*
X0030601Y0176918D01*
X0030862Y0176869D01*
X0031122Y0176814D01*
X0031381Y0176753D01*
X0031638Y0176685D01*
X0031893Y0176611D01*
X0032146Y0176531D01*
X0032398Y0176444D01*
X0032647Y0176352D01*
X0032893Y0176253D01*
X0033138Y0176148D01*
X0033379Y0176037D01*
X0033618Y0175921D01*
X0033854Y0175799D01*
X0034087Y0175670D01*
X0034316Y0175537D01*
X0034542Y0175397D01*
X0034765Y0175252D01*
X0034984Y0175102D01*
X0035200Y0174946D01*
X0035411Y0174785D01*
X0035619Y0174619D01*
X0035822Y0174448D01*
X0036021Y0174272D01*
X0036216Y0174091D01*
X0036406Y0173906D01*
X0036591Y0173716D01*
X0036772Y0173521D01*
X0036948Y0173322D01*
X0037119Y0173119D01*
X0037285Y0172911D01*
X0037446Y0172700D01*
X0037602Y0172484D01*
X0037752Y0172265D01*
X0037897Y0172042D01*
X0038037Y0171816D01*
X0038170Y0171587D01*
X0038299Y0171354D01*
X0038421Y0171118D01*
X0038537Y0170879D01*
X0038648Y0170638D01*
X0038753Y0170393D01*
X0038852Y0170147D01*
X0038944Y0169898D01*
X0039031Y0169646D01*
X0039111Y0169393D01*
X0039185Y0169138D01*
X0039253Y0168881D01*
X0039314Y0168622D01*
X0039369Y0168362D01*
X0039418Y0168101D01*
X0039460Y0167839D01*
X0039496Y0167575D01*
X0039525Y0167311D01*
X0039548Y0167046D01*
X0039564Y0166781D01*
X0039574Y0166516D01*
X0039577Y0166250D01*
X0039574Y0165984D01*
X0039564Y0165719D01*
X0039548Y0165454D01*
X0039525Y0165189D01*
X0039496Y0164925D01*
X0039460Y0164661D01*
X0039418Y0164399D01*
X0039369Y0164138D01*
X0039314Y0163878D01*
X0039253Y0163619D01*
X0039185Y0163362D01*
X0039111Y0163107D01*
X0039031Y0162854D01*
X0038944Y0162602D01*
X0038852Y0162353D01*
X0038753Y0162107D01*
X0038648Y0161862D01*
X0038537Y0161621D01*
X0038421Y0161382D01*
X0038299Y0161146D01*
X0038170Y0160913D01*
X0038037Y0160684D01*
X0037897Y0160458D01*
X0037752Y0160235D01*
X0037602Y0160016D01*
X0037446Y0159800D01*
X0037285Y0159589D01*
X0037119Y0159381D01*
X0036948Y0159178D01*
X0036772Y0158979D01*
X0036591Y0158784D01*
X0036406Y0158594D01*
X0036216Y0158409D01*
X0036021Y0158228D01*
X0035822Y0158052D01*
X0035619Y0157881D01*
X0035411Y0157715D01*
X0035200Y0157554D01*
X0034984Y0157398D01*
X0034765Y0157248D01*
X0034542Y0157103D01*
X0034316Y0156963D01*
X0034087Y0156830D01*
X0033854Y0156701D01*
X0033618Y0156579D01*
X0033379Y0156463D01*
X0033138Y0156352D01*
X0032893Y0156247D01*
X0032647Y0156148D01*
X0032398Y0156056D01*
X0032146Y0155969D01*
X0031893Y0155889D01*
X0031638Y0155815D01*
X0031381Y0155747D01*
X0031122Y0155686D01*
X0030862Y0155631D01*
X0030601Y0155582D01*
X0030339Y0155540D01*
X0030075Y0155504D01*
X0029811Y0155475D01*
X0029546Y0155452D01*
X0029281Y0155436D01*
X0029016Y0155426D01*
X0028750Y0155423D01*
X0028484Y0155426D01*
X0028219Y0155436D01*
X0027954Y0155452D01*
X0027689Y0155475D01*
X0027425Y0155504D01*
X0027161Y0155540D01*
X0026899Y0155582D01*
X0026638Y0155631D01*
X0026378Y0155686D01*
X0026119Y0155747D01*
X0025862Y0155815D01*
X0025607Y0155889D01*
X0025354Y0155969D01*
X0025102Y0156056D01*
X0024853Y0156148D01*
X0024607Y0156247D01*
X0024362Y0156352D01*
X0024121Y0156463D01*
X0023882Y0156579D01*
X0023646Y0156701D01*
X0023413Y0156830D01*
X0023184Y0156963D01*
X0022958Y0157103D01*
X0022735Y0157248D01*
X0022516Y0157398D01*
X0022300Y0157554D01*
X0022089Y0157715D01*
X0021881Y0157881D01*
X0021678Y0158052D01*
X0021479Y0158228D01*
X0021284Y0158409D01*
X0021094Y0158594D01*
X0020909Y0158784D01*
X0020728Y0158979D01*
X0020552Y0159178D01*
X0020381Y0159381D01*
X0020215Y0159589D01*
X0020054Y0159800D01*
X0019898Y0160016D01*
X0019748Y0160235D01*
X0019603Y0160458D01*
X0019463Y0160684D01*
X0019330Y0160913D01*
X0019201Y0161146D01*
X0019079Y0161382D01*
X0018963Y0161621D01*
X0018852Y0161862D01*
X0018747Y0162107D01*
X0018648Y0162353D01*
X0018556Y0162602D01*
X0018469Y0162854D01*
X0018389Y0163107D01*
X0018315Y0163362D01*
X0018247Y0163619D01*
X0018186Y0163878D01*
X0018131Y0164138D01*
X0018082Y0164399D01*
X0018040Y0164661D01*
X0018004Y0164925D01*
X0017975Y0165189D01*
X0017952Y0165454D01*
X0017936Y0165719D01*
X0017926Y0165984D01*
X0017923Y0166250D01*
X0162923Y0028750D02*
X0162926Y0029016D01*
X0162936Y0029281D01*
X0162952Y0029546D01*
X0162975Y0029811D01*
X0163004Y0030075D01*
X0163040Y0030339D01*
X0163082Y0030601D01*
X0163131Y0030862D01*
X0163186Y0031122D01*
X0163247Y0031381D01*
X0163315Y0031638D01*
X0163389Y0031893D01*
X0163469Y0032146D01*
X0163556Y0032398D01*
X0163648Y0032647D01*
X0163747Y0032893D01*
X0163852Y0033138D01*
X0163963Y0033379D01*
X0164079Y0033618D01*
X0164201Y0033854D01*
X0164330Y0034087D01*
X0164463Y0034316D01*
X0164603Y0034542D01*
X0164748Y0034765D01*
X0164898Y0034984D01*
X0165054Y0035200D01*
X0165215Y0035411D01*
X0165381Y0035619D01*
X0165552Y0035822D01*
X0165728Y0036021D01*
X0165909Y0036216D01*
X0166094Y0036406D01*
X0166284Y0036591D01*
X0166479Y0036772D01*
X0166678Y0036948D01*
X0166881Y0037119D01*
X0167089Y0037285D01*
X0167300Y0037446D01*
X0167516Y0037602D01*
X0167735Y0037752D01*
X0167958Y0037897D01*
X0168184Y0038037D01*
X0168413Y0038170D01*
X0168646Y0038299D01*
X0168882Y0038421D01*
X0169121Y0038537D01*
X0169362Y0038648D01*
X0169607Y0038753D01*
X0169853Y0038852D01*
X0170102Y0038944D01*
X0170354Y0039031D01*
X0170607Y0039111D01*
X0170862Y0039185D01*
X0171119Y0039253D01*
X0171378Y0039314D01*
X0171638Y0039369D01*
X0171899Y0039418D01*
X0172161Y0039460D01*
X0172425Y0039496D01*
X0172689Y0039525D01*
X0172954Y0039548D01*
X0173219Y0039564D01*
X0173484Y0039574D01*
X0173750Y0039577D01*
X0174016Y0039574D01*
X0174281Y0039564D01*
X0174546Y0039548D01*
X0174811Y0039525D01*
X0175075Y0039496D01*
X0175339Y0039460D01*
X0175601Y0039418D01*
X0175862Y0039369D01*
X0176122Y0039314D01*
X0176381Y0039253D01*
X0176638Y0039185D01*
X0176893Y0039111D01*
X0177146Y0039031D01*
X0177398Y0038944D01*
X0177647Y0038852D01*
X0177893Y0038753D01*
X0178138Y0038648D01*
X0178379Y0038537D01*
X0178618Y0038421D01*
X0178854Y0038299D01*
X0179087Y0038170D01*
X0179316Y0038037D01*
X0179542Y0037897D01*
X0179765Y0037752D01*
X0179984Y0037602D01*
X0180200Y0037446D01*
X0180411Y0037285D01*
X0180619Y0037119D01*
X0180822Y0036948D01*
X0181021Y0036772D01*
X0181216Y0036591D01*
X0181406Y0036406D01*
X0181591Y0036216D01*
X0181772Y0036021D01*
X0181948Y0035822D01*
X0182119Y0035619D01*
X0182285Y0035411D01*
X0182446Y0035200D01*
X0182602Y0034984D01*
X0182752Y0034765D01*
X0182897Y0034542D01*
X0183037Y0034316D01*
X0183170Y0034087D01*
X0183299Y0033854D01*
X0183421Y0033618D01*
X0183537Y0033379D01*
X0183648Y0033138D01*
X0183753Y0032893D01*
X0183852Y0032647D01*
X0183944Y0032398D01*
X0184031Y0032146D01*
X0184111Y0031893D01*
X0184185Y0031638D01*
X0184253Y0031381D01*
X0184314Y0031122D01*
X0184369Y0030862D01*
X0184418Y0030601D01*
X0184460Y0030339D01*
X0184496Y0030075D01*
X0184525Y0029811D01*
X0184548Y0029546D01*
X0184564Y0029281D01*
X0184574Y0029016D01*
X0184577Y0028750D01*
X0184574Y0028484D01*
X0184564Y0028219D01*
X0184548Y0027954D01*
X0184525Y0027689D01*
X0184496Y0027425D01*
X0184460Y0027161D01*
X0184418Y0026899D01*
X0184369Y0026638D01*
X0184314Y0026378D01*
X0184253Y0026119D01*
X0184185Y0025862D01*
X0184111Y0025607D01*
X0184031Y0025354D01*
X0183944Y0025102D01*
X0183852Y0024853D01*
X0183753Y0024607D01*
X0183648Y0024362D01*
X0183537Y0024121D01*
X0183421Y0023882D01*
X0183299Y0023646D01*
X0183170Y0023413D01*
X0183037Y0023184D01*
X0182897Y0022958D01*
X0182752Y0022735D01*
X0182602Y0022516D01*
X0182446Y0022300D01*
X0182285Y0022089D01*
X0182119Y0021881D01*
X0181948Y0021678D01*
X0181772Y0021479D01*
X0181591Y0021284D01*
X0181406Y0021094D01*
X0181216Y0020909D01*
X0181021Y0020728D01*
X0180822Y0020552D01*
X0180619Y0020381D01*
X0180411Y0020215D01*
X0180200Y0020054D01*
X0179984Y0019898D01*
X0179765Y0019748D01*
X0179542Y0019603D01*
X0179316Y0019463D01*
X0179087Y0019330D01*
X0178854Y0019201D01*
X0178618Y0019079D01*
X0178379Y0018963D01*
X0178138Y0018852D01*
X0177893Y0018747D01*
X0177647Y0018648D01*
X0177398Y0018556D01*
X0177146Y0018469D01*
X0176893Y0018389D01*
X0176638Y0018315D01*
X0176381Y0018247D01*
X0176122Y0018186D01*
X0175862Y0018131D01*
X0175601Y0018082D01*
X0175339Y0018040D01*
X0175075Y0018004D01*
X0174811Y0017975D01*
X0174546Y0017952D01*
X0174281Y0017936D01*
X0174016Y0017926D01*
X0173750Y0017923D01*
X0173484Y0017926D01*
X0173219Y0017936D01*
X0172954Y0017952D01*
X0172689Y0017975D01*
X0172425Y0018004D01*
X0172161Y0018040D01*
X0171899Y0018082D01*
X0171638Y0018131D01*
X0171378Y0018186D01*
X0171119Y0018247D01*
X0170862Y0018315D01*
X0170607Y0018389D01*
X0170354Y0018469D01*
X0170102Y0018556D01*
X0169853Y0018648D01*
X0169607Y0018747D01*
X0169362Y0018852D01*
X0169121Y0018963D01*
X0168882Y0019079D01*
X0168646Y0019201D01*
X0168413Y0019330D01*
X0168184Y0019463D01*
X0167958Y0019603D01*
X0167735Y0019748D01*
X0167516Y0019898D01*
X0167300Y0020054D01*
X0167089Y0020215D01*
X0166881Y0020381D01*
X0166678Y0020552D01*
X0166479Y0020728D01*
X0166284Y0020909D01*
X0166094Y0021094D01*
X0165909Y0021284D01*
X0165728Y0021479D01*
X0165552Y0021678D01*
X0165381Y0021881D01*
X0165215Y0022089D01*
X0165054Y0022300D01*
X0164898Y0022516D01*
X0164748Y0022735D01*
X0164603Y0022958D01*
X0164463Y0023184D01*
X0164330Y0023413D01*
X0164201Y0023646D01*
X0164079Y0023882D01*
X0163963Y0024121D01*
X0163852Y0024362D01*
X0163747Y0024607D01*
X0163648Y0024853D01*
X0163556Y0025102D01*
X0163469Y0025354D01*
X0163389Y0025607D01*
X0163315Y0025862D01*
X0163247Y0026119D01*
X0163186Y0026378D01*
X0163131Y0026638D01*
X0163082Y0026899D01*
X0163040Y0027161D01*
X0163004Y0027425D01*
X0162975Y0027689D01*
X0162952Y0027954D01*
X0162936Y0028219D01*
X0162926Y0028484D01*
X0162923Y0028750D01*
X0188650Y0173750D02*
X0188650Y0173817D01*
X0188650Y0173842D02*
X0188650Y0173892D01*
X0188667Y0173909D01*
X0188700Y0173909D01*
X0188717Y0173892D01*
X0188717Y0173842D01*
X0188750Y0173842D02*
X0188650Y0173842D01*
X0188650Y0173783D02*
X0188750Y0173783D01*
X0188750Y0173934D02*
X0188650Y0173934D01*
X0188650Y0173984D01*
X0188667Y0174001D01*
X0188700Y0174001D01*
X0188717Y0173984D01*
X0188717Y0173934D01*
X0188700Y0174026D02*
X0188700Y0174093D01*
X0188683Y0174093D02*
X0188750Y0174093D01*
X0188750Y0174118D02*
X0188750Y0174168D01*
X0188733Y0174185D01*
X0188667Y0174185D01*
X0188650Y0174168D01*
X0188650Y0174118D01*
X0188750Y0174118D01*
X0188683Y0174093D02*
X0188650Y0174060D01*
X0188683Y0174026D01*
X0188750Y0174026D01*
X0188750Y0174210D02*
X0188750Y0174277D01*
X0188750Y0174244D02*
X0188650Y0174244D01*
X0188683Y0174210D01*
X0188700Y0174302D02*
X0188700Y0174369D01*
X0188683Y0174395D02*
X0188650Y0174428D01*
X0188750Y0174428D01*
X0188750Y0174395D02*
X0188750Y0174461D01*
X0188733Y0174487D02*
X0188750Y0174503D01*
X0188750Y0174537D01*
X0188733Y0174553D01*
X0188717Y0174553D01*
X0188700Y0174537D01*
X0188700Y0174520D01*
X0188700Y0174537D02*
X0188683Y0174553D01*
X0188667Y0174553D01*
X0188650Y0174537D01*
X0188650Y0174503D01*
X0188667Y0174487D01*
X0188667Y0174579D02*
X0188700Y0174612D01*
X0188750Y0174612D01*
X0188700Y0174612D02*
X0188667Y0174645D01*
X0188650Y0174645D01*
X0188650Y0174579D02*
X0188667Y0174579D01*
X0188650Y0183750D02*
X0188650Y0183817D01*
X0188650Y0183842D02*
X0188650Y0183892D01*
X0188667Y0183909D01*
X0188700Y0183909D01*
X0188717Y0183892D01*
X0188717Y0183842D01*
X0188750Y0183842D02*
X0188650Y0183842D01*
X0188650Y0183783D02*
X0188750Y0183783D01*
X0188750Y0183934D02*
X0188650Y0183934D01*
X0188650Y0183984D01*
X0188667Y0184001D01*
X0188700Y0184001D01*
X0188717Y0183984D01*
X0188717Y0183934D01*
X0188700Y0184026D02*
X0188700Y0184093D01*
X0188683Y0184093D02*
X0188750Y0184093D01*
X0188750Y0184118D02*
X0188750Y0184168D01*
X0188733Y0184185D01*
X0188667Y0184185D01*
X0188650Y0184168D01*
X0188650Y0184118D01*
X0188750Y0184118D01*
X0188683Y0184093D02*
X0188650Y0184060D01*
X0188683Y0184026D01*
X0188750Y0184026D01*
X0188750Y0184210D02*
X0188750Y0184277D01*
X0188750Y0184244D02*
X0188650Y0184244D01*
X0188683Y0184210D01*
X0188700Y0184302D02*
X0188700Y0184369D01*
X0188683Y0184395D02*
X0188650Y0184428D01*
X0188750Y0184428D01*
X0188750Y0184395D02*
X0188750Y0184461D01*
X0188733Y0184487D02*
X0188750Y0184503D01*
X0188750Y0184537D01*
X0188733Y0184553D01*
X0188717Y0184553D01*
X0188700Y0184537D01*
X0188700Y0184520D01*
X0188700Y0184537D02*
X0188683Y0184553D01*
X0188667Y0184553D01*
X0188650Y0184537D01*
X0188650Y0184503D01*
X0188667Y0184487D01*
X0188667Y0184579D02*
X0188700Y0184612D01*
X0188750Y0184612D01*
X0188700Y0184612D02*
X0188667Y0184645D01*
X0188650Y0184645D01*
X0188650Y0184579D02*
X0188667Y0184579D01*
D11*
X0189648Y0141504D02*
X0187396Y0139252D01*
X0190399Y0139252D01*
X0189648Y0137000D02*
X0189648Y0141504D01*
X0185795Y0140753D02*
X0185795Y0140003D01*
X0185044Y0139252D01*
X0185795Y0138501D01*
X0185795Y0137751D01*
X0185044Y0137000D01*
X0183543Y0137000D01*
X0182792Y0137751D01*
X0184293Y0139252D02*
X0185044Y0139252D01*
X0185795Y0140753D02*
X0185044Y0141504D01*
X0183543Y0141504D01*
X0182792Y0140753D01*
X0181191Y0140753D02*
X0178188Y0137751D01*
X0178188Y0137000D01*
X0175086Y0137000D02*
X0175086Y0141504D01*
X0176587Y0141504D02*
X0173584Y0141504D01*
X0171983Y0141504D02*
X0171983Y0137000D01*
X0168980Y0137000D02*
X0168980Y0141504D01*
X0170482Y0140003D01*
X0171983Y0141504D01*
X0167379Y0141504D02*
X0167379Y0137000D01*
X0164376Y0137000D02*
X0164376Y0141504D01*
X0165878Y0140003D01*
X0167379Y0141504D01*
X0162775Y0141504D02*
X0159772Y0141504D01*
X0159772Y0137000D01*
X0159772Y0139252D02*
X0161274Y0139252D01*
X0178188Y0141504D02*
X0181191Y0141504D01*
X0181191Y0140753D01*
X0176748Y0119126D02*
X0176748Y0116124D01*
X0174496Y0118375D01*
X0179000Y0118375D01*
X0178249Y0114522D02*
X0179000Y0113772D01*
X0179000Y0112270D01*
X0178249Y0111520D01*
X0178249Y0109918D02*
X0177499Y0109918D01*
X0176748Y0109168D01*
X0176748Y0106916D01*
X0178249Y0106916D01*
X0179000Y0107666D01*
X0179000Y0109168D01*
X0178249Y0109918D01*
X0175247Y0108417D02*
X0176748Y0106916D01*
X0175247Y0108417D02*
X0174496Y0109918D01*
X0175247Y0111520D02*
X0174496Y0112270D01*
X0174496Y0113772D01*
X0175247Y0114522D01*
X0175997Y0114522D01*
X0176748Y0113772D01*
X0177499Y0114522D01*
X0178249Y0114522D01*
X0176748Y0113772D02*
X0176748Y0113021D01*
X0174496Y0105314D02*
X0174496Y0102312D01*
X0174496Y0103813D02*
X0179000Y0103813D01*
X0179000Y0100710D02*
X0174496Y0100710D01*
X0175997Y0099209D01*
X0174496Y0097708D01*
X0179000Y0097708D01*
X0179000Y0096106D02*
X0174496Y0096106D01*
X0175997Y0094605D01*
X0174496Y0093104D01*
X0179000Y0093104D01*
X0176748Y0090001D02*
X0176748Y0088500D01*
X0174496Y0088500D02*
X0174496Y0091503D01*
X0174496Y0088500D02*
X0179000Y0088500D01*
X0118000Y0092272D02*
X0113496Y0092272D01*
X0113496Y0095275D01*
X0113496Y0096876D02*
X0114997Y0098378D01*
X0113496Y0099879D01*
X0118000Y0099879D01*
X0118000Y0101480D02*
X0113496Y0101480D01*
X0114997Y0102982D01*
X0113496Y0104483D01*
X0118000Y0104483D01*
X0118000Y0107586D02*
X0113496Y0107586D01*
X0113496Y0109087D02*
X0113496Y0106084D01*
X0115748Y0110688D02*
X0115748Y0112940D01*
X0116499Y0113691D01*
X0117249Y0113691D01*
X0118000Y0112940D01*
X0118000Y0111439D01*
X0117249Y0110688D01*
X0115748Y0110688D01*
X0114247Y0112189D01*
X0113496Y0113691D01*
X0114247Y0115292D02*
X0113496Y0116043D01*
X0113496Y0117544D01*
X0114247Y0118295D01*
X0114997Y0118295D01*
X0115748Y0117544D01*
X0116499Y0118295D01*
X0117249Y0118295D01*
X0118000Y0117544D01*
X0118000Y0116043D01*
X0117249Y0115292D01*
X0115748Y0116793D02*
X0115748Y0117544D01*
X0115748Y0119896D02*
X0115748Y0122899D01*
X0113496Y0122148D02*
X0115748Y0119896D01*
X0118000Y0122148D02*
X0113496Y0122148D01*
X0108000Y0134772D02*
X0103496Y0134772D01*
X0103496Y0137775D01*
X0103496Y0139376D02*
X0104997Y0140878D01*
X0103496Y0142379D01*
X0108000Y0142379D01*
X0108000Y0143980D02*
X0103496Y0143980D01*
X0104997Y0145482D01*
X0103496Y0146983D01*
X0108000Y0146983D01*
X0108000Y0150086D02*
X0103496Y0150086D01*
X0103496Y0151587D02*
X0103496Y0148584D01*
X0103496Y0153188D02*
X0103496Y0156191D01*
X0104247Y0156191D01*
X0107249Y0153188D01*
X0108000Y0153188D01*
X0107249Y0157792D02*
X0108000Y0158543D01*
X0108000Y0160044D01*
X0107249Y0160795D01*
X0106499Y0160795D01*
X0105748Y0160044D01*
X0105748Y0159293D01*
X0105748Y0160044D02*
X0104997Y0160795D01*
X0104247Y0160795D01*
X0103496Y0160044D01*
X0103496Y0158543D01*
X0104247Y0157792D01*
X0105748Y0162396D02*
X0105748Y0165399D01*
X0103496Y0164648D02*
X0105748Y0162396D01*
X0108000Y0164648D02*
X0103496Y0164648D01*
X0103496Y0139376D02*
X0108000Y0139376D01*
X0105748Y0136274D02*
X0105748Y0134772D01*
X0078000Y0127148D02*
X0073496Y0127148D01*
X0075748Y0124896D01*
X0075748Y0127899D01*
X0074997Y0123295D02*
X0075748Y0122544D01*
X0076499Y0123295D01*
X0077249Y0123295D01*
X0078000Y0122544D01*
X0078000Y0121043D01*
X0077249Y0120292D01*
X0077249Y0118691D02*
X0076499Y0118691D01*
X0075748Y0117940D01*
X0075748Y0115688D01*
X0077249Y0115688D01*
X0078000Y0116439D01*
X0078000Y0117940D01*
X0077249Y0118691D01*
X0074247Y0117189D02*
X0075748Y0115688D01*
X0074247Y0117189D02*
X0073496Y0118691D01*
X0074247Y0120292D02*
X0073496Y0121043D01*
X0073496Y0122544D01*
X0074247Y0123295D01*
X0074997Y0123295D01*
X0075748Y0122544D02*
X0075748Y0121793D01*
X0073496Y0114087D02*
X0073496Y0111084D01*
X0073496Y0112586D02*
X0078000Y0112586D01*
X0078000Y0109483D02*
X0073496Y0109483D01*
X0074997Y0107982D01*
X0073496Y0106480D01*
X0078000Y0106480D01*
X0078000Y0104879D02*
X0073496Y0104879D01*
X0074997Y0103378D01*
X0073496Y0101876D01*
X0078000Y0101876D01*
X0075748Y0098774D02*
X0075748Y0097272D01*
X0073496Y0097272D02*
X0073496Y0100275D01*
X0073496Y0097272D02*
X0078000Y0097272D01*
X0096250Y0073750D02*
X0096250Y0001250D01*
X0081250Y0001250D01*
X0081250Y0063750D01*
X0011250Y0063750D01*
X0001250Y0063750D01*
X0001250Y0073750D01*
X0096250Y0073750D01*
X0115748Y0092272D02*
X0115748Y0093774D01*
X0118000Y0096876D02*
X0113496Y0096876D01*
X0061477Y0051087D02*
X0060559Y0052005D01*
X0058724Y0052005D01*
X0057807Y0051087D01*
X0057807Y0047417D01*
X0058724Y0046500D01*
X0060559Y0046500D01*
X0061477Y0047417D01*
X0060559Y0042005D02*
X0057807Y0042005D01*
X0057807Y0036500D01*
X0060559Y0036500D01*
X0061477Y0037417D01*
X0061477Y0041087D01*
X0060559Y0042005D01*
X0055952Y0042005D02*
X0055952Y0036500D01*
X0052282Y0042005D01*
X0052282Y0036500D01*
X0050427Y0037417D02*
X0050427Y0039252D01*
X0048592Y0039252D01*
X0046757Y0037417D02*
X0047675Y0036500D01*
X0049510Y0036500D01*
X0050427Y0037417D01*
X0046757Y0037417D02*
X0046757Y0041087D01*
X0047675Y0042005D01*
X0049510Y0042005D01*
X0050427Y0041087D01*
X0044902Y0045583D02*
X0041233Y0045583D01*
X0039384Y0046500D02*
X0037549Y0046500D01*
X0038467Y0046500D02*
X0038467Y0052005D01*
X0039384Y0052005D02*
X0037549Y0052005D01*
X0035695Y0051087D02*
X0035695Y0049252D01*
X0034777Y0048335D01*
X0032025Y0048335D01*
X0032025Y0046500D02*
X0032025Y0052005D01*
X0034777Y0052005D01*
X0035695Y0051087D01*
X0030170Y0051087D02*
X0029252Y0052005D01*
X0027417Y0052005D01*
X0026500Y0051087D01*
X0026500Y0050170D01*
X0027417Y0049252D01*
X0029252Y0049252D01*
X0030170Y0048335D01*
X0030170Y0047417D01*
X0029252Y0046500D01*
X0027417Y0046500D01*
X0026500Y0047417D01*
X0027417Y0042005D02*
X0026500Y0041087D01*
X0026500Y0040170D01*
X0027417Y0039252D01*
X0029252Y0039252D01*
X0030170Y0038335D01*
X0030170Y0037417D01*
X0029252Y0036500D01*
X0027417Y0036500D01*
X0026500Y0037417D01*
X0030170Y0041087D02*
X0029252Y0042005D01*
X0027417Y0042005D01*
X0032025Y0042005D02*
X0034777Y0042005D01*
X0035695Y0041087D01*
X0035695Y0039252D01*
X0034777Y0038335D01*
X0032025Y0038335D01*
X0032025Y0036500D02*
X0032025Y0042005D01*
X0037549Y0042005D02*
X0039384Y0042005D01*
X0038467Y0042005D02*
X0038467Y0036500D01*
X0039384Y0036500D02*
X0037549Y0036500D01*
X0041233Y0035583D02*
X0044902Y0035583D01*
X0046757Y0031087D02*
X0050427Y0027417D01*
X0048592Y0027417D02*
X0048592Y0031087D01*
X0050427Y0031087D02*
X0046757Y0027417D01*
X0046757Y0029252D02*
X0050427Y0029252D01*
X0052282Y0027417D02*
X0053199Y0026500D01*
X0055034Y0026500D01*
X0055952Y0027417D01*
X0057807Y0027417D02*
X0058724Y0026500D01*
X0060559Y0026500D01*
X0061477Y0027417D01*
X0061477Y0028335D01*
X0060559Y0029252D01*
X0058724Y0029252D01*
X0057807Y0030170D01*
X0057807Y0031087D01*
X0058724Y0032005D01*
X0060559Y0032005D01*
X0061477Y0031087D01*
X0055952Y0031087D02*
X0055034Y0032005D01*
X0053199Y0032005D01*
X0052282Y0031087D01*
X0052282Y0027417D01*
X0053199Y0022005D02*
X0052282Y0021087D01*
X0052282Y0017417D01*
X0053199Y0016500D01*
X0055034Y0016500D01*
X0055952Y0017417D01*
X0057807Y0016500D02*
X0057807Y0022005D01*
X0055952Y0021087D02*
X0055034Y0022005D01*
X0053199Y0022005D01*
X0050427Y0021087D02*
X0049510Y0022005D01*
X0047675Y0022005D01*
X0046757Y0021087D01*
X0046757Y0020170D01*
X0047675Y0019252D01*
X0049510Y0019252D01*
X0050427Y0018335D01*
X0050427Y0017417D01*
X0049510Y0016500D01*
X0047675Y0016500D01*
X0046757Y0017417D01*
X0044902Y0015583D02*
X0041233Y0015583D01*
X0039384Y0016500D02*
X0037549Y0016500D01*
X0038467Y0016500D02*
X0038467Y0022005D01*
X0039384Y0022005D02*
X0037549Y0022005D01*
X0035695Y0021087D02*
X0035695Y0019252D01*
X0034777Y0018335D01*
X0032025Y0018335D01*
X0032025Y0016500D02*
X0032025Y0022005D01*
X0034777Y0022005D01*
X0035695Y0021087D01*
X0030170Y0021087D02*
X0029252Y0022005D01*
X0027417Y0022005D01*
X0026500Y0021087D01*
X0026500Y0020170D01*
X0027417Y0019252D01*
X0029252Y0019252D01*
X0030170Y0018335D01*
X0030170Y0017417D01*
X0029252Y0016500D01*
X0027417Y0016500D01*
X0026500Y0017417D01*
X0027417Y0012005D02*
X0026500Y0011087D01*
X0026500Y0010170D01*
X0027417Y0009252D01*
X0029252Y0009252D01*
X0030170Y0008335D01*
X0030170Y0007417D01*
X0029252Y0006500D01*
X0027417Y0006500D01*
X0026500Y0007417D01*
X0030170Y0011087D02*
X0029252Y0012005D01*
X0027417Y0012005D01*
X0032025Y0012005D02*
X0034777Y0012005D01*
X0035695Y0011087D01*
X0035695Y0009252D01*
X0034777Y0008335D01*
X0032025Y0008335D01*
X0032025Y0006500D02*
X0032025Y0012005D01*
X0037549Y0012005D02*
X0039384Y0012005D01*
X0038467Y0012005D02*
X0038467Y0006500D01*
X0039384Y0006500D02*
X0037549Y0006500D01*
X0041233Y0005583D02*
X0044902Y0005583D01*
X0046757Y0006500D02*
X0046757Y0012005D01*
X0048592Y0010170D01*
X0050427Y0012005D01*
X0050427Y0006500D01*
X0052282Y0007417D02*
X0053199Y0006500D01*
X0055034Y0006500D01*
X0055952Y0007417D01*
X0055952Y0011087D01*
X0055034Y0012005D01*
X0053199Y0012005D01*
X0052282Y0011087D01*
X0052282Y0007417D01*
X0057807Y0007417D02*
X0058724Y0006500D01*
X0060559Y0006500D01*
X0061477Y0007417D01*
X0061477Y0008335D01*
X0060559Y0009252D01*
X0058724Y0009252D01*
X0057807Y0010170D01*
X0057807Y0011087D01*
X0058724Y0012005D01*
X0060559Y0012005D01*
X0061477Y0011087D01*
X0063331Y0012005D02*
X0065166Y0012005D01*
X0064249Y0012005D02*
X0064249Y0006500D01*
X0065166Y0006500D02*
X0063331Y0006500D01*
X0061477Y0016500D02*
X0058724Y0019252D01*
X0057807Y0018335D02*
X0061477Y0022005D01*
X0044902Y0025583D02*
X0041233Y0025583D01*
X0039384Y0026500D02*
X0037549Y0026500D01*
X0038467Y0026500D02*
X0038467Y0032005D01*
X0039384Y0032005D02*
X0037549Y0032005D01*
X0035695Y0031087D02*
X0035695Y0029252D01*
X0034777Y0028335D01*
X0032025Y0028335D01*
X0032025Y0026500D02*
X0032025Y0032005D01*
X0034777Y0032005D01*
X0035695Y0031087D01*
X0030170Y0031087D02*
X0029252Y0032005D01*
X0027417Y0032005D01*
X0026500Y0031087D01*
X0026500Y0030170D01*
X0027417Y0029252D01*
X0029252Y0029252D01*
X0030170Y0028335D01*
X0030170Y0027417D01*
X0029252Y0026500D01*
X0027417Y0026500D01*
X0026500Y0027417D01*
X0046757Y0048335D02*
X0048592Y0046500D01*
X0050427Y0048335D01*
X0050427Y0052005D01*
X0052282Y0051087D02*
X0052282Y0047417D01*
X0053199Y0046500D01*
X0055034Y0046500D01*
X0055952Y0047417D01*
X0055952Y0051087D02*
X0055034Y0052005D01*
X0053199Y0052005D01*
X0052282Y0051087D01*
X0046757Y0052005D02*
X0046757Y0048335D01*
X0047379Y0187000D02*
X0047379Y0191504D01*
X0045878Y0190003D01*
X0044376Y0191504D01*
X0044376Y0187000D01*
X0041274Y0189252D02*
X0039772Y0189252D01*
X0039772Y0187000D02*
X0039772Y0191504D01*
X0042775Y0191504D01*
X0048980Y0191504D02*
X0048980Y0187000D01*
X0051983Y0187000D02*
X0051983Y0191504D01*
X0050482Y0190003D01*
X0048980Y0191504D01*
X0053584Y0191504D02*
X0056587Y0191504D01*
X0055086Y0191504D02*
X0055086Y0187000D01*
X0058188Y0187000D02*
X0058188Y0187751D01*
X0061191Y0190753D01*
X0061191Y0191504D01*
X0058188Y0191504D01*
X0062792Y0190753D02*
X0063543Y0191504D01*
X0065044Y0191504D01*
X0065795Y0190753D01*
X0065795Y0190003D01*
X0065044Y0189252D01*
X0065795Y0188501D01*
X0065795Y0187751D01*
X0065044Y0187000D01*
X0063543Y0187000D01*
X0062792Y0187751D01*
X0064293Y0189252D02*
X0065044Y0189252D01*
X0067396Y0189252D02*
X0070399Y0189252D01*
X0069648Y0187000D02*
X0069648Y0191504D01*
X0067396Y0189252D01*
D12*
X0070250Y0073750D02*
X0063250Y0073750D01*
X0057250Y0073750D02*
X0050250Y0073750D01*
X0044250Y0073750D02*
X0037250Y0073750D01*
X0031250Y0073750D02*
X0024250Y0073750D01*
X0018250Y0073750D02*
X0011250Y0073750D01*
X0011250Y0063750D02*
X0017917Y0063750D01*
X0023917Y0063750D02*
X0030583Y0063750D01*
X0036583Y0063750D02*
X0043250Y0063750D01*
X0049250Y0063750D02*
X0055917Y0063750D01*
X0061917Y0063750D02*
X0068583Y0063750D01*
X0074583Y0063750D02*
X0081250Y0063750D01*
X0081250Y0057050D01*
X0081250Y0051050D02*
X0081250Y0044350D01*
X0081250Y0038350D02*
X0081250Y0031650D01*
X0081250Y0025650D02*
X0081250Y0018950D01*
X0081250Y0012950D02*
X0081250Y0006250D01*
X0096250Y0006250D02*
X0096250Y0012500D01*
X0096250Y0018500D02*
X0096250Y0024750D01*
X0096250Y0030750D02*
X0096250Y0037000D01*
X0096250Y0043000D02*
X0096250Y0049250D01*
X0096250Y0055250D02*
X0096250Y0061500D01*
X0096250Y0067500D02*
X0096250Y0073750D01*
X0089250Y0073750D01*
X0083250Y0073750D02*
X0076250Y0073750D01*
D13*
X0075677Y0070754D02*
X0072808Y0070754D01*
X0074243Y0070754D02*
X0074243Y0066450D01*
X0077136Y0066450D02*
X0078570Y0066450D01*
X0077853Y0066450D02*
X0077853Y0070754D01*
X0077136Y0070754D02*
X0078570Y0070754D01*
X0080021Y0070036D02*
X0080021Y0067167D01*
X0080738Y0066450D01*
X0082173Y0066450D01*
X0082890Y0067167D01*
X0082890Y0070036D01*
X0082173Y0070754D01*
X0080738Y0070754D01*
X0080021Y0070036D01*
X0084348Y0070754D02*
X0084348Y0066450D01*
X0087218Y0066450D02*
X0087218Y0070754D01*
X0084348Y0070754D02*
X0087218Y0066450D01*
X0090481Y0077638D02*
X0088946Y0079173D01*
X0093550Y0079173D01*
X0093550Y0080707D02*
X0093550Y0077638D01*
X0092783Y0082242D02*
X0090481Y0082242D01*
X0092783Y0082242D02*
X0093550Y0083009D01*
X0093550Y0085311D01*
X0090481Y0085311D01*
X0091248Y0086846D02*
X0091248Y0088381D01*
X0088946Y0086846D02*
X0088946Y0089915D01*
X0088946Y0086846D02*
X0093550Y0086846D01*
X0085039Y0085287D02*
X0085039Y0082217D01*
X0084272Y0081450D01*
X0082737Y0081450D01*
X0081970Y0082217D01*
X0085039Y0085287D01*
X0084272Y0086054D01*
X0082737Y0086054D01*
X0081970Y0085287D01*
X0081970Y0082217D01*
X0080435Y0083752D02*
X0077366Y0083752D01*
X0079668Y0086054D01*
X0079668Y0081450D01*
X0075831Y0082217D02*
X0075831Y0085287D01*
X0072762Y0082217D01*
X0073529Y0081450D01*
X0075064Y0081450D01*
X0075831Y0082217D01*
X0075831Y0085287D02*
X0075064Y0086054D01*
X0073529Y0086054D01*
X0072762Y0085287D01*
X0072762Y0082217D01*
X0071227Y0083752D02*
X0068158Y0083752D01*
X0070460Y0086054D01*
X0070460Y0081450D01*
X0066623Y0081450D02*
X0066623Y0086054D01*
X0065089Y0084519D01*
X0063554Y0086054D01*
X0063554Y0081450D01*
X0062019Y0081450D02*
X0058950Y0081450D01*
X0058950Y0086054D01*
X0050039Y0083054D02*
X0046970Y0083054D01*
X0046970Y0080752D01*
X0048504Y0081519D01*
X0049272Y0081519D01*
X0050039Y0080752D01*
X0050039Y0079217D01*
X0049272Y0078450D01*
X0047737Y0078450D01*
X0046970Y0079217D01*
X0045435Y0079217D02*
X0044668Y0078450D01*
X0043133Y0078450D01*
X0042366Y0079217D01*
X0045435Y0082287D01*
X0045435Y0079217D01*
X0042366Y0079217D02*
X0042366Y0082287D01*
X0043133Y0083054D01*
X0044668Y0083054D01*
X0045435Y0082287D01*
X0040831Y0078450D02*
X0037762Y0078450D01*
X0037762Y0083054D01*
X0036227Y0082287D02*
X0036227Y0081519D01*
X0035460Y0080752D01*
X0033925Y0080752D01*
X0033158Y0081519D01*
X0033158Y0082287D01*
X0033925Y0083054D01*
X0035460Y0083054D01*
X0036227Y0082287D01*
X0035460Y0080752D02*
X0036227Y0079985D01*
X0036227Y0079217D01*
X0035460Y0078450D01*
X0033925Y0078450D01*
X0033158Y0079217D01*
X0033158Y0079985D01*
X0033925Y0080752D01*
X0031623Y0082287D02*
X0028554Y0079217D01*
X0028554Y0078450D01*
X0027019Y0078450D02*
X0023950Y0078450D01*
X0023950Y0083054D01*
X0028554Y0083054D02*
X0031623Y0083054D01*
X0031623Y0082287D01*
X0032416Y0070754D02*
X0033851Y0070754D01*
X0033133Y0070754D02*
X0033133Y0066450D01*
X0032416Y0066450D02*
X0033851Y0066450D01*
X0035301Y0067167D02*
X0036019Y0066450D01*
X0037453Y0066450D01*
X0038170Y0067167D01*
X0039629Y0066450D02*
X0039629Y0069319D01*
X0041064Y0070754D01*
X0042498Y0069319D01*
X0042498Y0066450D01*
X0043957Y0066450D02*
X0046826Y0066450D01*
X0043957Y0066450D02*
X0043957Y0070754D01*
X0042498Y0068602D02*
X0039629Y0068602D01*
X0038170Y0070036D02*
X0037453Y0070754D01*
X0036019Y0070754D01*
X0035301Y0070036D01*
X0035301Y0067167D01*
X0030958Y0066450D02*
X0029523Y0067885D01*
X0030240Y0067885D02*
X0028088Y0067885D01*
X0028088Y0066450D02*
X0028088Y0070754D01*
X0030240Y0070754D01*
X0030958Y0070036D01*
X0030958Y0068602D01*
X0030240Y0067885D01*
X0026630Y0070754D02*
X0023761Y0070754D01*
X0025195Y0070754D02*
X0025195Y0066450D01*
X0022302Y0067167D02*
X0021585Y0066450D01*
X0020150Y0066450D01*
X0019433Y0067167D01*
X0019433Y0070036D01*
X0020150Y0070754D01*
X0021585Y0070754D01*
X0022302Y0070036D01*
X0017974Y0070754D02*
X0015105Y0070754D01*
X0015105Y0066450D01*
X0017974Y0066450D01*
X0016540Y0068602D02*
X0015105Y0068602D01*
X0013647Y0066450D02*
X0010778Y0066450D01*
X0010778Y0070754D01*
X0009319Y0070754D02*
X0006450Y0070754D01*
X0006450Y0066450D01*
X0009319Y0066450D01*
X0007885Y0068602D02*
X0006450Y0068602D01*
X0037638Y0059519D02*
X0039173Y0061054D01*
X0039173Y0056450D01*
X0040707Y0056450D02*
X0037638Y0056450D01*
X0042242Y0057217D02*
X0043009Y0056450D01*
X0045311Y0056450D01*
X0045311Y0059519D01*
X0046846Y0058752D02*
X0048381Y0058752D01*
X0046846Y0061054D02*
X0049915Y0061054D01*
X0046846Y0061054D02*
X0046846Y0056450D01*
X0042242Y0057217D02*
X0042242Y0059519D01*
X0052612Y0066450D02*
X0054047Y0066450D01*
X0053329Y0066450D02*
X0053329Y0070754D01*
X0052612Y0070754D02*
X0054047Y0070754D01*
X0055497Y0070036D02*
X0055497Y0069319D01*
X0056214Y0068602D01*
X0057649Y0068602D01*
X0058366Y0067885D01*
X0058366Y0067167D01*
X0057649Y0066450D01*
X0056214Y0066450D01*
X0055497Y0067167D01*
X0055497Y0070036D02*
X0056214Y0070754D01*
X0057649Y0070754D01*
X0058366Y0070036D01*
X0059825Y0070036D02*
X0059825Y0067167D01*
X0060542Y0066450D01*
X0061977Y0066450D01*
X0062694Y0067167D01*
X0062694Y0070036D01*
X0061977Y0070754D01*
X0060542Y0070754D01*
X0059825Y0070036D01*
X0064153Y0070754D02*
X0064153Y0066450D01*
X0067022Y0066450D01*
X0068480Y0066450D02*
X0068480Y0069319D01*
X0069915Y0070754D01*
X0071349Y0069319D01*
X0071349Y0066450D01*
X0071349Y0068602D02*
X0068480Y0068602D01*
X0087213Y0049915D02*
X0086446Y0049148D01*
X0086446Y0046846D01*
X0091050Y0046846D01*
X0091050Y0049148D01*
X0090283Y0049915D01*
X0087213Y0049915D01*
X0087213Y0045311D02*
X0087981Y0045311D01*
X0088748Y0044544D01*
X0088748Y0042242D01*
X0087213Y0040707D02*
X0090283Y0037638D01*
X0091050Y0038405D01*
X0091050Y0039940D01*
X0090283Y0040707D01*
X0087213Y0040707D01*
X0086446Y0039940D01*
X0086446Y0038405D01*
X0087213Y0037638D01*
X0090283Y0037638D01*
X0090283Y0036104D02*
X0091050Y0035336D01*
X0091050Y0033802D01*
X0090283Y0033034D01*
X0090283Y0031500D02*
X0089515Y0031500D01*
X0088748Y0030732D01*
X0088748Y0028430D01*
X0090283Y0028430D01*
X0091050Y0029198D01*
X0091050Y0030732D01*
X0090283Y0031500D01*
X0087213Y0029965D02*
X0088748Y0028430D01*
X0087981Y0026896D02*
X0087213Y0026896D01*
X0086446Y0026128D01*
X0086446Y0024594D01*
X0087213Y0023826D01*
X0087981Y0023826D01*
X0088748Y0024594D01*
X0088748Y0026128D01*
X0089515Y0026896D01*
X0090283Y0026896D01*
X0091050Y0026128D01*
X0091050Y0024594D01*
X0090283Y0023826D01*
X0089515Y0023826D01*
X0088748Y0024594D01*
X0088748Y0026128D02*
X0087981Y0026896D01*
X0087213Y0029965D02*
X0086446Y0031500D01*
X0087213Y0033034D02*
X0086446Y0033802D01*
X0086446Y0035336D01*
X0087213Y0036104D01*
X0087981Y0036104D01*
X0088748Y0035336D01*
X0089515Y0036104D01*
X0090283Y0036104D01*
X0088748Y0035336D02*
X0088748Y0034569D01*
X0086446Y0042242D02*
X0086446Y0044544D01*
X0087213Y0045311D01*
X0088748Y0044544D02*
X0089515Y0045311D01*
X0090283Y0045311D01*
X0091050Y0044544D01*
X0091050Y0042242D01*
X0086446Y0042242D01*
X0086446Y0022292D02*
X0086446Y0020757D01*
X0086446Y0021524D02*
X0091050Y0021524D01*
X0091050Y0020757D02*
X0091050Y0022292D01*
X0090283Y0019222D02*
X0089515Y0019222D01*
X0088748Y0018455D01*
X0088748Y0016920D01*
X0087981Y0016153D01*
X0087213Y0016153D01*
X0086446Y0016920D01*
X0086446Y0018455D01*
X0087213Y0019222D01*
X0090283Y0019222D02*
X0091050Y0018455D01*
X0091050Y0016920D01*
X0090283Y0016153D01*
X0111450Y0008554D02*
X0114519Y0008554D01*
X0114519Y0007787D01*
X0111450Y0004717D01*
X0111450Y0003950D01*
X0116054Y0003950D02*
X0116054Y0008554D01*
X0116821Y0006252D02*
X0119123Y0003950D01*
X0120658Y0003950D02*
X0123727Y0003950D01*
X0122192Y0003950D02*
X0122192Y0008554D01*
X0120658Y0007019D01*
X0119123Y0008554D02*
X0116054Y0005485D01*
X0125262Y0006252D02*
X0126796Y0007019D01*
X0127564Y0007019D01*
X0128331Y0006252D01*
X0128331Y0004717D01*
X0127564Y0003950D01*
X0126029Y0003950D01*
X0125262Y0004717D01*
X0125262Y0006252D02*
X0125262Y0008554D01*
X0128331Y0008554D01*
X0136450Y0008554D02*
X0139519Y0008554D01*
X0139519Y0007787D01*
X0136450Y0004717D01*
X0136450Y0003950D01*
X0141054Y0004717D02*
X0141821Y0003950D01*
X0143356Y0003950D01*
X0144123Y0004717D01*
X0144123Y0006252D01*
X0143356Y0007019D01*
X0142589Y0007019D01*
X0141054Y0006252D01*
X0141054Y0008554D01*
X0144123Y0008554D01*
X0145658Y0008554D02*
X0145658Y0003950D01*
X0145658Y0005485D02*
X0148727Y0008554D01*
X0146425Y0006252D02*
X0148727Y0003950D01*
X0134346Y0046450D02*
X0134346Y0051054D01*
X0137415Y0051054D01*
X0135881Y0048752D02*
X0134346Y0048752D01*
X0132811Y0049519D02*
X0132811Y0046450D01*
X0130509Y0046450D01*
X0129742Y0047217D01*
X0129742Y0049519D01*
X0128207Y0046450D02*
X0125138Y0046450D01*
X0126673Y0046450D02*
X0126673Y0051054D01*
X0125138Y0049519D01*
X0120658Y0051450D02*
X0120658Y0056054D01*
X0123727Y0056054D01*
X0122192Y0053752D02*
X0120658Y0053752D01*
X0119123Y0054519D02*
X0119123Y0051450D01*
X0116821Y0051450D01*
X0116054Y0052217D01*
X0116054Y0054519D01*
X0114519Y0051450D02*
X0111450Y0051450D01*
X0112985Y0051450D02*
X0112985Y0056054D01*
X0111450Y0054519D01*
X0113529Y0063450D02*
X0112762Y0064217D01*
X0113529Y0063450D02*
X0115064Y0063450D01*
X0115831Y0064217D01*
X0115831Y0065752D01*
X0115064Y0066519D01*
X0114296Y0066519D01*
X0112762Y0065752D01*
X0112762Y0068054D01*
X0115831Y0068054D01*
X0117366Y0067287D02*
X0118133Y0068054D01*
X0119668Y0068054D01*
X0120435Y0067287D01*
X0117366Y0064217D01*
X0118133Y0063450D01*
X0119668Y0063450D01*
X0120435Y0064217D01*
X0120435Y0067287D01*
X0121970Y0068054D02*
X0121970Y0065752D01*
X0123504Y0066519D01*
X0124272Y0066519D01*
X0125039Y0065752D01*
X0125039Y0064217D01*
X0124272Y0063450D01*
X0122737Y0063450D01*
X0121970Y0064217D01*
X0121970Y0068054D02*
X0125039Y0068054D01*
X0126574Y0067287D02*
X0127341Y0068054D01*
X0128876Y0068054D01*
X0129643Y0067287D01*
X0126574Y0064217D01*
X0127341Y0063450D01*
X0128876Y0063450D01*
X0129643Y0064217D01*
X0129643Y0067287D01*
X0131177Y0066519D02*
X0132712Y0068054D01*
X0134247Y0066519D01*
X0134247Y0063450D01*
X0135781Y0063450D02*
X0137316Y0063450D01*
X0136549Y0063450D02*
X0136549Y0068054D01*
X0137316Y0068054D02*
X0135781Y0068054D01*
X0134247Y0065752D02*
X0131177Y0065752D01*
X0131177Y0066519D02*
X0131177Y0063450D01*
X0126574Y0064217D02*
X0126574Y0067287D01*
X0117366Y0067287D02*
X0117366Y0064217D01*
X0111227Y0068054D02*
X0108158Y0068054D01*
X0108158Y0063450D01*
X0106623Y0063450D02*
X0103554Y0063450D01*
X0103554Y0068054D01*
X0106623Y0068054D01*
X0105089Y0065752D02*
X0103554Y0065752D01*
X0102019Y0065752D02*
X0101252Y0064985D01*
X0098950Y0064985D01*
X0100485Y0064985D02*
X0102019Y0063450D01*
X0102019Y0065752D02*
X0102019Y0067287D01*
X0101252Y0068054D01*
X0098950Y0068054D01*
X0098950Y0063450D01*
X0108158Y0065752D02*
X0109692Y0065752D01*
X0120138Y0091450D02*
X0120138Y0092217D01*
X0123207Y0095287D01*
X0123207Y0096054D01*
X0120138Y0096054D01*
X0124742Y0096054D02*
X0124742Y0093752D01*
X0126277Y0094519D01*
X0127044Y0094519D01*
X0127811Y0093752D01*
X0127811Y0092217D01*
X0127044Y0091450D01*
X0125509Y0091450D01*
X0124742Y0092217D01*
X0124742Y0096054D02*
X0127811Y0096054D01*
X0129346Y0096054D02*
X0129346Y0091450D01*
X0129346Y0092985D02*
X0132415Y0096054D01*
X0130113Y0093752D02*
X0132415Y0091450D01*
X0141450Y0083054D02*
X0144519Y0083054D01*
X0142985Y0083054D02*
X0142985Y0078450D01*
X0146054Y0078450D02*
X0149123Y0078450D01*
X0150658Y0079217D02*
X0151425Y0078450D01*
X0152960Y0078450D01*
X0153727Y0079217D01*
X0155262Y0078450D02*
X0158331Y0081519D01*
X0158331Y0082287D01*
X0157564Y0083054D01*
X0156029Y0083054D01*
X0155262Y0082287D01*
X0153727Y0082287D02*
X0152960Y0083054D01*
X0151425Y0083054D01*
X0150658Y0082287D01*
X0150658Y0079217D01*
X0155262Y0078450D02*
X0158331Y0078450D01*
X0159866Y0078450D02*
X0162935Y0081519D01*
X0162935Y0082287D01*
X0162168Y0083054D01*
X0160633Y0083054D01*
X0159866Y0082287D01*
X0159866Y0078450D02*
X0162935Y0078450D01*
X0164470Y0079217D02*
X0165237Y0078450D01*
X0166772Y0078450D01*
X0167539Y0079217D01*
X0167539Y0080752D01*
X0166772Y0081519D01*
X0166004Y0081519D01*
X0164470Y0080752D01*
X0164470Y0083054D01*
X0167539Y0083054D01*
X0169074Y0082287D02*
X0169841Y0083054D01*
X0171376Y0083054D01*
X0172143Y0082287D01*
X0172143Y0081519D01*
X0169074Y0078450D01*
X0172143Y0078450D01*
X0173550Y0074123D02*
X0171248Y0071821D01*
X0172015Y0071054D02*
X0168946Y0074123D01*
X0168946Y0071054D02*
X0173550Y0071054D01*
X0173550Y0069519D02*
X0173550Y0066450D01*
X0173550Y0067985D02*
X0168946Y0067985D01*
X0170481Y0066450D01*
X0181446Y0066252D02*
X0181446Y0064717D01*
X0182213Y0063950D01*
X0181446Y0066252D02*
X0182213Y0067019D01*
X0182981Y0067019D01*
X0186050Y0063950D01*
X0186050Y0067019D01*
X0186050Y0068554D02*
X0181446Y0068554D01*
X0183748Y0069321D02*
X0186050Y0071623D01*
X0186050Y0073158D02*
X0182981Y0076227D01*
X0182213Y0076227D01*
X0181446Y0075460D01*
X0181446Y0073925D01*
X0182213Y0073158D01*
X0181446Y0071623D02*
X0184515Y0068554D01*
X0186050Y0073158D02*
X0186050Y0076227D01*
X0153550Y0069148D02*
X0152783Y0069915D01*
X0152015Y0069915D01*
X0151248Y0069148D01*
X0151248Y0066846D01*
X0152783Y0066846D01*
X0153550Y0067613D01*
X0153550Y0069148D01*
X0151248Y0066846D02*
X0149713Y0068381D01*
X0148946Y0069915D01*
X0146524Y0067287D02*
X0146524Y0065752D01*
X0145757Y0064985D01*
X0143455Y0064985D01*
X0144989Y0064985D02*
X0146524Y0063450D01*
X0148946Y0064544D02*
X0149713Y0065311D01*
X0151248Y0065311D01*
X0152015Y0064544D01*
X0152015Y0062242D01*
X0152015Y0060707D02*
X0151248Y0059940D01*
X0151248Y0057638D01*
X0152783Y0057638D01*
X0153550Y0058405D01*
X0153550Y0059940D01*
X0152783Y0060707D01*
X0152015Y0060707D01*
X0153550Y0062242D02*
X0148946Y0062242D01*
X0148946Y0064544D01*
X0152015Y0063777D02*
X0153550Y0065311D01*
X0148946Y0060707D02*
X0149713Y0059173D01*
X0151248Y0057638D01*
X0150481Y0056104D02*
X0151248Y0055336D01*
X0151248Y0053802D01*
X0150481Y0053034D01*
X0149713Y0053034D01*
X0148946Y0053802D01*
X0148946Y0055336D01*
X0149713Y0056104D01*
X0150481Y0056104D01*
X0151248Y0055336D02*
X0152015Y0056104D01*
X0152783Y0056104D01*
X0153550Y0055336D01*
X0153550Y0053802D01*
X0152783Y0053034D01*
X0152015Y0053034D01*
X0151248Y0053802D01*
X0143455Y0063450D02*
X0143455Y0068054D01*
X0145757Y0068054D01*
X0146524Y0067287D01*
X0141920Y0067287D02*
X0141920Y0064217D01*
X0141153Y0063450D01*
X0138851Y0063450D01*
X0138851Y0068054D01*
X0141153Y0068054D01*
X0141920Y0067287D01*
X0146054Y0078450D02*
X0146054Y0083054D01*
X0146277Y0108950D02*
X0146277Y0113554D01*
X0144742Y0112019D01*
X0144742Y0108950D02*
X0147811Y0108950D01*
X0149346Y0108950D02*
X0149346Y0113554D01*
X0149346Y0110485D02*
X0152415Y0113554D01*
X0150113Y0111252D02*
X0152415Y0108950D01*
X0151772Y0118450D02*
X0150237Y0118450D01*
X0149470Y0119217D01*
X0149470Y0120752D02*
X0151004Y0121519D01*
X0151772Y0121519D01*
X0152539Y0120752D01*
X0152539Y0119217D01*
X0151772Y0118450D01*
X0154074Y0118450D02*
X0157143Y0121519D01*
X0157143Y0122287D01*
X0156376Y0123054D01*
X0154841Y0123054D01*
X0154074Y0122287D01*
X0152539Y0123054D02*
X0149470Y0123054D01*
X0149470Y0120752D01*
X0147935Y0121519D02*
X0147935Y0122287D01*
X0147168Y0123054D01*
X0145633Y0123054D01*
X0144866Y0122287D01*
X0143331Y0122287D02*
X0142564Y0123054D01*
X0141029Y0123054D01*
X0140262Y0122287D01*
X0138727Y0122287D02*
X0137960Y0123054D01*
X0136425Y0123054D01*
X0135658Y0122287D01*
X0135658Y0119217D01*
X0136425Y0118450D01*
X0137960Y0118450D01*
X0138727Y0119217D01*
X0140262Y0118450D02*
X0143331Y0121519D01*
X0143331Y0122287D01*
X0143331Y0118450D02*
X0140262Y0118450D01*
X0144866Y0118450D02*
X0147935Y0121519D01*
X0147935Y0118450D02*
X0144866Y0118450D01*
X0154074Y0118450D02*
X0157143Y0118450D01*
X0134123Y0118450D02*
X0131054Y0118450D01*
X0131054Y0123054D01*
X0129519Y0123054D02*
X0126450Y0123054D01*
X0127985Y0123054D02*
X0127985Y0118450D01*
X0119915Y0126450D02*
X0117613Y0128752D01*
X0116846Y0127985D02*
X0119915Y0131054D01*
X0116846Y0131054D02*
X0116846Y0126450D01*
X0115311Y0127217D02*
X0115311Y0127985D01*
X0114544Y0128752D01*
X0112242Y0128752D01*
X0112242Y0127217D01*
X0113009Y0126450D01*
X0114544Y0126450D01*
X0115311Y0127217D01*
X0113777Y0130287D02*
X0112242Y0128752D01*
X0110707Y0129519D02*
X0109940Y0128752D01*
X0110707Y0127985D01*
X0110707Y0127217D01*
X0109940Y0126450D01*
X0108406Y0126450D01*
X0107638Y0127217D01*
X0109173Y0128752D02*
X0109940Y0128752D01*
X0110707Y0129519D02*
X0110707Y0130287D01*
X0109940Y0131054D01*
X0108406Y0131054D01*
X0107638Y0130287D01*
X0113777Y0130287D02*
X0115311Y0131054D01*
X0120481Y0146722D02*
X0118946Y0148257D01*
X0120481Y0149792D01*
X0123550Y0149792D01*
X0123550Y0151326D02*
X0123550Y0153628D01*
X0122783Y0154396D01*
X0119713Y0154396D01*
X0118946Y0153628D01*
X0118946Y0151326D01*
X0123550Y0151326D01*
X0121248Y0149792D02*
X0121248Y0146722D01*
X0120481Y0146722D02*
X0123550Y0146722D01*
X0123550Y0155930D02*
X0118946Y0155930D01*
X0118946Y0158232D01*
X0119713Y0159000D01*
X0121248Y0159000D01*
X0122015Y0158232D01*
X0122015Y0155930D01*
X0122015Y0157465D02*
X0123550Y0159000D01*
X0122783Y0160534D02*
X0123550Y0161302D01*
X0123550Y0162836D01*
X0122783Y0163604D01*
X0121248Y0163604D01*
X0120481Y0162836D01*
X0120481Y0162069D01*
X0121248Y0160534D01*
X0118946Y0160534D01*
X0118946Y0163604D01*
X0119713Y0165138D02*
X0118946Y0165905D01*
X0118946Y0167440D01*
X0119713Y0168207D01*
X0122783Y0165138D01*
X0123550Y0165905D01*
X0123550Y0167440D01*
X0122783Y0168207D01*
X0119713Y0168207D01*
X0121248Y0169742D02*
X0121248Y0172811D01*
X0120481Y0174346D02*
X0118946Y0175881D01*
X0123550Y0175881D01*
X0123550Y0177415D02*
X0123550Y0174346D01*
X0123550Y0172044D02*
X0118946Y0172044D01*
X0121248Y0169742D01*
X0122783Y0165138D02*
X0119713Y0165138D01*
X0131450Y0181450D02*
X0131450Y0185754D01*
X0131227Y0186450D02*
X0128158Y0186450D01*
X0129692Y0186450D02*
X0129692Y0191054D01*
X0128158Y0189519D01*
X0126623Y0191054D02*
X0123554Y0187985D01*
X0124321Y0188752D02*
X0126623Y0186450D01*
X0123554Y0186450D02*
X0123554Y0191054D01*
X0122019Y0191054D02*
X0122019Y0190287D01*
X0118950Y0187217D01*
X0118950Y0186450D01*
X0118950Y0191054D02*
X0122019Y0191054D01*
X0131450Y0183602D02*
X0134319Y0183602D01*
X0135778Y0182167D02*
X0136495Y0181450D01*
X0137930Y0181450D01*
X0138647Y0182167D01*
X0138647Y0185754D01*
X0140105Y0185754D02*
X0141540Y0184319D01*
X0142974Y0185754D01*
X0142974Y0181450D01*
X0144433Y0181450D02*
X0144433Y0184319D01*
X0145868Y0185754D01*
X0147302Y0184319D01*
X0147302Y0181450D01*
X0148761Y0181450D02*
X0148761Y0185754D01*
X0151630Y0181450D01*
X0151630Y0185754D01*
X0147302Y0183602D02*
X0144433Y0183602D01*
X0140105Y0181450D02*
X0140105Y0185754D01*
X0135778Y0185754D02*
X0135778Y0182167D01*
X0134319Y0181450D02*
X0134319Y0185754D01*
X0135064Y0186450D02*
X0133529Y0186450D01*
X0132762Y0187217D01*
X0132762Y0188752D02*
X0134296Y0189519D01*
X0135064Y0189519D01*
X0135831Y0188752D01*
X0135831Y0187217D01*
X0135064Y0186450D01*
X0132762Y0188752D02*
X0132762Y0191054D01*
X0135831Y0191054D01*
X0141450Y0175754D02*
X0141450Y0171450D01*
X0141450Y0173602D02*
X0144319Y0173602D01*
X0145778Y0172167D02*
X0146495Y0171450D01*
X0147930Y0171450D01*
X0148647Y0172167D01*
X0148647Y0175754D01*
X0150105Y0175754D02*
X0151540Y0174319D01*
X0152974Y0175754D01*
X0152974Y0171450D01*
X0154433Y0171450D02*
X0154433Y0174319D01*
X0155868Y0175754D01*
X0157302Y0174319D01*
X0157302Y0171450D01*
X0158761Y0171450D02*
X0158761Y0175754D01*
X0161630Y0171450D01*
X0161630Y0175754D01*
X0157302Y0173602D02*
X0154433Y0173602D01*
X0150105Y0171450D02*
X0150105Y0175754D01*
X0145778Y0175754D02*
X0145778Y0172167D01*
X0144319Y0171450D02*
X0144319Y0175754D01*
X0144717Y0166054D02*
X0143950Y0165287D01*
X0144717Y0166054D02*
X0146252Y0166054D01*
X0147019Y0165287D01*
X0147019Y0164519D01*
X0143950Y0161450D01*
X0147019Y0161450D01*
X0148554Y0161450D02*
X0148554Y0166054D01*
X0149321Y0163752D02*
X0151623Y0161450D01*
X0153158Y0161450D02*
X0156227Y0164519D01*
X0156227Y0165287D01*
X0155460Y0166054D01*
X0153925Y0166054D01*
X0153158Y0165287D01*
X0151623Y0166054D02*
X0148554Y0162985D01*
X0153158Y0161450D02*
X0156227Y0161450D01*
X0163088Y0170733D02*
X0165958Y0170733D01*
X0167416Y0172167D02*
X0168133Y0171450D01*
X0169568Y0171450D01*
X0170285Y0172167D01*
X0170285Y0173602D01*
X0168851Y0173602D01*
X0170285Y0175036D02*
X0169568Y0175754D01*
X0168133Y0175754D01*
X0167416Y0175036D01*
X0167416Y0172167D01*
X0171744Y0171450D02*
X0171744Y0175754D01*
X0174613Y0171450D01*
X0174613Y0175754D01*
X0176072Y0175754D02*
X0178223Y0175754D01*
X0178941Y0175036D01*
X0178941Y0172167D01*
X0178223Y0171450D01*
X0176072Y0171450D01*
X0176072Y0175754D01*
X0175436Y0181450D02*
X0174002Y0181450D01*
X0173284Y0182167D01*
X0173284Y0185754D01*
X0171826Y0185036D02*
X0171109Y0185754D01*
X0169674Y0185754D01*
X0168957Y0185036D01*
X0168957Y0182167D01*
X0169674Y0181450D01*
X0171109Y0181450D01*
X0171826Y0182167D01*
X0171826Y0185036D01*
X0176153Y0185754D02*
X0176153Y0182167D01*
X0175436Y0181450D01*
X0179047Y0181450D02*
X0179047Y0185754D01*
X0180481Y0185754D02*
X0177612Y0185754D01*
X0167498Y0180733D02*
X0164629Y0180733D01*
X0163178Y0181450D02*
X0161744Y0181450D01*
X0162461Y0181450D02*
X0162461Y0185754D01*
X0161744Y0185754D02*
X0163178Y0185754D01*
X0160285Y0183602D02*
X0157416Y0183602D01*
X0158851Y0185036D02*
X0158851Y0182167D01*
X0155958Y0180733D02*
X0153088Y0180733D01*
X0095893Y0152029D02*
X0094358Y0150495D01*
X0094358Y0151262D02*
X0094358Y0148960D01*
X0095893Y0148960D02*
X0091289Y0148960D01*
X0091289Y0151262D01*
X0092056Y0152029D01*
X0093591Y0152029D01*
X0094358Y0151262D01*
X0095893Y0147426D02*
X0095893Y0144356D01*
X0091289Y0144356D01*
X0091289Y0147426D01*
X0093591Y0145891D02*
X0093591Y0144356D01*
X0094358Y0142822D02*
X0095125Y0142822D01*
X0095893Y0142054D01*
X0095893Y0139752D01*
X0091289Y0139752D01*
X0091289Y0142054D01*
X0092056Y0142822D01*
X0092823Y0142822D01*
X0093591Y0142054D01*
X0093591Y0139752D01*
X0093591Y0142054D02*
X0094358Y0142822D01*
X0095893Y0138218D02*
X0091289Y0138218D01*
X0092823Y0136683D01*
X0091289Y0135148D01*
X0095893Y0135148D01*
X0095893Y0133614D02*
X0092823Y0133614D01*
X0091289Y0132079D01*
X0092823Y0130544D01*
X0095893Y0130544D01*
X0093591Y0130544D02*
X0093591Y0133614D01*
X0093946Y0123727D02*
X0097015Y0120658D01*
X0096248Y0121425D02*
X0098550Y0123727D01*
X0098550Y0120658D02*
X0093946Y0120658D01*
X0093946Y0119123D02*
X0094713Y0117589D01*
X0096248Y0116054D01*
X0096248Y0118356D01*
X0097015Y0119123D01*
X0097783Y0119123D01*
X0098550Y0118356D01*
X0098550Y0116821D01*
X0097783Y0116054D01*
X0096248Y0116054D01*
X0095481Y0114519D02*
X0096248Y0113752D01*
X0097015Y0114519D01*
X0097783Y0114519D01*
X0098550Y0113752D01*
X0098550Y0112217D01*
X0097783Y0111450D01*
X0096248Y0112985D02*
X0096248Y0113752D01*
X0095481Y0114519D02*
X0094713Y0114519D01*
X0093946Y0113752D01*
X0093946Y0112217D01*
X0094713Y0111450D01*
X0073924Y0130780D02*
X0073924Y0132315D01*
X0073157Y0133082D01*
X0071622Y0133082D01*
X0071622Y0131548D01*
X0070087Y0133082D02*
X0069320Y0132315D01*
X0069320Y0130780D01*
X0070087Y0130013D01*
X0073157Y0130013D01*
X0073924Y0130780D01*
X0073924Y0134617D02*
X0069320Y0134617D01*
X0069320Y0136919D01*
X0070087Y0137686D01*
X0071622Y0137686D01*
X0072389Y0136919D01*
X0072389Y0134617D01*
X0072389Y0136152D02*
X0073924Y0137686D01*
X0073924Y0139221D02*
X0073924Y0142290D01*
X0073924Y0143825D02*
X0073924Y0146894D01*
X0073924Y0148429D02*
X0069320Y0148429D01*
X0073924Y0151498D01*
X0069320Y0151498D01*
X0069320Y0146894D02*
X0069320Y0143825D01*
X0073924Y0143825D01*
X0071622Y0143825D02*
X0071622Y0145359D01*
X0069320Y0142290D02*
X0069320Y0139221D01*
X0073924Y0139221D01*
X0071622Y0139221D02*
X0071622Y0140755D01*
X0067628Y0139537D02*
X0067628Y0137963D01*
X0064872Y0137963D02*
X0064872Y0139537D01*
X0057143Y0138554D02*
X0057143Y0135485D01*
X0055608Y0133950D01*
X0054074Y0135485D01*
X0054074Y0138554D01*
X0052539Y0138554D02*
X0051004Y0137787D01*
X0049470Y0136252D01*
X0051772Y0136252D01*
X0052539Y0135485D01*
X0052539Y0134717D01*
X0051772Y0133950D01*
X0050237Y0133950D01*
X0049470Y0134717D01*
X0049470Y0136252D01*
X0047935Y0137019D02*
X0047935Y0137787D01*
X0047168Y0138554D01*
X0045633Y0138554D01*
X0044866Y0137787D01*
X0046400Y0136252D02*
X0047168Y0136252D01*
X0047935Y0135485D01*
X0047935Y0134717D01*
X0047168Y0133950D01*
X0045633Y0133950D01*
X0044866Y0134717D01*
X0043331Y0136252D02*
X0040262Y0136252D01*
X0041796Y0137787D02*
X0041796Y0134717D01*
X0038727Y0133950D02*
X0038727Y0138554D01*
X0037192Y0137787D02*
X0036425Y0138554D01*
X0034891Y0138554D01*
X0034123Y0137787D01*
X0034123Y0134717D01*
X0034891Y0133950D01*
X0036425Y0133950D01*
X0037192Y0134717D01*
X0037192Y0137787D01*
X0032589Y0137787D02*
X0031821Y0138554D01*
X0030287Y0138554D01*
X0029519Y0137787D01*
X0029519Y0137019D01*
X0030287Y0136252D01*
X0031821Y0136252D01*
X0032589Y0135485D01*
X0032589Y0134717D01*
X0031821Y0133950D01*
X0030287Y0133950D01*
X0029519Y0134717D01*
X0027985Y0133950D02*
X0026450Y0133950D01*
X0027217Y0133950D02*
X0027217Y0138554D01*
X0026450Y0138554D02*
X0027985Y0138554D01*
X0027985Y0128554D02*
X0026450Y0128554D01*
X0027217Y0128554D02*
X0027217Y0123950D01*
X0026450Y0123950D02*
X0027985Y0123950D01*
X0029519Y0124717D02*
X0030287Y0123950D01*
X0031821Y0123950D01*
X0032589Y0124717D01*
X0032589Y0125485D01*
X0031821Y0126252D01*
X0030287Y0126252D01*
X0029519Y0127019D01*
X0029519Y0127787D01*
X0030287Y0128554D01*
X0031821Y0128554D01*
X0032589Y0127787D01*
X0034123Y0127787D02*
X0034123Y0124717D01*
X0034891Y0123950D01*
X0036425Y0123950D01*
X0037192Y0124717D01*
X0037192Y0127787D01*
X0036425Y0128554D01*
X0034891Y0128554D01*
X0034123Y0127787D01*
X0038727Y0128554D02*
X0038727Y0123950D01*
X0040262Y0124717D02*
X0041029Y0123950D01*
X0042564Y0123950D01*
X0043331Y0124717D01*
X0043331Y0126252D01*
X0041796Y0126252D01*
X0040262Y0127787D02*
X0040262Y0124717D01*
X0040262Y0127787D02*
X0041029Y0128554D01*
X0042564Y0128554D01*
X0043331Y0127787D01*
X0044866Y0128554D02*
X0047935Y0123950D01*
X0047935Y0128554D01*
X0049470Y0128554D02*
X0051772Y0128554D01*
X0052539Y0127787D01*
X0052539Y0124717D01*
X0051772Y0123950D01*
X0049470Y0123950D01*
X0049470Y0128554D01*
X0044866Y0128554D02*
X0044866Y0123950D01*
X0045633Y0118554D02*
X0047168Y0118554D01*
X0047935Y0117787D01*
X0047935Y0117019D01*
X0047168Y0116252D01*
X0047935Y0115485D01*
X0047935Y0114717D01*
X0047168Y0113950D01*
X0045633Y0113950D01*
X0044866Y0114717D01*
X0046400Y0116252D02*
X0047168Y0116252D01*
X0049470Y0116252D02*
X0049470Y0114717D01*
X0050237Y0113950D01*
X0051772Y0113950D01*
X0052539Y0114717D01*
X0052539Y0115485D01*
X0051772Y0116252D01*
X0049470Y0116252D01*
X0051004Y0117787D01*
X0052539Y0118554D01*
X0054074Y0118554D02*
X0054074Y0115485D01*
X0055608Y0113950D01*
X0057143Y0115485D01*
X0057143Y0118554D01*
X0057415Y0111054D02*
X0054346Y0107985D01*
X0055113Y0108752D02*
X0057415Y0106450D01*
X0054346Y0106450D02*
X0054346Y0111054D01*
X0052811Y0111054D02*
X0049742Y0111054D01*
X0049742Y0108752D01*
X0051277Y0109519D01*
X0052044Y0109519D01*
X0052811Y0108752D01*
X0052811Y0107217D01*
X0052044Y0106450D01*
X0050509Y0106450D01*
X0049742Y0107217D01*
X0048207Y0110287D02*
X0045138Y0107217D01*
X0045138Y0106450D01*
X0045138Y0111054D02*
X0048207Y0111054D01*
X0048207Y0110287D01*
X0043331Y0116252D02*
X0040262Y0116252D01*
X0038727Y0118554D02*
X0038727Y0113950D01*
X0037192Y0114717D02*
X0037192Y0117787D01*
X0036425Y0118554D01*
X0034891Y0118554D01*
X0034123Y0117787D01*
X0034123Y0114717D01*
X0034891Y0113950D01*
X0036425Y0113950D01*
X0037192Y0114717D01*
X0032589Y0114717D02*
X0031821Y0113950D01*
X0030287Y0113950D01*
X0029519Y0114717D01*
X0027985Y0113950D02*
X0026450Y0113950D01*
X0027217Y0113950D02*
X0027217Y0118554D01*
X0026450Y0118554D02*
X0027985Y0118554D01*
X0029519Y0117787D02*
X0029519Y0117019D01*
X0030287Y0116252D01*
X0031821Y0116252D01*
X0032589Y0115485D01*
X0032589Y0114717D01*
X0032589Y0117787D02*
X0031821Y0118554D01*
X0030287Y0118554D01*
X0029519Y0117787D01*
X0044866Y0117787D02*
X0045633Y0118554D01*
X0047168Y0136252D02*
X0047935Y0137019D01*
X0058946Y0151450D02*
X0058946Y0154519D01*
X0059713Y0154519D01*
X0062783Y0151450D01*
X0063550Y0151450D01*
X0062783Y0156054D02*
X0063550Y0156821D01*
X0063550Y0158356D01*
X0062783Y0159123D01*
X0061248Y0159123D01*
X0060481Y0158356D01*
X0060481Y0157589D01*
X0061248Y0156054D01*
X0058946Y0156054D01*
X0058946Y0159123D01*
X0058946Y0160658D02*
X0063550Y0160658D01*
X0062015Y0160658D02*
X0058946Y0163727D01*
X0061248Y0161425D02*
X0063550Y0163727D01*
X0068950Y0166450D02*
X0068950Y0167217D01*
X0072019Y0170287D01*
X0072019Y0171054D01*
X0068950Y0171054D01*
X0073554Y0171054D02*
X0073554Y0168752D01*
X0075089Y0169519D01*
X0075856Y0169519D01*
X0076623Y0168752D01*
X0076623Y0167217D01*
X0075856Y0166450D01*
X0074321Y0166450D01*
X0073554Y0167217D01*
X0073554Y0171054D02*
X0076623Y0171054D01*
X0078158Y0171054D02*
X0078158Y0166450D01*
X0078158Y0167985D02*
X0081227Y0171054D01*
X0078925Y0168752D02*
X0081227Y0166450D01*
X0083946Y0163727D02*
X0087015Y0160658D01*
X0086248Y0161425D02*
X0088550Y0163727D01*
X0086446Y0166326D02*
X0091050Y0166326D01*
X0091050Y0169396D01*
X0091050Y0170930D02*
X0086446Y0170930D01*
X0087981Y0172465D01*
X0086446Y0174000D01*
X0091050Y0174000D01*
X0088748Y0175534D02*
X0088748Y0178604D01*
X0087213Y0180138D02*
X0086446Y0180905D01*
X0086446Y0182440D01*
X0087213Y0183207D01*
X0090283Y0180138D01*
X0091050Y0180905D01*
X0091050Y0182440D01*
X0090283Y0183207D01*
X0087213Y0183207D01*
X0088748Y0184742D02*
X0088748Y0187811D01*
X0087213Y0189346D02*
X0086446Y0190113D01*
X0086446Y0191648D01*
X0087213Y0192415D01*
X0090283Y0189346D01*
X0091050Y0190113D01*
X0091050Y0191648D01*
X0090283Y0192415D01*
X0087213Y0192415D01*
X0087213Y0189346D02*
X0090283Y0189346D01*
X0091050Y0187044D02*
X0086446Y0187044D01*
X0088748Y0184742D01*
X0090283Y0180138D02*
X0087213Y0180138D01*
X0086446Y0177836D02*
X0088748Y0175534D01*
X0091050Y0177836D02*
X0086446Y0177836D01*
X0088550Y0160658D02*
X0083946Y0160658D01*
X0083946Y0159123D02*
X0083946Y0156054D01*
X0086248Y0156054D01*
X0085481Y0157589D01*
X0085481Y0158356D01*
X0086248Y0159123D01*
X0087783Y0159123D01*
X0088550Y0158356D01*
X0088550Y0156821D01*
X0087783Y0156054D01*
X0084713Y0154519D02*
X0087783Y0151450D01*
X0088550Y0151450D01*
X0083946Y0151450D02*
X0083946Y0154519D01*
X0084713Y0154519D01*
D14*
X0065118Y0138258D03*
D15*
X0084183Y0135896D03*
D16*
X0086250Y0138750D03*
D17*
X0094750Y0155450D02*
X0094750Y0166850D01*
X0097750Y0166850D01*
X0097750Y0155450D01*
X0094750Y0155450D01*
X0081850Y0184750D02*
X0070450Y0184750D01*
X0070450Y0187750D01*
X0081850Y0187750D01*
X0081850Y0184750D01*
X0017530Y0166250D02*
X0017533Y0166525D01*
X0017544Y0166801D01*
X0017560Y0167075D01*
X0017584Y0167350D01*
X0017614Y0167623D01*
X0017651Y0167896D01*
X0017695Y0168168D01*
X0017746Y0168439D01*
X0017803Y0168708D01*
X0017866Y0168976D01*
X0017936Y0169243D01*
X0018013Y0169507D01*
X0018096Y0169770D01*
X0018186Y0170030D01*
X0018282Y0170288D01*
X0018384Y0170544D01*
X0018493Y0170797D01*
X0018607Y0171047D01*
X0018728Y0171295D01*
X0018855Y0171539D01*
X0018988Y0171780D01*
X0019126Y0172018D01*
X0019271Y0172253D01*
X0019421Y0172483D01*
X0019577Y0172711D01*
X0019738Y0172934D01*
X0019905Y0173153D01*
X0020077Y0173368D01*
X0020254Y0173579D01*
X0020437Y0173785D01*
X0020624Y0173987D01*
X0020816Y0174184D01*
X0021013Y0174376D01*
X0021215Y0174563D01*
X0021421Y0174746D01*
X0021632Y0174923D01*
X0021847Y0175095D01*
X0022066Y0175262D01*
X0022289Y0175423D01*
X0022517Y0175579D01*
X0022747Y0175729D01*
X0022982Y0175874D01*
X0023220Y0176012D01*
X0023461Y0176145D01*
X0023705Y0176272D01*
X0023953Y0176393D01*
X0024203Y0176507D01*
X0024456Y0176616D01*
X0024712Y0176718D01*
X0024970Y0176814D01*
X0025230Y0176904D01*
X0025493Y0176987D01*
X0025757Y0177064D01*
X0026024Y0177134D01*
X0026292Y0177197D01*
X0026561Y0177254D01*
X0026832Y0177305D01*
X0027104Y0177349D01*
X0027377Y0177386D01*
X0027650Y0177416D01*
X0027925Y0177440D01*
X0028199Y0177456D01*
X0028475Y0177467D01*
X0028750Y0177470D01*
X0029025Y0177467D01*
X0029301Y0177456D01*
X0029575Y0177440D01*
X0029850Y0177416D01*
X0030123Y0177386D01*
X0030396Y0177349D01*
X0030668Y0177305D01*
X0030939Y0177254D01*
X0031208Y0177197D01*
X0031476Y0177134D01*
X0031743Y0177064D01*
X0032007Y0176987D01*
X0032270Y0176904D01*
X0032530Y0176814D01*
X0032788Y0176718D01*
X0033044Y0176616D01*
X0033297Y0176507D01*
X0033547Y0176393D01*
X0033795Y0176272D01*
X0034039Y0176145D01*
X0034280Y0176012D01*
X0034518Y0175874D01*
X0034753Y0175729D01*
X0034983Y0175579D01*
X0035211Y0175423D01*
X0035434Y0175262D01*
X0035653Y0175095D01*
X0035868Y0174923D01*
X0036079Y0174746D01*
X0036285Y0174563D01*
X0036487Y0174376D01*
X0036684Y0174184D01*
X0036876Y0173987D01*
X0037063Y0173785D01*
X0037246Y0173579D01*
X0037423Y0173368D01*
X0037595Y0173153D01*
X0037762Y0172934D01*
X0037923Y0172711D01*
X0038079Y0172483D01*
X0038229Y0172253D01*
X0038374Y0172018D01*
X0038512Y0171780D01*
X0038645Y0171539D01*
X0038772Y0171295D01*
X0038893Y0171047D01*
X0039007Y0170797D01*
X0039116Y0170544D01*
X0039218Y0170288D01*
X0039314Y0170030D01*
X0039404Y0169770D01*
X0039487Y0169507D01*
X0039564Y0169243D01*
X0039634Y0168976D01*
X0039697Y0168708D01*
X0039754Y0168439D01*
X0039805Y0168168D01*
X0039849Y0167896D01*
X0039886Y0167623D01*
X0039916Y0167350D01*
X0039940Y0167075D01*
X0039956Y0166801D01*
X0039967Y0166525D01*
X0039970Y0166250D01*
X0039967Y0165975D01*
X0039956Y0165699D01*
X0039940Y0165425D01*
X0039916Y0165150D01*
X0039886Y0164877D01*
X0039849Y0164604D01*
X0039805Y0164332D01*
X0039754Y0164061D01*
X0039697Y0163792D01*
X0039634Y0163524D01*
X0039564Y0163257D01*
X0039487Y0162993D01*
X0039404Y0162730D01*
X0039314Y0162470D01*
X0039218Y0162212D01*
X0039116Y0161956D01*
X0039007Y0161703D01*
X0038893Y0161453D01*
X0038772Y0161205D01*
X0038645Y0160961D01*
X0038512Y0160720D01*
X0038374Y0160482D01*
X0038229Y0160247D01*
X0038079Y0160017D01*
X0037923Y0159789D01*
X0037762Y0159566D01*
X0037595Y0159347D01*
X0037423Y0159132D01*
X0037246Y0158921D01*
X0037063Y0158715D01*
X0036876Y0158513D01*
X0036684Y0158316D01*
X0036487Y0158124D01*
X0036285Y0157937D01*
X0036079Y0157754D01*
X0035868Y0157577D01*
X0035653Y0157405D01*
X0035434Y0157238D01*
X0035211Y0157077D01*
X0034983Y0156921D01*
X0034753Y0156771D01*
X0034518Y0156626D01*
X0034280Y0156488D01*
X0034039Y0156355D01*
X0033795Y0156228D01*
X0033547Y0156107D01*
X0033297Y0155993D01*
X0033044Y0155884D01*
X0032788Y0155782D01*
X0032530Y0155686D01*
X0032270Y0155596D01*
X0032007Y0155513D01*
X0031743Y0155436D01*
X0031476Y0155366D01*
X0031208Y0155303D01*
X0030939Y0155246D01*
X0030668Y0155195D01*
X0030396Y0155151D01*
X0030123Y0155114D01*
X0029850Y0155084D01*
X0029575Y0155060D01*
X0029301Y0155044D01*
X0029025Y0155033D01*
X0028750Y0155030D01*
X0028475Y0155033D01*
X0028199Y0155044D01*
X0027925Y0155060D01*
X0027650Y0155084D01*
X0027377Y0155114D01*
X0027104Y0155151D01*
X0026832Y0155195D01*
X0026561Y0155246D01*
X0026292Y0155303D01*
X0026024Y0155366D01*
X0025757Y0155436D01*
X0025493Y0155513D01*
X0025230Y0155596D01*
X0024970Y0155686D01*
X0024712Y0155782D01*
X0024456Y0155884D01*
X0024203Y0155993D01*
X0023953Y0156107D01*
X0023705Y0156228D01*
X0023461Y0156355D01*
X0023220Y0156488D01*
X0022982Y0156626D01*
X0022747Y0156771D01*
X0022517Y0156921D01*
X0022289Y0157077D01*
X0022066Y0157238D01*
X0021847Y0157405D01*
X0021632Y0157577D01*
X0021421Y0157754D01*
X0021215Y0157937D01*
X0021013Y0158124D01*
X0020816Y0158316D01*
X0020624Y0158513D01*
X0020437Y0158715D01*
X0020254Y0158921D01*
X0020077Y0159132D01*
X0019905Y0159347D01*
X0019738Y0159566D01*
X0019577Y0159789D01*
X0019421Y0160017D01*
X0019271Y0160247D01*
X0019126Y0160482D01*
X0018988Y0160720D01*
X0018855Y0160961D01*
X0018728Y0161205D01*
X0018607Y0161453D01*
X0018493Y0161703D01*
X0018384Y0161956D01*
X0018282Y0162212D01*
X0018186Y0162470D01*
X0018096Y0162730D01*
X0018013Y0162993D01*
X0017936Y0163257D01*
X0017866Y0163524D01*
X0017803Y0163792D01*
X0017746Y0164061D01*
X0017695Y0164332D01*
X0017651Y0164604D01*
X0017614Y0164877D01*
X0017584Y0165150D01*
X0017560Y0165425D01*
X0017544Y0165699D01*
X0017533Y0165975D01*
X0017530Y0166250D01*
X0011050Y0166250D02*
X0011055Y0166684D01*
X0011071Y0167118D01*
X0011098Y0167552D01*
X0011135Y0167985D01*
X0011183Y0168417D01*
X0011242Y0168847D01*
X0011311Y0169276D01*
X0011390Y0169703D01*
X0011480Y0170128D01*
X0011580Y0170551D01*
X0011691Y0170971D01*
X0011812Y0171388D01*
X0011943Y0171802D01*
X0012085Y0172213D01*
X0012236Y0172620D01*
X0012397Y0173023D01*
X0012568Y0173423D01*
X0012749Y0173818D01*
X0012940Y0174208D01*
X0013140Y0174594D01*
X0013349Y0174974D01*
X0013568Y0175350D01*
X0013796Y0175719D01*
X0014033Y0176084D01*
X0014279Y0176442D01*
X0014533Y0176794D01*
X0014796Y0177140D01*
X0015068Y0177479D01*
X0015347Y0177811D01*
X0015635Y0178137D01*
X0015931Y0178455D01*
X0016234Y0178766D01*
X0016545Y0179069D01*
X0016863Y0179365D01*
X0017189Y0179653D01*
X0017521Y0179932D01*
X0017860Y0180204D01*
X0018206Y0180467D01*
X0018558Y0180721D01*
X0018916Y0180967D01*
X0019281Y0181204D01*
X0019650Y0181432D01*
X0020026Y0181651D01*
X0020406Y0181860D01*
X0020792Y0182060D01*
X0021182Y0182251D01*
X0021577Y0182432D01*
X0021977Y0182603D01*
X0022380Y0182764D01*
X0022787Y0182915D01*
X0023198Y0183057D01*
X0023612Y0183188D01*
X0024029Y0183309D01*
X0024449Y0183420D01*
X0024872Y0183520D01*
X0025297Y0183610D01*
X0025724Y0183689D01*
X0026153Y0183758D01*
X0026583Y0183817D01*
X0027015Y0183865D01*
X0027448Y0183902D01*
X0027882Y0183929D01*
X0028316Y0183945D01*
X0028750Y0183950D01*
X0029184Y0183945D01*
X0029618Y0183929D01*
X0030052Y0183902D01*
X0030485Y0183865D01*
X0030917Y0183817D01*
X0031347Y0183758D01*
X0031776Y0183689D01*
X0032203Y0183610D01*
X0032628Y0183520D01*
X0033051Y0183420D01*
X0033471Y0183309D01*
X0033888Y0183188D01*
X0034302Y0183057D01*
X0034713Y0182915D01*
X0035120Y0182764D01*
X0035523Y0182603D01*
X0035923Y0182432D01*
X0036318Y0182251D01*
X0036708Y0182060D01*
X0037094Y0181860D01*
X0037474Y0181651D01*
X0037850Y0181432D01*
X0038219Y0181204D01*
X0038584Y0180967D01*
X0038942Y0180721D01*
X0039294Y0180467D01*
X0039640Y0180204D01*
X0039979Y0179932D01*
X0040311Y0179653D01*
X0040637Y0179365D01*
X0040955Y0179069D01*
X0041266Y0178766D01*
X0041569Y0178455D01*
X0041865Y0178137D01*
X0042153Y0177811D01*
X0042432Y0177479D01*
X0042704Y0177140D01*
X0042967Y0176794D01*
X0043221Y0176442D01*
X0043467Y0176084D01*
X0043704Y0175719D01*
X0043932Y0175350D01*
X0044151Y0174974D01*
X0044360Y0174594D01*
X0044560Y0174208D01*
X0044751Y0173818D01*
X0044932Y0173423D01*
X0045103Y0173023D01*
X0045264Y0172620D01*
X0045415Y0172213D01*
X0045557Y0171802D01*
X0045688Y0171388D01*
X0045809Y0170971D01*
X0045920Y0170551D01*
X0046020Y0170128D01*
X0046110Y0169703D01*
X0046189Y0169276D01*
X0046258Y0168847D01*
X0046317Y0168417D01*
X0046365Y0167985D01*
X0046402Y0167552D01*
X0046429Y0167118D01*
X0046445Y0166684D01*
X0046450Y0166250D01*
X0046445Y0165816D01*
X0046429Y0165382D01*
X0046402Y0164948D01*
X0046365Y0164515D01*
X0046317Y0164083D01*
X0046258Y0163653D01*
X0046189Y0163224D01*
X0046110Y0162797D01*
X0046020Y0162372D01*
X0045920Y0161949D01*
X0045809Y0161529D01*
X0045688Y0161112D01*
X0045557Y0160698D01*
X0045415Y0160287D01*
X0045264Y0159880D01*
X0045103Y0159477D01*
X0044932Y0159077D01*
X0044751Y0158682D01*
X0044560Y0158292D01*
X0044360Y0157906D01*
X0044151Y0157526D01*
X0043932Y0157150D01*
X0043704Y0156781D01*
X0043467Y0156416D01*
X0043221Y0156058D01*
X0042967Y0155706D01*
X0042704Y0155360D01*
X0042432Y0155021D01*
X0042153Y0154689D01*
X0041865Y0154363D01*
X0041569Y0154045D01*
X0041266Y0153734D01*
X0040955Y0153431D01*
X0040637Y0153135D01*
X0040311Y0152847D01*
X0039979Y0152568D01*
X0039640Y0152296D01*
X0039294Y0152033D01*
X0038942Y0151779D01*
X0038584Y0151533D01*
X0038219Y0151296D01*
X0037850Y0151068D01*
X0037474Y0150849D01*
X0037094Y0150640D01*
X0036708Y0150440D01*
X0036318Y0150249D01*
X0035923Y0150068D01*
X0035523Y0149897D01*
X0035120Y0149736D01*
X0034713Y0149585D01*
X0034302Y0149443D01*
X0033888Y0149312D01*
X0033471Y0149191D01*
X0033051Y0149080D01*
X0032628Y0148980D01*
X0032203Y0148890D01*
X0031776Y0148811D01*
X0031347Y0148742D01*
X0030917Y0148683D01*
X0030485Y0148635D01*
X0030052Y0148598D01*
X0029618Y0148571D01*
X0029184Y0148555D01*
X0028750Y0148550D01*
X0028316Y0148555D01*
X0027882Y0148571D01*
X0027448Y0148598D01*
X0027015Y0148635D01*
X0026583Y0148683D01*
X0026153Y0148742D01*
X0025724Y0148811D01*
X0025297Y0148890D01*
X0024872Y0148980D01*
X0024449Y0149080D01*
X0024029Y0149191D01*
X0023612Y0149312D01*
X0023198Y0149443D01*
X0022787Y0149585D01*
X0022380Y0149736D01*
X0021977Y0149897D01*
X0021577Y0150068D01*
X0021182Y0150249D01*
X0020792Y0150440D01*
X0020406Y0150640D01*
X0020026Y0150849D01*
X0019650Y0151068D01*
X0019281Y0151296D01*
X0018916Y0151533D01*
X0018558Y0151779D01*
X0018206Y0152033D01*
X0017860Y0152296D01*
X0017521Y0152568D01*
X0017189Y0152847D01*
X0016863Y0153135D01*
X0016545Y0153431D01*
X0016234Y0153734D01*
X0015931Y0154045D01*
X0015635Y0154363D01*
X0015347Y0154689D01*
X0015068Y0155021D01*
X0014796Y0155360D01*
X0014533Y0155706D01*
X0014279Y0156058D01*
X0014033Y0156416D01*
X0013796Y0156781D01*
X0013568Y0157150D01*
X0013349Y0157526D01*
X0013140Y0157906D01*
X0012940Y0158292D01*
X0012749Y0158682D01*
X0012568Y0159077D01*
X0012397Y0159477D01*
X0012236Y0159880D01*
X0012085Y0160287D01*
X0011943Y0160698D01*
X0011812Y0161112D01*
X0011691Y0161529D01*
X0011580Y0161949D01*
X0011480Y0162372D01*
X0011390Y0162797D01*
X0011311Y0163224D01*
X0011242Y0163653D01*
X0011183Y0164083D01*
X0011135Y0164515D01*
X0011098Y0164948D01*
X0011071Y0165382D01*
X0011055Y0165816D01*
X0011050Y0166250D01*
X0060450Y0120250D02*
X0060450Y0117250D01*
X0071850Y0117250D01*
X0071850Y0120250D01*
X0060450Y0120250D01*
X0104750Y0119350D02*
X0104750Y0107950D01*
X0107750Y0107950D01*
X0107750Y0119350D01*
X0104750Y0119350D01*
X0169750Y0123150D02*
X0172750Y0123150D01*
X0172750Y0134550D01*
X0169750Y0134550D01*
X0169750Y0123150D01*
X0184750Y0109550D02*
X0187750Y0109550D01*
X0187750Y0098150D01*
X0184750Y0098150D01*
X0184750Y0109550D01*
X0162530Y0028750D02*
X0162533Y0029025D01*
X0162544Y0029301D01*
X0162560Y0029575D01*
X0162584Y0029850D01*
X0162614Y0030123D01*
X0162651Y0030396D01*
X0162695Y0030668D01*
X0162746Y0030939D01*
X0162803Y0031208D01*
X0162866Y0031476D01*
X0162936Y0031743D01*
X0163013Y0032007D01*
X0163096Y0032270D01*
X0163186Y0032530D01*
X0163282Y0032788D01*
X0163384Y0033044D01*
X0163493Y0033297D01*
X0163607Y0033547D01*
X0163728Y0033795D01*
X0163855Y0034039D01*
X0163988Y0034280D01*
X0164126Y0034518D01*
X0164271Y0034753D01*
X0164421Y0034983D01*
X0164577Y0035211D01*
X0164738Y0035434D01*
X0164905Y0035653D01*
X0165077Y0035868D01*
X0165254Y0036079D01*
X0165437Y0036285D01*
X0165624Y0036487D01*
X0165816Y0036684D01*
X0166013Y0036876D01*
X0166215Y0037063D01*
X0166421Y0037246D01*
X0166632Y0037423D01*
X0166847Y0037595D01*
X0167066Y0037762D01*
X0167289Y0037923D01*
X0167517Y0038079D01*
X0167747Y0038229D01*
X0167982Y0038374D01*
X0168220Y0038512D01*
X0168461Y0038645D01*
X0168705Y0038772D01*
X0168953Y0038893D01*
X0169203Y0039007D01*
X0169456Y0039116D01*
X0169712Y0039218D01*
X0169970Y0039314D01*
X0170230Y0039404D01*
X0170493Y0039487D01*
X0170757Y0039564D01*
X0171024Y0039634D01*
X0171292Y0039697D01*
X0171561Y0039754D01*
X0171832Y0039805D01*
X0172104Y0039849D01*
X0172377Y0039886D01*
X0172650Y0039916D01*
X0172925Y0039940D01*
X0173199Y0039956D01*
X0173475Y0039967D01*
X0173750Y0039970D01*
X0174025Y0039967D01*
X0174301Y0039956D01*
X0174575Y0039940D01*
X0174850Y0039916D01*
X0175123Y0039886D01*
X0175396Y0039849D01*
X0175668Y0039805D01*
X0175939Y0039754D01*
X0176208Y0039697D01*
X0176476Y0039634D01*
X0176743Y0039564D01*
X0177007Y0039487D01*
X0177270Y0039404D01*
X0177530Y0039314D01*
X0177788Y0039218D01*
X0178044Y0039116D01*
X0178297Y0039007D01*
X0178547Y0038893D01*
X0178795Y0038772D01*
X0179039Y0038645D01*
X0179280Y0038512D01*
X0179518Y0038374D01*
X0179753Y0038229D01*
X0179983Y0038079D01*
X0180211Y0037923D01*
X0180434Y0037762D01*
X0180653Y0037595D01*
X0180868Y0037423D01*
X0181079Y0037246D01*
X0181285Y0037063D01*
X0181487Y0036876D01*
X0181684Y0036684D01*
X0181876Y0036487D01*
X0182063Y0036285D01*
X0182246Y0036079D01*
X0182423Y0035868D01*
X0182595Y0035653D01*
X0182762Y0035434D01*
X0182923Y0035211D01*
X0183079Y0034983D01*
X0183229Y0034753D01*
X0183374Y0034518D01*
X0183512Y0034280D01*
X0183645Y0034039D01*
X0183772Y0033795D01*
X0183893Y0033547D01*
X0184007Y0033297D01*
X0184116Y0033044D01*
X0184218Y0032788D01*
X0184314Y0032530D01*
X0184404Y0032270D01*
X0184487Y0032007D01*
X0184564Y0031743D01*
X0184634Y0031476D01*
X0184697Y0031208D01*
X0184754Y0030939D01*
X0184805Y0030668D01*
X0184849Y0030396D01*
X0184886Y0030123D01*
X0184916Y0029850D01*
X0184940Y0029575D01*
X0184956Y0029301D01*
X0184967Y0029025D01*
X0184970Y0028750D01*
X0184967Y0028475D01*
X0184956Y0028199D01*
X0184940Y0027925D01*
X0184916Y0027650D01*
X0184886Y0027377D01*
X0184849Y0027104D01*
X0184805Y0026832D01*
X0184754Y0026561D01*
X0184697Y0026292D01*
X0184634Y0026024D01*
X0184564Y0025757D01*
X0184487Y0025493D01*
X0184404Y0025230D01*
X0184314Y0024970D01*
X0184218Y0024712D01*
X0184116Y0024456D01*
X0184007Y0024203D01*
X0183893Y0023953D01*
X0183772Y0023705D01*
X0183645Y0023461D01*
X0183512Y0023220D01*
X0183374Y0022982D01*
X0183229Y0022747D01*
X0183079Y0022517D01*
X0182923Y0022289D01*
X0182762Y0022066D01*
X0182595Y0021847D01*
X0182423Y0021632D01*
X0182246Y0021421D01*
X0182063Y0021215D01*
X0181876Y0021013D01*
X0181684Y0020816D01*
X0181487Y0020624D01*
X0181285Y0020437D01*
X0181079Y0020254D01*
X0180868Y0020077D01*
X0180653Y0019905D01*
X0180434Y0019738D01*
X0180211Y0019577D01*
X0179983Y0019421D01*
X0179753Y0019271D01*
X0179518Y0019126D01*
X0179280Y0018988D01*
X0179039Y0018855D01*
X0178795Y0018728D01*
X0178547Y0018607D01*
X0178297Y0018493D01*
X0178044Y0018384D01*
X0177788Y0018282D01*
X0177530Y0018186D01*
X0177270Y0018096D01*
X0177007Y0018013D01*
X0176743Y0017936D01*
X0176476Y0017866D01*
X0176208Y0017803D01*
X0175939Y0017746D01*
X0175668Y0017695D01*
X0175396Y0017651D01*
X0175123Y0017614D01*
X0174850Y0017584D01*
X0174575Y0017560D01*
X0174301Y0017544D01*
X0174025Y0017533D01*
X0173750Y0017530D01*
X0173475Y0017533D01*
X0173199Y0017544D01*
X0172925Y0017560D01*
X0172650Y0017584D01*
X0172377Y0017614D01*
X0172104Y0017651D01*
X0171832Y0017695D01*
X0171561Y0017746D01*
X0171292Y0017803D01*
X0171024Y0017866D01*
X0170757Y0017936D01*
X0170493Y0018013D01*
X0170230Y0018096D01*
X0169970Y0018186D01*
X0169712Y0018282D01*
X0169456Y0018384D01*
X0169203Y0018493D01*
X0168953Y0018607D01*
X0168705Y0018728D01*
X0168461Y0018855D01*
X0168220Y0018988D01*
X0167982Y0019126D01*
X0167747Y0019271D01*
X0167517Y0019421D01*
X0167289Y0019577D01*
X0167066Y0019738D01*
X0166847Y0019905D01*
X0166632Y0020077D01*
X0166421Y0020254D01*
X0166215Y0020437D01*
X0166013Y0020624D01*
X0165816Y0020816D01*
X0165624Y0021013D01*
X0165437Y0021215D01*
X0165254Y0021421D01*
X0165077Y0021632D01*
X0164905Y0021847D01*
X0164738Y0022066D01*
X0164577Y0022289D01*
X0164421Y0022517D01*
X0164271Y0022747D01*
X0164126Y0022982D01*
X0163988Y0023220D01*
X0163855Y0023461D01*
X0163728Y0023705D01*
X0163607Y0023953D01*
X0163493Y0024203D01*
X0163384Y0024456D01*
X0163282Y0024712D01*
X0163186Y0024970D01*
X0163096Y0025230D01*
X0163013Y0025493D01*
X0162936Y0025757D01*
X0162866Y0026024D01*
X0162803Y0026292D01*
X0162746Y0026561D01*
X0162695Y0026832D01*
X0162651Y0027104D01*
X0162614Y0027377D01*
X0162584Y0027650D01*
X0162560Y0027925D01*
X0162544Y0028199D01*
X0162533Y0028475D01*
X0162530Y0028750D01*
X0156050Y0028750D02*
X0156055Y0029184D01*
X0156071Y0029618D01*
X0156098Y0030052D01*
X0156135Y0030485D01*
X0156183Y0030917D01*
X0156242Y0031347D01*
X0156311Y0031776D01*
X0156390Y0032203D01*
X0156480Y0032628D01*
X0156580Y0033051D01*
X0156691Y0033471D01*
X0156812Y0033888D01*
X0156943Y0034302D01*
X0157085Y0034713D01*
X0157236Y0035120D01*
X0157397Y0035523D01*
X0157568Y0035923D01*
X0157749Y0036318D01*
X0157940Y0036708D01*
X0158140Y0037094D01*
X0158349Y0037474D01*
X0158568Y0037850D01*
X0158796Y0038219D01*
X0159033Y0038584D01*
X0159279Y0038942D01*
X0159533Y0039294D01*
X0159796Y0039640D01*
X0160068Y0039979D01*
X0160347Y0040311D01*
X0160635Y0040637D01*
X0160931Y0040955D01*
X0161234Y0041266D01*
X0161545Y0041569D01*
X0161863Y0041865D01*
X0162189Y0042153D01*
X0162521Y0042432D01*
X0162860Y0042704D01*
X0163206Y0042967D01*
X0163558Y0043221D01*
X0163916Y0043467D01*
X0164281Y0043704D01*
X0164650Y0043932D01*
X0165026Y0044151D01*
X0165406Y0044360D01*
X0165792Y0044560D01*
X0166182Y0044751D01*
X0166577Y0044932D01*
X0166977Y0045103D01*
X0167380Y0045264D01*
X0167787Y0045415D01*
X0168198Y0045557D01*
X0168612Y0045688D01*
X0169029Y0045809D01*
X0169449Y0045920D01*
X0169872Y0046020D01*
X0170297Y0046110D01*
X0170724Y0046189D01*
X0171153Y0046258D01*
X0171583Y0046317D01*
X0172015Y0046365D01*
X0172448Y0046402D01*
X0172882Y0046429D01*
X0173316Y0046445D01*
X0173750Y0046450D01*
X0174184Y0046445D01*
X0174618Y0046429D01*
X0175052Y0046402D01*
X0175485Y0046365D01*
X0175917Y0046317D01*
X0176347Y0046258D01*
X0176776Y0046189D01*
X0177203Y0046110D01*
X0177628Y0046020D01*
X0178051Y0045920D01*
X0178471Y0045809D01*
X0178888Y0045688D01*
X0179302Y0045557D01*
X0179713Y0045415D01*
X0180120Y0045264D01*
X0180523Y0045103D01*
X0180923Y0044932D01*
X0181318Y0044751D01*
X0181708Y0044560D01*
X0182094Y0044360D01*
X0182474Y0044151D01*
X0182850Y0043932D01*
X0183219Y0043704D01*
X0183584Y0043467D01*
X0183942Y0043221D01*
X0184294Y0042967D01*
X0184640Y0042704D01*
X0184979Y0042432D01*
X0185311Y0042153D01*
X0185637Y0041865D01*
X0185955Y0041569D01*
X0186266Y0041266D01*
X0186569Y0040955D01*
X0186865Y0040637D01*
X0187153Y0040311D01*
X0187432Y0039979D01*
X0187704Y0039640D01*
X0187967Y0039294D01*
X0188221Y0038942D01*
X0188467Y0038584D01*
X0188704Y0038219D01*
X0188932Y0037850D01*
X0189151Y0037474D01*
X0189360Y0037094D01*
X0189560Y0036708D01*
X0189751Y0036318D01*
X0189932Y0035923D01*
X0190103Y0035523D01*
X0190264Y0035120D01*
X0190415Y0034713D01*
X0190557Y0034302D01*
X0190688Y0033888D01*
X0190809Y0033471D01*
X0190920Y0033051D01*
X0191020Y0032628D01*
X0191110Y0032203D01*
X0191189Y0031776D01*
X0191258Y0031347D01*
X0191317Y0030917D01*
X0191365Y0030485D01*
X0191402Y0030052D01*
X0191429Y0029618D01*
X0191445Y0029184D01*
X0191450Y0028750D01*
X0191445Y0028316D01*
X0191429Y0027882D01*
X0191402Y0027448D01*
X0191365Y0027015D01*
X0191317Y0026583D01*
X0191258Y0026153D01*
X0191189Y0025724D01*
X0191110Y0025297D01*
X0191020Y0024872D01*
X0190920Y0024449D01*
X0190809Y0024029D01*
X0190688Y0023612D01*
X0190557Y0023198D01*
X0190415Y0022787D01*
X0190264Y0022380D01*
X0190103Y0021977D01*
X0189932Y0021577D01*
X0189751Y0021182D01*
X0189560Y0020792D01*
X0189360Y0020406D01*
X0189151Y0020026D01*
X0188932Y0019650D01*
X0188704Y0019281D01*
X0188467Y0018916D01*
X0188221Y0018558D01*
X0187967Y0018206D01*
X0187704Y0017860D01*
X0187432Y0017521D01*
X0187153Y0017189D01*
X0186865Y0016863D01*
X0186569Y0016545D01*
X0186266Y0016234D01*
X0185955Y0015931D01*
X0185637Y0015635D01*
X0185311Y0015347D01*
X0184979Y0015068D01*
X0184640Y0014796D01*
X0184294Y0014533D01*
X0183942Y0014279D01*
X0183584Y0014033D01*
X0183219Y0013796D01*
X0182850Y0013568D01*
X0182474Y0013349D01*
X0182094Y0013140D01*
X0181708Y0012940D01*
X0181318Y0012749D01*
X0180923Y0012568D01*
X0180523Y0012397D01*
X0180120Y0012236D01*
X0179713Y0012085D01*
X0179302Y0011943D01*
X0178888Y0011812D01*
X0178471Y0011691D01*
X0178051Y0011580D01*
X0177628Y0011480D01*
X0177203Y0011390D01*
X0176776Y0011311D01*
X0176347Y0011242D01*
X0175917Y0011183D01*
X0175485Y0011135D01*
X0175052Y0011098D01*
X0174618Y0011071D01*
X0174184Y0011055D01*
X0173750Y0011050D01*
X0173316Y0011055D01*
X0172882Y0011071D01*
X0172448Y0011098D01*
X0172015Y0011135D01*
X0171583Y0011183D01*
X0171153Y0011242D01*
X0170724Y0011311D01*
X0170297Y0011390D01*
X0169872Y0011480D01*
X0169449Y0011580D01*
X0169029Y0011691D01*
X0168612Y0011812D01*
X0168198Y0011943D01*
X0167787Y0012085D01*
X0167380Y0012236D01*
X0166977Y0012397D01*
X0166577Y0012568D01*
X0166182Y0012749D01*
X0165792Y0012940D01*
X0165406Y0013140D01*
X0165026Y0013349D01*
X0164650Y0013568D01*
X0164281Y0013796D01*
X0163916Y0014033D01*
X0163558Y0014279D01*
X0163206Y0014533D01*
X0162860Y0014796D01*
X0162521Y0015068D01*
X0162189Y0015347D01*
X0161863Y0015635D01*
X0161545Y0015931D01*
X0161234Y0016234D01*
X0160931Y0016545D01*
X0160635Y0016863D01*
X0160347Y0017189D01*
X0160068Y0017521D01*
X0159796Y0017860D01*
X0159533Y0018206D01*
X0159279Y0018558D01*
X0159033Y0018916D01*
X0158796Y0019281D01*
X0158568Y0019650D01*
X0158349Y0020026D01*
X0158140Y0020406D01*
X0157940Y0020792D01*
X0157749Y0021182D01*
X0157568Y0021577D01*
X0157397Y0021977D01*
X0157236Y0022380D01*
X0157085Y0022787D01*
X0156943Y0023198D01*
X0156812Y0023612D01*
X0156691Y0024029D01*
X0156580Y0024449D01*
X0156480Y0024872D01*
X0156390Y0025297D01*
X0156311Y0025724D01*
X0156242Y0026153D01*
X0156183Y0026583D01*
X0156135Y0027015D01*
X0156098Y0027448D01*
X0156071Y0027882D01*
X0156055Y0028316D01*
X0156050Y0028750D01*
D18*
X0133612Y0024419D02*
X0128888Y0024419D01*
X0128888Y0033081D02*
X0133612Y0033081D01*
X0100817Y0013514D02*
X0075325Y0013514D01*
X0071683Y0013514D01*
X0075325Y0013514D02*
X0075325Y0053986D01*
X0100817Y0053986D01*
X0075325Y0053986D02*
X0071683Y0053986D01*
D19*
X0130266Y0031309D03*
D20*
X0125550Y0031512D02*
X0125550Y0030544D01*
X0125066Y0030060D01*
X0124099Y0031028D02*
X0124099Y0031512D01*
X0124583Y0031995D01*
X0125066Y0031995D01*
X0125550Y0031512D01*
X0124099Y0031512D02*
X0123615Y0031995D01*
X0123131Y0031995D01*
X0122648Y0031512D01*
X0122648Y0030544D01*
X0123131Y0030060D01*
X0123131Y0029049D02*
X0125066Y0027114D01*
X0125550Y0027114D01*
X0125066Y0026102D02*
X0125550Y0025619D01*
X0125550Y0024651D01*
X0125066Y0024167D01*
X0123131Y0024167D01*
X0122648Y0024651D01*
X0122648Y0025619D01*
X0123131Y0026102D01*
X0122648Y0027114D02*
X0122648Y0029049D01*
X0123131Y0029049D01*
X0123615Y0033007D02*
X0122648Y0033974D01*
X0125550Y0033974D01*
X0125550Y0033007D02*
X0125550Y0034942D01*
X0125550Y0035953D02*
X0125550Y0037888D01*
X0125550Y0036921D02*
X0122648Y0036921D01*
X0123615Y0035953D01*
X0123615Y0023156D02*
X0125550Y0023156D01*
X0124099Y0023156D02*
X0124099Y0021221D01*
X0123615Y0021221D02*
X0122648Y0022188D01*
X0123615Y0023156D01*
X0123615Y0021221D02*
X0125550Y0021221D01*
X0125066Y0020209D02*
X0123131Y0020209D01*
X0122648Y0019726D01*
X0122648Y0018274D01*
X0125550Y0018274D01*
X0125550Y0019726D01*
X0125066Y0020209D01*
D21*
X0156250Y0028750D02*
X0165250Y0028750D01*
X0173750Y0020250D02*
X0173750Y0011250D01*
X0182250Y0028750D02*
X0191250Y0028750D01*
X0173750Y0037250D02*
X0173750Y0046250D01*
X0046250Y0166250D02*
X0037250Y0166250D01*
X0028750Y0157750D02*
X0028750Y0148750D01*
X0020250Y0166250D02*
X0011250Y0166250D01*
X0028750Y0174750D02*
X0028750Y0183750D01*
M02*
