%
M48
M72
T01C0.01969
T02C0.05200
T03C0.21654
%
T01
X63450Y151250
X65950Y133750
X73450Y126250
X83450Y111250
X78450Y96250
X58450Y116250
X100950Y141250
X93450Y161250
X133450Y156250
X143450Y151250
X143450Y116250
X138450Y98750
X148450Y73750
X138450Y58750
X125950Y63750
X118450Y46250
X138450Y38750
X140950Y23750
X118450Y21250
X68450Y13750
X53450Y43750
X53450Y61250
X110950Y93750
X173450Y61250
X185950Y93750
T02
X18450Y11250
X18450Y21250
X18450Y31250
X18450Y41250
X18450Y51250
X18450Y118750
X18450Y128750
X18450Y138750
X183450Y176250
X183450Y186250
T03
X28450Y171250
X178450Y31250
M30
