G75*
%MOIN*%
%OFA0B0*%
%FSLAX25Y25*%
%IPPOS*%
%LPD*%
%AMOC8*
5,1,8,0,0,1.08239X$1,22.5*
%
%ADD10C,0.00000*%
%ADD11R,0.04337X0.04731*%
%ADD12R,0.04731X0.04337*%
%ADD13R,0.09061X0.02762*%
%ADD14R,0.04337X0.03156*%
%ADD15R,0.03550X0.03550*%
%ADD16R,0.06306X0.06306*%
%ADD17R,0.12998X0.07487*%
%ADD18R,0.07487X0.12998*%
%ADD19R,0.03500X0.03900*%
%ADD20R,0.03900X0.03500*%
%ADD21C,0.08200*%
%ADD22R,0.02762X0.01975*%
%ADD23C,0.22054*%
D10*
X0001250Y0001250D02*
X0001250Y0193711D01*
X0202451Y0193711D01*
X0202451Y0001250D01*
X0001250Y0001250D01*
X0017923Y0166250D02*
X0017926Y0166516D01*
X0017936Y0166781D01*
X0017952Y0167046D01*
X0017975Y0167311D01*
X0018004Y0167575D01*
X0018040Y0167839D01*
X0018082Y0168101D01*
X0018131Y0168362D01*
X0018186Y0168622D01*
X0018247Y0168881D01*
X0018315Y0169138D01*
X0018389Y0169393D01*
X0018469Y0169646D01*
X0018556Y0169898D01*
X0018648Y0170147D01*
X0018747Y0170393D01*
X0018852Y0170638D01*
X0018963Y0170879D01*
X0019079Y0171118D01*
X0019201Y0171354D01*
X0019330Y0171587D01*
X0019463Y0171816D01*
X0019603Y0172042D01*
X0019748Y0172265D01*
X0019898Y0172484D01*
X0020054Y0172700D01*
X0020215Y0172911D01*
X0020381Y0173119D01*
X0020552Y0173322D01*
X0020728Y0173521D01*
X0020909Y0173716D01*
X0021094Y0173906D01*
X0021284Y0174091D01*
X0021479Y0174272D01*
X0021678Y0174448D01*
X0021881Y0174619D01*
X0022089Y0174785D01*
X0022300Y0174946D01*
X0022516Y0175102D01*
X0022735Y0175252D01*
X0022958Y0175397D01*
X0023184Y0175537D01*
X0023413Y0175670D01*
X0023646Y0175799D01*
X0023882Y0175921D01*
X0024121Y0176037D01*
X0024362Y0176148D01*
X0024607Y0176253D01*
X0024853Y0176352D01*
X0025102Y0176444D01*
X0025354Y0176531D01*
X0025607Y0176611D01*
X0025862Y0176685D01*
X0026119Y0176753D01*
X0026378Y0176814D01*
X0026638Y0176869D01*
X0026899Y0176918D01*
X0027161Y0176960D01*
X0027425Y0176996D01*
X0027689Y0177025D01*
X0027954Y0177048D01*
X0028219Y0177064D01*
X0028484Y0177074D01*
X0028750Y0177077D01*
X0029016Y0177074D01*
X0029281Y0177064D01*
X0029546Y0177048D01*
X0029811Y0177025D01*
X0030075Y0176996D01*
X0030339Y0176960D01*
X0030601Y0176918D01*
X0030862Y0176869D01*
X0031122Y0176814D01*
X0031381Y0176753D01*
X0031638Y0176685D01*
X0031893Y0176611D01*
X0032146Y0176531D01*
X0032398Y0176444D01*
X0032647Y0176352D01*
X0032893Y0176253D01*
X0033138Y0176148D01*
X0033379Y0176037D01*
X0033618Y0175921D01*
X0033854Y0175799D01*
X0034087Y0175670D01*
X0034316Y0175537D01*
X0034542Y0175397D01*
X0034765Y0175252D01*
X0034984Y0175102D01*
X0035200Y0174946D01*
X0035411Y0174785D01*
X0035619Y0174619D01*
X0035822Y0174448D01*
X0036021Y0174272D01*
X0036216Y0174091D01*
X0036406Y0173906D01*
X0036591Y0173716D01*
X0036772Y0173521D01*
X0036948Y0173322D01*
X0037119Y0173119D01*
X0037285Y0172911D01*
X0037446Y0172700D01*
X0037602Y0172484D01*
X0037752Y0172265D01*
X0037897Y0172042D01*
X0038037Y0171816D01*
X0038170Y0171587D01*
X0038299Y0171354D01*
X0038421Y0171118D01*
X0038537Y0170879D01*
X0038648Y0170638D01*
X0038753Y0170393D01*
X0038852Y0170147D01*
X0038944Y0169898D01*
X0039031Y0169646D01*
X0039111Y0169393D01*
X0039185Y0169138D01*
X0039253Y0168881D01*
X0039314Y0168622D01*
X0039369Y0168362D01*
X0039418Y0168101D01*
X0039460Y0167839D01*
X0039496Y0167575D01*
X0039525Y0167311D01*
X0039548Y0167046D01*
X0039564Y0166781D01*
X0039574Y0166516D01*
X0039577Y0166250D01*
X0039574Y0165984D01*
X0039564Y0165719D01*
X0039548Y0165454D01*
X0039525Y0165189D01*
X0039496Y0164925D01*
X0039460Y0164661D01*
X0039418Y0164399D01*
X0039369Y0164138D01*
X0039314Y0163878D01*
X0039253Y0163619D01*
X0039185Y0163362D01*
X0039111Y0163107D01*
X0039031Y0162854D01*
X0038944Y0162602D01*
X0038852Y0162353D01*
X0038753Y0162107D01*
X0038648Y0161862D01*
X0038537Y0161621D01*
X0038421Y0161382D01*
X0038299Y0161146D01*
X0038170Y0160913D01*
X0038037Y0160684D01*
X0037897Y0160458D01*
X0037752Y0160235D01*
X0037602Y0160016D01*
X0037446Y0159800D01*
X0037285Y0159589D01*
X0037119Y0159381D01*
X0036948Y0159178D01*
X0036772Y0158979D01*
X0036591Y0158784D01*
X0036406Y0158594D01*
X0036216Y0158409D01*
X0036021Y0158228D01*
X0035822Y0158052D01*
X0035619Y0157881D01*
X0035411Y0157715D01*
X0035200Y0157554D01*
X0034984Y0157398D01*
X0034765Y0157248D01*
X0034542Y0157103D01*
X0034316Y0156963D01*
X0034087Y0156830D01*
X0033854Y0156701D01*
X0033618Y0156579D01*
X0033379Y0156463D01*
X0033138Y0156352D01*
X0032893Y0156247D01*
X0032647Y0156148D01*
X0032398Y0156056D01*
X0032146Y0155969D01*
X0031893Y0155889D01*
X0031638Y0155815D01*
X0031381Y0155747D01*
X0031122Y0155686D01*
X0030862Y0155631D01*
X0030601Y0155582D01*
X0030339Y0155540D01*
X0030075Y0155504D01*
X0029811Y0155475D01*
X0029546Y0155452D01*
X0029281Y0155436D01*
X0029016Y0155426D01*
X0028750Y0155423D01*
X0028484Y0155426D01*
X0028219Y0155436D01*
X0027954Y0155452D01*
X0027689Y0155475D01*
X0027425Y0155504D01*
X0027161Y0155540D01*
X0026899Y0155582D01*
X0026638Y0155631D01*
X0026378Y0155686D01*
X0026119Y0155747D01*
X0025862Y0155815D01*
X0025607Y0155889D01*
X0025354Y0155969D01*
X0025102Y0156056D01*
X0024853Y0156148D01*
X0024607Y0156247D01*
X0024362Y0156352D01*
X0024121Y0156463D01*
X0023882Y0156579D01*
X0023646Y0156701D01*
X0023413Y0156830D01*
X0023184Y0156963D01*
X0022958Y0157103D01*
X0022735Y0157248D01*
X0022516Y0157398D01*
X0022300Y0157554D01*
X0022089Y0157715D01*
X0021881Y0157881D01*
X0021678Y0158052D01*
X0021479Y0158228D01*
X0021284Y0158409D01*
X0021094Y0158594D01*
X0020909Y0158784D01*
X0020728Y0158979D01*
X0020552Y0159178D01*
X0020381Y0159381D01*
X0020215Y0159589D01*
X0020054Y0159800D01*
X0019898Y0160016D01*
X0019748Y0160235D01*
X0019603Y0160458D01*
X0019463Y0160684D01*
X0019330Y0160913D01*
X0019201Y0161146D01*
X0019079Y0161382D01*
X0018963Y0161621D01*
X0018852Y0161862D01*
X0018747Y0162107D01*
X0018648Y0162353D01*
X0018556Y0162602D01*
X0018469Y0162854D01*
X0018389Y0163107D01*
X0018315Y0163362D01*
X0018247Y0163619D01*
X0018186Y0163878D01*
X0018131Y0164138D01*
X0018082Y0164399D01*
X0018040Y0164661D01*
X0018004Y0164925D01*
X0017975Y0165189D01*
X0017952Y0165454D01*
X0017936Y0165719D01*
X0017926Y0165984D01*
X0017923Y0166250D01*
X0162923Y0028750D02*
X0162926Y0029016D01*
X0162936Y0029281D01*
X0162952Y0029546D01*
X0162975Y0029811D01*
X0163004Y0030075D01*
X0163040Y0030339D01*
X0163082Y0030601D01*
X0163131Y0030862D01*
X0163186Y0031122D01*
X0163247Y0031381D01*
X0163315Y0031638D01*
X0163389Y0031893D01*
X0163469Y0032146D01*
X0163556Y0032398D01*
X0163648Y0032647D01*
X0163747Y0032893D01*
X0163852Y0033138D01*
X0163963Y0033379D01*
X0164079Y0033618D01*
X0164201Y0033854D01*
X0164330Y0034087D01*
X0164463Y0034316D01*
X0164603Y0034542D01*
X0164748Y0034765D01*
X0164898Y0034984D01*
X0165054Y0035200D01*
X0165215Y0035411D01*
X0165381Y0035619D01*
X0165552Y0035822D01*
X0165728Y0036021D01*
X0165909Y0036216D01*
X0166094Y0036406D01*
X0166284Y0036591D01*
X0166479Y0036772D01*
X0166678Y0036948D01*
X0166881Y0037119D01*
X0167089Y0037285D01*
X0167300Y0037446D01*
X0167516Y0037602D01*
X0167735Y0037752D01*
X0167958Y0037897D01*
X0168184Y0038037D01*
X0168413Y0038170D01*
X0168646Y0038299D01*
X0168882Y0038421D01*
X0169121Y0038537D01*
X0169362Y0038648D01*
X0169607Y0038753D01*
X0169853Y0038852D01*
X0170102Y0038944D01*
X0170354Y0039031D01*
X0170607Y0039111D01*
X0170862Y0039185D01*
X0171119Y0039253D01*
X0171378Y0039314D01*
X0171638Y0039369D01*
X0171899Y0039418D01*
X0172161Y0039460D01*
X0172425Y0039496D01*
X0172689Y0039525D01*
X0172954Y0039548D01*
X0173219Y0039564D01*
X0173484Y0039574D01*
X0173750Y0039577D01*
X0174016Y0039574D01*
X0174281Y0039564D01*
X0174546Y0039548D01*
X0174811Y0039525D01*
X0175075Y0039496D01*
X0175339Y0039460D01*
X0175601Y0039418D01*
X0175862Y0039369D01*
X0176122Y0039314D01*
X0176381Y0039253D01*
X0176638Y0039185D01*
X0176893Y0039111D01*
X0177146Y0039031D01*
X0177398Y0038944D01*
X0177647Y0038852D01*
X0177893Y0038753D01*
X0178138Y0038648D01*
X0178379Y0038537D01*
X0178618Y0038421D01*
X0178854Y0038299D01*
X0179087Y0038170D01*
X0179316Y0038037D01*
X0179542Y0037897D01*
X0179765Y0037752D01*
X0179984Y0037602D01*
X0180200Y0037446D01*
X0180411Y0037285D01*
X0180619Y0037119D01*
X0180822Y0036948D01*
X0181021Y0036772D01*
X0181216Y0036591D01*
X0181406Y0036406D01*
X0181591Y0036216D01*
X0181772Y0036021D01*
X0181948Y0035822D01*
X0182119Y0035619D01*
X0182285Y0035411D01*
X0182446Y0035200D01*
X0182602Y0034984D01*
X0182752Y0034765D01*
X0182897Y0034542D01*
X0183037Y0034316D01*
X0183170Y0034087D01*
X0183299Y0033854D01*
X0183421Y0033618D01*
X0183537Y0033379D01*
X0183648Y0033138D01*
X0183753Y0032893D01*
X0183852Y0032647D01*
X0183944Y0032398D01*
X0184031Y0032146D01*
X0184111Y0031893D01*
X0184185Y0031638D01*
X0184253Y0031381D01*
X0184314Y0031122D01*
X0184369Y0030862D01*
X0184418Y0030601D01*
X0184460Y0030339D01*
X0184496Y0030075D01*
X0184525Y0029811D01*
X0184548Y0029546D01*
X0184564Y0029281D01*
X0184574Y0029016D01*
X0184577Y0028750D01*
X0184574Y0028484D01*
X0184564Y0028219D01*
X0184548Y0027954D01*
X0184525Y0027689D01*
X0184496Y0027425D01*
X0184460Y0027161D01*
X0184418Y0026899D01*
X0184369Y0026638D01*
X0184314Y0026378D01*
X0184253Y0026119D01*
X0184185Y0025862D01*
X0184111Y0025607D01*
X0184031Y0025354D01*
X0183944Y0025102D01*
X0183852Y0024853D01*
X0183753Y0024607D01*
X0183648Y0024362D01*
X0183537Y0024121D01*
X0183421Y0023882D01*
X0183299Y0023646D01*
X0183170Y0023413D01*
X0183037Y0023184D01*
X0182897Y0022958D01*
X0182752Y0022735D01*
X0182602Y0022516D01*
X0182446Y0022300D01*
X0182285Y0022089D01*
X0182119Y0021881D01*
X0181948Y0021678D01*
X0181772Y0021479D01*
X0181591Y0021284D01*
X0181406Y0021094D01*
X0181216Y0020909D01*
X0181021Y0020728D01*
X0180822Y0020552D01*
X0180619Y0020381D01*
X0180411Y0020215D01*
X0180200Y0020054D01*
X0179984Y0019898D01*
X0179765Y0019748D01*
X0179542Y0019603D01*
X0179316Y0019463D01*
X0179087Y0019330D01*
X0178854Y0019201D01*
X0178618Y0019079D01*
X0178379Y0018963D01*
X0178138Y0018852D01*
X0177893Y0018747D01*
X0177647Y0018648D01*
X0177398Y0018556D01*
X0177146Y0018469D01*
X0176893Y0018389D01*
X0176638Y0018315D01*
X0176381Y0018247D01*
X0176122Y0018186D01*
X0175862Y0018131D01*
X0175601Y0018082D01*
X0175339Y0018040D01*
X0175075Y0018004D01*
X0174811Y0017975D01*
X0174546Y0017952D01*
X0174281Y0017936D01*
X0174016Y0017926D01*
X0173750Y0017923D01*
X0173484Y0017926D01*
X0173219Y0017936D01*
X0172954Y0017952D01*
X0172689Y0017975D01*
X0172425Y0018004D01*
X0172161Y0018040D01*
X0171899Y0018082D01*
X0171638Y0018131D01*
X0171378Y0018186D01*
X0171119Y0018247D01*
X0170862Y0018315D01*
X0170607Y0018389D01*
X0170354Y0018469D01*
X0170102Y0018556D01*
X0169853Y0018648D01*
X0169607Y0018747D01*
X0169362Y0018852D01*
X0169121Y0018963D01*
X0168882Y0019079D01*
X0168646Y0019201D01*
X0168413Y0019330D01*
X0168184Y0019463D01*
X0167958Y0019603D01*
X0167735Y0019748D01*
X0167516Y0019898D01*
X0167300Y0020054D01*
X0167089Y0020215D01*
X0166881Y0020381D01*
X0166678Y0020552D01*
X0166479Y0020728D01*
X0166284Y0020909D01*
X0166094Y0021094D01*
X0165909Y0021284D01*
X0165728Y0021479D01*
X0165552Y0021678D01*
X0165381Y0021881D01*
X0165215Y0022089D01*
X0165054Y0022300D01*
X0164898Y0022516D01*
X0164748Y0022735D01*
X0164603Y0022958D01*
X0164463Y0023184D01*
X0164330Y0023413D01*
X0164201Y0023646D01*
X0164079Y0023882D01*
X0163963Y0024121D01*
X0163852Y0024362D01*
X0163747Y0024607D01*
X0163648Y0024853D01*
X0163556Y0025102D01*
X0163469Y0025354D01*
X0163389Y0025607D01*
X0163315Y0025862D01*
X0163247Y0026119D01*
X0163186Y0026378D01*
X0163131Y0026638D01*
X0163082Y0026899D01*
X0163040Y0027161D01*
X0163004Y0027425D01*
X0162975Y0027689D01*
X0162952Y0027954D01*
X0162936Y0028219D01*
X0162926Y0028484D01*
X0162923Y0028750D01*
D11*
X0144596Y0013750D03*
X0137904Y0013750D03*
X0124596Y0013750D03*
X0117904Y0013750D03*
X0096250Y0085404D03*
X0096250Y0092096D03*
X0122904Y0101250D03*
X0129596Y0101250D03*
X0157904Y0111250D03*
X0164596Y0111250D03*
X0104596Y0128750D03*
X0097904Y0128750D03*
X0069596Y0108750D03*
X0062904Y0108750D03*
X0067904Y0173750D03*
X0074596Y0173750D03*
D12*
X0081250Y0162096D03*
X0081250Y0155404D03*
X0066250Y0155404D03*
X0066250Y0162096D03*
X0091250Y0117096D03*
X0091250Y0110404D03*
X0107904Y0058750D03*
X0114596Y0058750D03*
X0132904Y0043750D03*
X0139596Y0043750D03*
X0156250Y0065404D03*
X0156250Y0072096D03*
X0166250Y0072096D03*
X0166250Y0065404D03*
X0064596Y0058750D03*
X0057904Y0058750D03*
X0113750Y0182904D03*
X0113750Y0189596D03*
D13*
X0131014Y0141250D03*
X0131014Y0136250D03*
X0131014Y0131250D03*
X0131014Y0126250D03*
X0151486Y0126250D03*
X0151486Y0131250D03*
X0151486Y0136250D03*
X0151486Y0141250D03*
X0146014Y0101250D03*
X0146014Y0096250D03*
X0146014Y0091250D03*
X0146014Y0086250D03*
X0131486Y0086250D03*
X0131486Y0081250D03*
X0131486Y0076250D03*
X0131486Y0071250D03*
X0111014Y0071250D03*
X0111014Y0076250D03*
X0111014Y0081250D03*
X0111014Y0086250D03*
X0105148Y0051250D03*
X0105148Y0046250D03*
X0105148Y0041250D03*
X0105148Y0036250D03*
X0105148Y0031250D03*
X0105148Y0026250D03*
X0105148Y0021250D03*
X0105148Y0016250D03*
X0067451Y0016250D03*
X0067451Y0021250D03*
X0067451Y0026250D03*
X0067451Y0031250D03*
X0067451Y0036250D03*
X0067451Y0041250D03*
X0067451Y0046250D03*
X0067451Y0051250D03*
X0041486Y0086250D03*
X0041486Y0091250D03*
X0041486Y0096250D03*
X0041486Y0101250D03*
X0021014Y0101250D03*
X0021014Y0096250D03*
X0021014Y0091250D03*
X0021014Y0086250D03*
X0166486Y0086250D03*
X0166486Y0091250D03*
X0166486Y0096250D03*
X0166486Y0101250D03*
D14*
X0106919Y0170010D03*
X0106919Y0177490D03*
X0115581Y0173750D03*
X0103081Y0186250D03*
X0094419Y0182510D03*
X0094419Y0189990D03*
X0056919Y0097490D03*
X0056919Y0090010D03*
X0065581Y0093750D03*
D15*
X0066250Y0135797D03*
X0066250Y0141703D03*
D16*
X0086250Y0145640D03*
X0086250Y0131860D03*
D17*
X0183750Y0082274D03*
X0183750Y0060226D03*
D18*
X0162274Y0163750D03*
X0140226Y0163750D03*
D19*
X0079950Y0182250D03*
X0072350Y0182250D03*
X0076150Y0190250D03*
X0066150Y0122750D03*
X0062350Y0114750D03*
X0069950Y0114750D03*
D20*
X0102250Y0113650D03*
X0110250Y0109850D03*
X0110250Y0117450D03*
X0100250Y0157350D03*
X0100250Y0164950D03*
X0092250Y0161150D03*
X0167250Y0132650D03*
X0167250Y0125050D03*
X0175250Y0128850D03*
X0182250Y0107650D03*
X0182250Y0100050D03*
X0190250Y0103850D03*
D21*
X0192650Y0173750D02*
X0184850Y0173750D01*
X0184850Y0183750D02*
X0192650Y0183750D01*
X0020150Y0136250D02*
X0012350Y0136250D01*
X0012350Y0126250D02*
X0020150Y0126250D01*
X0020150Y0116250D02*
X0012350Y0116250D01*
X0012350Y0048750D02*
X0020150Y0048750D01*
X0020150Y0038750D02*
X0012350Y0038750D01*
X0012350Y0028750D02*
X0020150Y0028750D01*
X0020150Y0018750D02*
X0012350Y0018750D01*
X0012350Y0008750D02*
X0020150Y0008750D01*
D22*
X0127510Y0026191D03*
X0127510Y0028750D03*
X0127510Y0031309D03*
X0134990Y0031309D03*
X0134990Y0028750D03*
X0134990Y0026191D03*
D23*
X0173750Y0028750D03*
X0028750Y0166250D03*
M02*
