%
M48
M72
T01C0.01969
T02C0.05200
T03C0.21654
%
T01
X61250Y148750
X63750Y131250
X71250Y123750
X81250Y108750
X76250Y93750
X56250Y113750
X98750Y138750
X91250Y158750
X131250Y153750
X141250Y148750
X141250Y113750
X136250Y96250
X146250Y71250
X136250Y56250
X123750Y61250
X116250Y43750
X136250Y36250
X138750Y21250
X116250Y18750
X66250Y11250
X51250Y41250
X51250Y58750
X108750Y91250
X171250Y58750
X183750Y91250
T02
X16250Y8750
X16250Y18750
X16250Y28750
X16250Y38750
X16250Y48750
X16250Y116250
X16250Y126250
X16250Y136250
X188750Y173750
X188750Y183750
T03
X28750Y166250
X173750Y28750
M30
