%
M48
M72
T01C0.01969
T02C0.05200
T03C0.21654
%
T01
X71000Y161000
X101000Y168500
X108500Y151000
X101000Y136000
X96000Y118500
X86000Y106000
X118500Y103500
X146000Y108500
X151000Y126000
X151000Y161000
X141000Y166000
X193500Y103500
X181000Y71000
X156000Y83500
X146000Y68500
X133500Y73500
X126000Y58500
X146000Y48500
X148500Y33500
X126000Y31000
X76000Y23500
X61000Y53500
X61000Y71000
T02
X26000Y21000
X26000Y31000
X26000Y41000
X26000Y51000
X26000Y61000
X26000Y128500
X26000Y138500
X26000Y148500
X198500Y186000
X198500Y196000
T03
X31000Y193500
X191000Y31000
M30
