G75*
%MOIN*%
%OFA0B0*%
%FSLAX25Y25*%
%IPPOS*%
%LPD*%
%AMOC8*
5,1,8,0,0,1.08239X$1,22.5*
%
%ADD10C,0.00000*%
%ADD11R,0.03937X0.04331*%
%ADD12R,0.04331X0.03937*%
%ADD13R,0.08661X0.02362*%
%ADD14R,0.03937X0.02756*%
%ADD15R,0.03150X0.03150*%
%ADD16R,0.05906X0.05906*%
%ADD17R,0.12598X0.07087*%
%ADD18R,0.07087X0.12598*%
%ADD19R,0.03100X0.03500*%
%ADD20R,0.03500X0.03100*%
%ADD21C,0.07800*%
%ADD22R,0.02362X0.01575*%
%ADD23C,0.01600*%
%ADD24C,0.03169*%
D10*
X0001250Y0001250D02*
X0001250Y0223711D01*
X0222451Y0223711D01*
X0222451Y0001250D01*
X0001250Y0001250D01*
X0180423Y0031250D02*
X0180426Y0031516D01*
X0180436Y0031781D01*
X0180452Y0032046D01*
X0180475Y0032311D01*
X0180504Y0032575D01*
X0180540Y0032839D01*
X0180582Y0033101D01*
X0180631Y0033362D01*
X0180686Y0033622D01*
X0180747Y0033881D01*
X0180815Y0034138D01*
X0180889Y0034393D01*
X0180969Y0034646D01*
X0181056Y0034898D01*
X0181148Y0035147D01*
X0181247Y0035393D01*
X0181352Y0035638D01*
X0181463Y0035879D01*
X0181579Y0036118D01*
X0181701Y0036354D01*
X0181830Y0036587D01*
X0181963Y0036816D01*
X0182103Y0037042D01*
X0182248Y0037265D01*
X0182398Y0037484D01*
X0182554Y0037700D01*
X0182715Y0037911D01*
X0182881Y0038119D01*
X0183052Y0038322D01*
X0183228Y0038521D01*
X0183409Y0038716D01*
X0183594Y0038906D01*
X0183784Y0039091D01*
X0183979Y0039272D01*
X0184178Y0039448D01*
X0184381Y0039619D01*
X0184589Y0039785D01*
X0184800Y0039946D01*
X0185016Y0040102D01*
X0185235Y0040252D01*
X0185458Y0040397D01*
X0185684Y0040537D01*
X0185913Y0040670D01*
X0186146Y0040799D01*
X0186382Y0040921D01*
X0186621Y0041037D01*
X0186862Y0041148D01*
X0187107Y0041253D01*
X0187353Y0041352D01*
X0187602Y0041444D01*
X0187854Y0041531D01*
X0188107Y0041611D01*
X0188362Y0041685D01*
X0188619Y0041753D01*
X0188878Y0041814D01*
X0189138Y0041869D01*
X0189399Y0041918D01*
X0189661Y0041960D01*
X0189925Y0041996D01*
X0190189Y0042025D01*
X0190454Y0042048D01*
X0190719Y0042064D01*
X0190984Y0042074D01*
X0191250Y0042077D01*
X0191516Y0042074D01*
X0191781Y0042064D01*
X0192046Y0042048D01*
X0192311Y0042025D01*
X0192575Y0041996D01*
X0192839Y0041960D01*
X0193101Y0041918D01*
X0193362Y0041869D01*
X0193622Y0041814D01*
X0193881Y0041753D01*
X0194138Y0041685D01*
X0194393Y0041611D01*
X0194646Y0041531D01*
X0194898Y0041444D01*
X0195147Y0041352D01*
X0195393Y0041253D01*
X0195638Y0041148D01*
X0195879Y0041037D01*
X0196118Y0040921D01*
X0196354Y0040799D01*
X0196587Y0040670D01*
X0196816Y0040537D01*
X0197042Y0040397D01*
X0197265Y0040252D01*
X0197484Y0040102D01*
X0197700Y0039946D01*
X0197911Y0039785D01*
X0198119Y0039619D01*
X0198322Y0039448D01*
X0198521Y0039272D01*
X0198716Y0039091D01*
X0198906Y0038906D01*
X0199091Y0038716D01*
X0199272Y0038521D01*
X0199448Y0038322D01*
X0199619Y0038119D01*
X0199785Y0037911D01*
X0199946Y0037700D01*
X0200102Y0037484D01*
X0200252Y0037265D01*
X0200397Y0037042D01*
X0200537Y0036816D01*
X0200670Y0036587D01*
X0200799Y0036354D01*
X0200921Y0036118D01*
X0201037Y0035879D01*
X0201148Y0035638D01*
X0201253Y0035393D01*
X0201352Y0035147D01*
X0201444Y0034898D01*
X0201531Y0034646D01*
X0201611Y0034393D01*
X0201685Y0034138D01*
X0201753Y0033881D01*
X0201814Y0033622D01*
X0201869Y0033362D01*
X0201918Y0033101D01*
X0201960Y0032839D01*
X0201996Y0032575D01*
X0202025Y0032311D01*
X0202048Y0032046D01*
X0202064Y0031781D01*
X0202074Y0031516D01*
X0202077Y0031250D01*
X0202074Y0030984D01*
X0202064Y0030719D01*
X0202048Y0030454D01*
X0202025Y0030189D01*
X0201996Y0029925D01*
X0201960Y0029661D01*
X0201918Y0029399D01*
X0201869Y0029138D01*
X0201814Y0028878D01*
X0201753Y0028619D01*
X0201685Y0028362D01*
X0201611Y0028107D01*
X0201531Y0027854D01*
X0201444Y0027602D01*
X0201352Y0027353D01*
X0201253Y0027107D01*
X0201148Y0026862D01*
X0201037Y0026621D01*
X0200921Y0026382D01*
X0200799Y0026146D01*
X0200670Y0025913D01*
X0200537Y0025684D01*
X0200397Y0025458D01*
X0200252Y0025235D01*
X0200102Y0025016D01*
X0199946Y0024800D01*
X0199785Y0024589D01*
X0199619Y0024381D01*
X0199448Y0024178D01*
X0199272Y0023979D01*
X0199091Y0023784D01*
X0198906Y0023594D01*
X0198716Y0023409D01*
X0198521Y0023228D01*
X0198322Y0023052D01*
X0198119Y0022881D01*
X0197911Y0022715D01*
X0197700Y0022554D01*
X0197484Y0022398D01*
X0197265Y0022248D01*
X0197042Y0022103D01*
X0196816Y0021963D01*
X0196587Y0021830D01*
X0196354Y0021701D01*
X0196118Y0021579D01*
X0195879Y0021463D01*
X0195638Y0021352D01*
X0195393Y0021247D01*
X0195147Y0021148D01*
X0194898Y0021056D01*
X0194646Y0020969D01*
X0194393Y0020889D01*
X0194138Y0020815D01*
X0193881Y0020747D01*
X0193622Y0020686D01*
X0193362Y0020631D01*
X0193101Y0020582D01*
X0192839Y0020540D01*
X0192575Y0020504D01*
X0192311Y0020475D01*
X0192046Y0020452D01*
X0191781Y0020436D01*
X0191516Y0020426D01*
X0191250Y0020423D01*
X0190984Y0020426D01*
X0190719Y0020436D01*
X0190454Y0020452D01*
X0190189Y0020475D01*
X0189925Y0020504D01*
X0189661Y0020540D01*
X0189399Y0020582D01*
X0189138Y0020631D01*
X0188878Y0020686D01*
X0188619Y0020747D01*
X0188362Y0020815D01*
X0188107Y0020889D01*
X0187854Y0020969D01*
X0187602Y0021056D01*
X0187353Y0021148D01*
X0187107Y0021247D01*
X0186862Y0021352D01*
X0186621Y0021463D01*
X0186382Y0021579D01*
X0186146Y0021701D01*
X0185913Y0021830D01*
X0185684Y0021963D01*
X0185458Y0022103D01*
X0185235Y0022248D01*
X0185016Y0022398D01*
X0184800Y0022554D01*
X0184589Y0022715D01*
X0184381Y0022881D01*
X0184178Y0023052D01*
X0183979Y0023228D01*
X0183784Y0023409D01*
X0183594Y0023594D01*
X0183409Y0023784D01*
X0183228Y0023979D01*
X0183052Y0024178D01*
X0182881Y0024381D01*
X0182715Y0024589D01*
X0182554Y0024800D01*
X0182398Y0025016D01*
X0182248Y0025235D01*
X0182103Y0025458D01*
X0181963Y0025684D01*
X0181830Y0025913D01*
X0181701Y0026146D01*
X0181579Y0026382D01*
X0181463Y0026621D01*
X0181352Y0026862D01*
X0181247Y0027107D01*
X0181148Y0027353D01*
X0181056Y0027602D01*
X0180969Y0027854D01*
X0180889Y0028107D01*
X0180815Y0028362D01*
X0180747Y0028619D01*
X0180686Y0028878D01*
X0180631Y0029138D01*
X0180582Y0029399D01*
X0180540Y0029661D01*
X0180504Y0029925D01*
X0180475Y0030189D01*
X0180452Y0030454D01*
X0180436Y0030719D01*
X0180426Y0030984D01*
X0180423Y0031250D01*
X0020423Y0193750D02*
X0020426Y0194016D01*
X0020436Y0194281D01*
X0020452Y0194546D01*
X0020475Y0194811D01*
X0020504Y0195075D01*
X0020540Y0195339D01*
X0020582Y0195601D01*
X0020631Y0195862D01*
X0020686Y0196122D01*
X0020747Y0196381D01*
X0020815Y0196638D01*
X0020889Y0196893D01*
X0020969Y0197146D01*
X0021056Y0197398D01*
X0021148Y0197647D01*
X0021247Y0197893D01*
X0021352Y0198138D01*
X0021463Y0198379D01*
X0021579Y0198618D01*
X0021701Y0198854D01*
X0021830Y0199087D01*
X0021963Y0199316D01*
X0022103Y0199542D01*
X0022248Y0199765D01*
X0022398Y0199984D01*
X0022554Y0200200D01*
X0022715Y0200411D01*
X0022881Y0200619D01*
X0023052Y0200822D01*
X0023228Y0201021D01*
X0023409Y0201216D01*
X0023594Y0201406D01*
X0023784Y0201591D01*
X0023979Y0201772D01*
X0024178Y0201948D01*
X0024381Y0202119D01*
X0024589Y0202285D01*
X0024800Y0202446D01*
X0025016Y0202602D01*
X0025235Y0202752D01*
X0025458Y0202897D01*
X0025684Y0203037D01*
X0025913Y0203170D01*
X0026146Y0203299D01*
X0026382Y0203421D01*
X0026621Y0203537D01*
X0026862Y0203648D01*
X0027107Y0203753D01*
X0027353Y0203852D01*
X0027602Y0203944D01*
X0027854Y0204031D01*
X0028107Y0204111D01*
X0028362Y0204185D01*
X0028619Y0204253D01*
X0028878Y0204314D01*
X0029138Y0204369D01*
X0029399Y0204418D01*
X0029661Y0204460D01*
X0029925Y0204496D01*
X0030189Y0204525D01*
X0030454Y0204548D01*
X0030719Y0204564D01*
X0030984Y0204574D01*
X0031250Y0204577D01*
X0031516Y0204574D01*
X0031781Y0204564D01*
X0032046Y0204548D01*
X0032311Y0204525D01*
X0032575Y0204496D01*
X0032839Y0204460D01*
X0033101Y0204418D01*
X0033362Y0204369D01*
X0033622Y0204314D01*
X0033881Y0204253D01*
X0034138Y0204185D01*
X0034393Y0204111D01*
X0034646Y0204031D01*
X0034898Y0203944D01*
X0035147Y0203852D01*
X0035393Y0203753D01*
X0035638Y0203648D01*
X0035879Y0203537D01*
X0036118Y0203421D01*
X0036354Y0203299D01*
X0036587Y0203170D01*
X0036816Y0203037D01*
X0037042Y0202897D01*
X0037265Y0202752D01*
X0037484Y0202602D01*
X0037700Y0202446D01*
X0037911Y0202285D01*
X0038119Y0202119D01*
X0038322Y0201948D01*
X0038521Y0201772D01*
X0038716Y0201591D01*
X0038906Y0201406D01*
X0039091Y0201216D01*
X0039272Y0201021D01*
X0039448Y0200822D01*
X0039619Y0200619D01*
X0039785Y0200411D01*
X0039946Y0200200D01*
X0040102Y0199984D01*
X0040252Y0199765D01*
X0040397Y0199542D01*
X0040537Y0199316D01*
X0040670Y0199087D01*
X0040799Y0198854D01*
X0040921Y0198618D01*
X0041037Y0198379D01*
X0041148Y0198138D01*
X0041253Y0197893D01*
X0041352Y0197647D01*
X0041444Y0197398D01*
X0041531Y0197146D01*
X0041611Y0196893D01*
X0041685Y0196638D01*
X0041753Y0196381D01*
X0041814Y0196122D01*
X0041869Y0195862D01*
X0041918Y0195601D01*
X0041960Y0195339D01*
X0041996Y0195075D01*
X0042025Y0194811D01*
X0042048Y0194546D01*
X0042064Y0194281D01*
X0042074Y0194016D01*
X0042077Y0193750D01*
X0042074Y0193484D01*
X0042064Y0193219D01*
X0042048Y0192954D01*
X0042025Y0192689D01*
X0041996Y0192425D01*
X0041960Y0192161D01*
X0041918Y0191899D01*
X0041869Y0191638D01*
X0041814Y0191378D01*
X0041753Y0191119D01*
X0041685Y0190862D01*
X0041611Y0190607D01*
X0041531Y0190354D01*
X0041444Y0190102D01*
X0041352Y0189853D01*
X0041253Y0189607D01*
X0041148Y0189362D01*
X0041037Y0189121D01*
X0040921Y0188882D01*
X0040799Y0188646D01*
X0040670Y0188413D01*
X0040537Y0188184D01*
X0040397Y0187958D01*
X0040252Y0187735D01*
X0040102Y0187516D01*
X0039946Y0187300D01*
X0039785Y0187089D01*
X0039619Y0186881D01*
X0039448Y0186678D01*
X0039272Y0186479D01*
X0039091Y0186284D01*
X0038906Y0186094D01*
X0038716Y0185909D01*
X0038521Y0185728D01*
X0038322Y0185552D01*
X0038119Y0185381D01*
X0037911Y0185215D01*
X0037700Y0185054D01*
X0037484Y0184898D01*
X0037265Y0184748D01*
X0037042Y0184603D01*
X0036816Y0184463D01*
X0036587Y0184330D01*
X0036354Y0184201D01*
X0036118Y0184079D01*
X0035879Y0183963D01*
X0035638Y0183852D01*
X0035393Y0183747D01*
X0035147Y0183648D01*
X0034898Y0183556D01*
X0034646Y0183469D01*
X0034393Y0183389D01*
X0034138Y0183315D01*
X0033881Y0183247D01*
X0033622Y0183186D01*
X0033362Y0183131D01*
X0033101Y0183082D01*
X0032839Y0183040D01*
X0032575Y0183004D01*
X0032311Y0182975D01*
X0032046Y0182952D01*
X0031781Y0182936D01*
X0031516Y0182926D01*
X0031250Y0182923D01*
X0030984Y0182926D01*
X0030719Y0182936D01*
X0030454Y0182952D01*
X0030189Y0182975D01*
X0029925Y0183004D01*
X0029661Y0183040D01*
X0029399Y0183082D01*
X0029138Y0183131D01*
X0028878Y0183186D01*
X0028619Y0183247D01*
X0028362Y0183315D01*
X0028107Y0183389D01*
X0027854Y0183469D01*
X0027602Y0183556D01*
X0027353Y0183648D01*
X0027107Y0183747D01*
X0026862Y0183852D01*
X0026621Y0183963D01*
X0026382Y0184079D01*
X0026146Y0184201D01*
X0025913Y0184330D01*
X0025684Y0184463D01*
X0025458Y0184603D01*
X0025235Y0184748D01*
X0025016Y0184898D01*
X0024800Y0185054D01*
X0024589Y0185215D01*
X0024381Y0185381D01*
X0024178Y0185552D01*
X0023979Y0185728D01*
X0023784Y0185909D01*
X0023594Y0186094D01*
X0023409Y0186284D01*
X0023228Y0186479D01*
X0023052Y0186678D01*
X0022881Y0186881D01*
X0022715Y0187089D01*
X0022554Y0187300D01*
X0022398Y0187516D01*
X0022248Y0187735D01*
X0022103Y0187958D01*
X0021963Y0188184D01*
X0021830Y0188413D01*
X0021701Y0188646D01*
X0021579Y0188882D01*
X0021463Y0189121D01*
X0021352Y0189362D01*
X0021247Y0189607D01*
X0021148Y0189853D01*
X0021056Y0190102D01*
X0020969Y0190354D01*
X0020889Y0190607D01*
X0020815Y0190862D01*
X0020747Y0191119D01*
X0020686Y0191378D01*
X0020631Y0191638D01*
X0020582Y0191899D01*
X0020540Y0192161D01*
X0020504Y0192425D01*
X0020475Y0192689D01*
X0020452Y0192954D01*
X0020436Y0193219D01*
X0020426Y0193484D01*
X0020423Y0193750D01*
D11*
X0077904Y0186250D03*
X0084596Y0186250D03*
X0107904Y0141250D03*
X0114596Y0141250D03*
X0132904Y0113750D03*
X0139596Y0113750D03*
X0167904Y0123750D03*
X0174596Y0123750D03*
X0106250Y0104596D03*
X0106250Y0097904D03*
X0079596Y0121250D03*
X0072904Y0121250D03*
X0127904Y0026250D03*
X0134596Y0026250D03*
X0147904Y0026250D03*
X0154596Y0026250D03*
D12*
X0149596Y0056250D03*
X0142904Y0056250D03*
X0124596Y0071250D03*
X0117904Y0071250D03*
X0074596Y0071250D03*
X0067904Y0071250D03*
X0101250Y0122904D03*
X0101250Y0129596D03*
X0091250Y0167904D03*
X0091250Y0174596D03*
X0076250Y0174596D03*
X0076250Y0167904D03*
X0123750Y0195404D03*
X0123750Y0202096D03*
X0166250Y0084596D03*
X0166250Y0077904D03*
X0176250Y0077904D03*
X0176250Y0084596D03*
D13*
X0176486Y0098750D03*
X0176486Y0103750D03*
X0176486Y0108750D03*
X0176486Y0113750D03*
X0156014Y0113750D03*
X0156014Y0108750D03*
X0156014Y0103750D03*
X0156014Y0098750D03*
X0141486Y0098750D03*
X0141486Y0093750D03*
X0141486Y0088750D03*
X0141486Y0083750D03*
X0121014Y0083750D03*
X0121014Y0088750D03*
X0121014Y0093750D03*
X0121014Y0098750D03*
X0115148Y0063750D03*
X0115148Y0058750D03*
X0115148Y0053750D03*
X0115148Y0048750D03*
X0115148Y0043750D03*
X0115148Y0038750D03*
X0115148Y0033750D03*
X0115148Y0028750D03*
X0077451Y0028750D03*
X0077451Y0033750D03*
X0077451Y0038750D03*
X0077451Y0043750D03*
X0077451Y0048750D03*
X0077451Y0053750D03*
X0077451Y0058750D03*
X0077451Y0063750D03*
X0051486Y0098750D03*
X0051486Y0103750D03*
X0051486Y0108750D03*
X0051486Y0113750D03*
X0031014Y0113750D03*
X0031014Y0108750D03*
X0031014Y0103750D03*
X0031014Y0098750D03*
X0141014Y0138750D03*
X0141014Y0143750D03*
X0141014Y0148750D03*
X0141014Y0153750D03*
X0161486Y0153750D03*
X0161486Y0148750D03*
X0161486Y0143750D03*
X0161486Y0138750D03*
D14*
X0104419Y0195010D03*
X0104419Y0202490D03*
X0113081Y0198750D03*
X0066919Y0109990D03*
X0066919Y0102510D03*
X0075581Y0106250D03*
D15*
X0076250Y0148297D03*
X0076250Y0154203D03*
D16*
X0096250Y0158140D03*
X0096250Y0144360D03*
D17*
X0193750Y0094774D03*
X0193750Y0072726D03*
D18*
X0172274Y0176250D03*
X0150226Y0176250D03*
D19*
X0089950Y0194750D03*
X0082350Y0194750D03*
X0086150Y0202750D03*
X0081150Y0140250D03*
X0077350Y0132250D03*
X0084950Y0132250D03*
D20*
X0112250Y0126150D03*
X0120250Y0122350D03*
X0120250Y0129950D03*
X0110250Y0169850D03*
X0110250Y0177450D03*
X0102250Y0173650D03*
X0177250Y0145150D03*
X0177250Y0137550D03*
X0185250Y0141350D03*
X0192250Y0120150D03*
X0192250Y0112550D03*
X0200250Y0116350D03*
D21*
X0202650Y0186250D02*
X0194850Y0186250D01*
X0194850Y0196250D02*
X0202650Y0196250D01*
X0030150Y0148750D02*
X0022350Y0148750D01*
X0022350Y0138750D02*
X0030150Y0138750D01*
X0030150Y0128750D02*
X0022350Y0128750D01*
X0022350Y0061250D02*
X0030150Y0061250D01*
X0030150Y0051250D02*
X0022350Y0051250D01*
X0022350Y0041250D02*
X0030150Y0041250D01*
X0030150Y0031250D02*
X0022350Y0031250D01*
X0022350Y0021250D02*
X0030150Y0021250D01*
D22*
X0137510Y0038691D03*
X0137510Y0041250D03*
X0137510Y0043809D03*
X0144990Y0043809D03*
X0144990Y0041250D03*
X0144990Y0038691D03*
X0117510Y0183691D03*
X0117510Y0188809D03*
X0124990Y0186250D03*
D23*
X0121250Y0191900D02*
X0120600Y0191900D01*
X0117510Y0188809D01*
X0121250Y0191900D02*
X0121250Y0192904D01*
X0123750Y0195404D01*
X0123750Y0195049D01*
X0121250Y0191900D02*
X0121250Y0176250D01*
X0126250Y0171250D01*
X0126250Y0156250D01*
X0133750Y0148750D01*
X0141014Y0148750D01*
X0148750Y0148750D01*
X0151250Y0146250D01*
X0151250Y0138750D01*
X0141014Y0138750D01*
X0141014Y0143750D02*
X0128750Y0143750D01*
X0121250Y0151250D01*
X0121250Y0166450D01*
X0110250Y0177450D01*
X0111269Y0177450D01*
X0117510Y0183691D01*
X0106250Y0186250D02*
X0106250Y0173850D01*
X0110250Y0169850D01*
X0110250Y0162750D01*
X0103750Y0156250D01*
X0103750Y0145404D01*
X0107904Y0141250D01*
X0113750Y0142096D02*
X0114596Y0141250D01*
X0114596Y0134596D01*
X0109200Y0129200D01*
X0112250Y0126150D01*
X0109200Y0129200D02*
X0108804Y0129596D01*
X0101250Y0129596D01*
X0101250Y0136250D02*
X0081350Y0136250D01*
X0077350Y0132250D01*
X0072904Y0127804D01*
X0072904Y0121250D01*
X0072350Y0121804D01*
X0076250Y0116250D02*
X0061250Y0116250D01*
X0056250Y0121250D01*
X0051250Y0121250D01*
X0076250Y0146250D01*
X0076250Y0148297D01*
X0076250Y0154203D02*
X0076250Y0167904D01*
X0075404Y0173750D02*
X0071250Y0173750D01*
X0051250Y0148750D01*
X0026250Y0148750D01*
X0026250Y0138750D02*
X0053750Y0138750D01*
X0071250Y0161250D01*
X0075404Y0173750D02*
X0076250Y0174596D01*
X0077096Y0174596D01*
X0083750Y0181250D01*
X0083750Y0185404D01*
X0084596Y0186250D01*
X0084596Y0189396D01*
X0089950Y0194750D01*
X0086350Y0198750D02*
X0093750Y0198750D01*
X0096250Y0196250D01*
X0096250Y0193750D01*
X0091250Y0188750D01*
X0091250Y0174596D01*
X0091250Y0167904D02*
X0096250Y0162904D01*
X0096250Y0158140D01*
X0101250Y0168750D02*
X0102250Y0172250D01*
X0102250Y0173650D01*
X0106250Y0186250D02*
X0104419Y0186919D01*
X0104419Y0195010D01*
X0104419Y0202490D02*
X0114990Y0202490D01*
X0118750Y0201250D01*
X0122904Y0201250D01*
X0126250Y0201250D01*
X0136250Y0196250D01*
X0136250Y0163750D01*
X0138750Y0161250D01*
X0151250Y0161250D01*
X0161250Y0161250D01*
X0161486Y0161014D01*
X0161486Y0153750D01*
X0161486Y0148750D02*
X0173650Y0148750D01*
X0177250Y0145150D01*
X0171050Y0143750D02*
X0177250Y0137550D01*
X0177250Y0126404D01*
X0174596Y0123750D01*
X0167904Y0123750D02*
X0165404Y0126250D01*
X0151250Y0126250D01*
X0161250Y0121250D02*
X0131250Y0121250D01*
X0122550Y0129950D01*
X0120250Y0129950D01*
X0120250Y0122350D02*
X0101804Y0122350D01*
X0101250Y0122904D01*
X0099596Y0121250D01*
X0096250Y0118750D01*
X0097096Y0113750D02*
X0106250Y0104596D01*
X0107904Y0104596D01*
X0111250Y0101250D01*
X0131250Y0121250D01*
X0132904Y0113750D02*
X0128750Y0113750D01*
X0118750Y0103750D01*
X0111250Y0101250D02*
X0111250Y0098750D01*
X0116250Y0093750D01*
X0121014Y0093750D01*
X0113750Y0090404D02*
X0113750Y0086250D01*
X0116250Y0083750D01*
X0121014Y0083750D01*
X0123750Y0083750D01*
X0131250Y0071250D01*
X0126250Y0071250D01*
X0126250Y0061250D01*
X0123750Y0058750D01*
X0126250Y0056250D01*
X0123750Y0058750D02*
X0115148Y0058750D01*
X0115148Y0063750D02*
X0115148Y0071250D01*
X0108750Y0077648D01*
X0108750Y0088750D01*
X0038750Y0088750D01*
X0038750Y0113750D01*
X0031014Y0113750D01*
X0031014Y0108750D02*
X0031250Y0108514D01*
X0031014Y0108750D02*
X0031014Y0106250D01*
X0026250Y0106250D01*
X0021250Y0111250D01*
X0021250Y0126250D01*
X0028750Y0118750D01*
X0041250Y0118750D01*
X0042500Y0117500D01*
X0046250Y0121250D01*
X0051250Y0121250D01*
X0051486Y0113750D02*
X0097096Y0113750D01*
X0086250Y0106250D02*
X0082510Y0109990D01*
X0066919Y0109990D01*
X0065679Y0103750D02*
X0066919Y0102510D01*
X0071526Y0097904D01*
X0106250Y0097904D01*
X0113750Y0090404D01*
X0131250Y0086250D02*
X0131250Y0101250D01*
X0133750Y0103750D01*
X0156014Y0103750D01*
X0163750Y0103750D01*
X0168750Y0098750D01*
X0176486Y0098750D01*
X0176486Y0103750D02*
X0181250Y0103750D01*
X0182450Y0102550D01*
X0192250Y0112550D01*
X0196250Y0106250D02*
X0193750Y0103750D01*
X0196250Y0106250D02*
X0196250Y0126250D01*
X0191250Y0131250D01*
X0186250Y0131250D01*
X0181250Y0136250D01*
X0181250Y0171250D01*
X0177274Y0175226D01*
X0172274Y0176250D01*
X0161250Y0166250D02*
X0141250Y0166250D01*
X0150226Y0176250D02*
X0150226Y0185226D01*
X0166250Y0196250D01*
X0198750Y0196250D01*
X0198750Y0186250D02*
X0161250Y0186250D01*
X0161250Y0166250D01*
X0161486Y0143750D02*
X0171050Y0143750D01*
X0161486Y0138750D02*
X0151250Y0138750D01*
X0161250Y0121250D02*
X0168750Y0113750D01*
X0176486Y0113750D01*
X0176486Y0108750D02*
X0180850Y0108750D01*
X0192250Y0120150D01*
X0200250Y0116350D02*
X0201250Y0117350D01*
X0201250Y0136250D01*
X0196150Y0141350D01*
X0185250Y0141350D01*
X0200250Y0116350D02*
X0201250Y0115350D01*
X0201250Y0101250D01*
X0193750Y0094774D01*
X0183750Y0093750D02*
X0183750Y0101250D01*
X0182450Y0102550D01*
X0183750Y0093750D02*
X0176250Y0086250D01*
X0176250Y0084596D01*
X0176250Y0077904D02*
X0166250Y0077904D01*
X0166250Y0084596D02*
X0161250Y0084596D01*
X0156014Y0089833D01*
X0156014Y0098750D01*
X0148750Y0088750D02*
X0151250Y0086250D01*
X0151250Y0054596D01*
X0151250Y0038750D01*
X0151191Y0038691D01*
X0154596Y0035285D01*
X0154596Y0026250D01*
X0147904Y0026250D02*
X0147904Y0032904D01*
X0148750Y0033750D01*
X0151191Y0038691D02*
X0144990Y0038691D01*
X0144990Y0041250D02*
X0141250Y0041250D01*
X0141250Y0031250D01*
X0131250Y0031250D01*
X0127904Y0027904D01*
X0127904Y0026250D01*
X0123750Y0028750D02*
X0126250Y0031250D01*
X0123750Y0028750D02*
X0115148Y0028750D01*
X0128750Y0038750D02*
X0132569Y0038750D01*
X0137510Y0038691D01*
X0137510Y0041250D02*
X0131250Y0041250D01*
X0123750Y0048750D01*
X0115148Y0048750D01*
X0115148Y0043750D02*
X0123750Y0043750D01*
X0128750Y0038750D01*
X0137510Y0043809D02*
X0130069Y0051250D01*
X0123750Y0051250D01*
X0121250Y0053750D01*
X0115148Y0053750D01*
X0115148Y0071250D02*
X0117904Y0071250D01*
X0124596Y0071250D02*
X0126250Y0071250D01*
X0131250Y0071250D02*
X0141250Y0066250D01*
X0141250Y0054596D01*
X0141250Y0041250D01*
X0144990Y0043809D02*
X0146250Y0045069D01*
X0146250Y0048750D01*
X0141250Y0054596D02*
X0142904Y0056250D01*
X0149596Y0056250D02*
X0151250Y0054596D01*
X0146250Y0068750D02*
X0146250Y0071250D01*
X0131250Y0086250D01*
X0141486Y0088750D02*
X0148750Y0088750D01*
X0156250Y0084596D02*
X0156250Y0083750D01*
X0156250Y0084596D02*
X0161250Y0084596D01*
X0181250Y0071250D02*
X0192274Y0071250D01*
X0193750Y0072726D01*
X0156014Y0108750D02*
X0146250Y0108750D01*
X0139596Y0113750D02*
X0156014Y0113750D01*
X0133750Y0073750D02*
X0131250Y0071250D01*
X0134596Y0026250D02*
X0147904Y0026250D01*
X0077451Y0028750D02*
X0076250Y0027549D01*
X0076250Y0023750D01*
X0066250Y0031250D02*
X0071250Y0041250D01*
X0073750Y0043750D01*
X0077451Y0043750D01*
X0077451Y0048750D02*
X0073750Y0048750D01*
X0056250Y0031250D01*
X0026250Y0031250D01*
X0026250Y0021250D02*
X0056250Y0021250D01*
X0066250Y0031250D01*
X0056250Y0041250D02*
X0073750Y0053750D01*
X0077451Y0053750D01*
X0077451Y0058750D02*
X0066250Y0056250D01*
X0061250Y0053750D01*
X0048750Y0051250D01*
X0026250Y0051250D01*
X0026250Y0041250D02*
X0056250Y0041250D01*
X0066250Y0061250D02*
X0077451Y0063750D01*
X0074596Y0063750D01*
X0074596Y0071250D01*
X0067904Y0071250D02*
X0061250Y0071250D01*
X0066250Y0061250D02*
X0026250Y0061250D01*
X0031014Y0103750D02*
X0031014Y0106250D01*
X0043750Y0106250D02*
X0043750Y0116250D01*
X0042500Y0117500D01*
X0051250Y0108514D02*
X0051250Y0106250D01*
X0043750Y0106250D01*
X0051250Y0108514D02*
X0051486Y0108750D01*
X0051486Y0103750D01*
X0065679Y0103750D01*
X0076250Y0116250D02*
X0079596Y0119596D01*
X0079596Y0121250D01*
X0079596Y0126896D01*
X0084950Y0132250D01*
X0081150Y0140250D02*
X0083750Y0143750D01*
X0095640Y0143750D01*
X0096250Y0144360D01*
X0108750Y0151250D02*
X0113750Y0146250D01*
X0113750Y0142096D01*
X0079950Y0121604D02*
X0079596Y0121250D01*
X0026250Y0128750D02*
X0021250Y0128750D01*
X0021250Y0126250D01*
X0077904Y0186250D02*
X0077904Y0190304D01*
X0082350Y0194750D01*
X0086350Y0198750D01*
X0086150Y0202750D02*
X0104679Y0202750D01*
X0104419Y0202490D01*
X0122904Y0201250D02*
X0123750Y0202096D01*
D24*
X0101250Y0168750D03*
X0108750Y0151250D03*
X0101250Y0136250D03*
X0096250Y0118750D03*
X0086250Y0106250D03*
X0118750Y0103750D03*
X0146250Y0108750D03*
X0151250Y0126250D03*
X0151250Y0161250D03*
X0141250Y0166250D03*
X0193750Y0103750D03*
X0181250Y0071250D03*
X0156250Y0083750D03*
X0146250Y0068750D03*
X0133750Y0073750D03*
X0126250Y0056250D03*
X0146250Y0048750D03*
X0148750Y0033750D03*
X0126250Y0031250D03*
X0076250Y0023750D03*
X0061250Y0053750D03*
X0061250Y0071250D03*
X0071250Y0161250D03*
M02*
