%
M48
M72
T01C0.01969
T02C0.05200
T03C0.21654
%
T01
X71250Y161250
X101250Y168750
X108750Y151250
X101250Y136250
X96250Y118750
X86250Y106250
X118750Y103750
X146250Y108750
X151250Y126250
X151250Y161250
X141250Y166250
X193750Y103750
X181250Y71250
X156250Y83750
X146250Y68750
X133750Y73750
X126250Y56250
X146250Y48750
X148750Y33750
X126250Y31250
X76250Y23750
X61250Y53750
X61250Y71250
T02
X26250Y21250
X26250Y31250
X26250Y41250
X26250Y51250
X26250Y61250
X26250Y128750
X26250Y138750
X26250Y148750
X198750Y186250
X198750Y196250
T03
X31250Y193750
X191250Y31250
M30
